SplineFontDB: 3.0
FontName: Coda-Heavy
FullName: Coda-Heavy
FamilyName: Coda
Weight: Black
Copyright: Copyright (c) 2009 by vernon adams. All rights reserved.
Version: 1.000;PS 001.001;hotconv 1.0.56
ItalicAngle: 0
UnderlinePosition: -103
UnderlineWidth: 102
Ascent: 1638
Descent: 410
sfntRevision: 0x00010000
LayerCount: 2
Layer: 0 1 "Back"  1
Layer: 1 1 "Fore"  0
NeedsXUIDChange: 1
XUID: [1021 14 500265001 13710091]
FSType: 256
OS2Version: 2
OS2_WeightWidthSlopeOnly: 0
OS2_UseTypoMetrics: 1
CreationTime: 1313148003
ModificationTime: 1317474280
PfmFamily: 17
TTFWeight: 900
TTFWidth: 1
LineGap: 0
VLineGap: 0
Panose: 2 0 5 5 2 0 0 2 0 4
OS2TypoAscent: 72
OS2TypoAOffset: 1
OS2TypoDescent: 2
OS2TypoDOffset: 1
OS2TypoLinegap: 0
OS2WinAscent: -44
OS2WinAOffset: 1
OS2WinDescent: -228
OS2WinDOffset: 1
HheadAscent: -573
HheadAOffset: 1
HheadDescent: 314
HheadDOffset: 1
OS2SubXSize: 1331
OS2SubYSize: 1228
OS2SubXOff: 0
OS2SubYOff: 153
OS2SupXSize: 1331
OS2SupYSize: 1228
OS2SupXOff: 0
OS2SupYOff: 716
OS2StrikeYSize: 102
OS2StrikeYPos: 780
OS2Vendor: 'newt'
OS2CodePages: 20000093.00000000
OS2UnicodeRanges: 00000007.00000000.00000000.00000000
Lookup: 258 0 0 "'kern' Horizontal Kerning lookup 0"  {"'kern' Horizontal Kerning lookup 0 subtable"  } ['kern' ('DFLT' <'dflt' > ) ]
DEI: 91125
KernClass2: 2+ 3 "'kern' Horizontal Kerning lookup 0 subtable" 
 1 A
 1 T
 1 T
 11 a c d e o q
 0 {} -107 {} -17 {} 0 {} 0 {} -102 {}
ShortTable: maxp 16
  1
  0
  332
  127
  5
  77
  3
  1
  0
  0
  0
  0
  0
  0
  2
  1
EndShort

StartChar: numbersign
Encoding: 35 35 4
Width: 1742
Flags: W
LayerCount: 2
Fore
SplineSet
1435 420 m 1,0,-1
 1435 404 l 1,1,-1
 1376 0 l 1,2,-1
 855 0 l 1,3,-1
 916 398 l 1,4,-1
 916 419 l 1,5,-1
 709 419 l 1,6,-1
 709 403 l 1,7,-1
 651 0 l 1,8,-1
 129 0 l 1,9,-1
 188 398 l 1,10,-1
 188 419 l 1,11,-1
 53 419 l 1,12,-1
 73 568 l 1,13,-1
 221 568 l 1,14,-1
 221 585 l 1,15,-1
 272 949 l 1,16,-1
 272 971 l 1,17,-1
 121 971 l 1,18,-1
 147 1135 l 1,19,-1
 309 1135 l 1,20,-1
 309 1151 l 1,21,-1
 361 1521 l 1,22,-1
 880 1521 l 1,23,-1
 829 1156 l 1,24,-1
 829 1135 l 1,25,-1
 1033 1135 l 1,26,-1
 1033 1151 l 1,27,-1
 1088 1521 l 1,28,-1
 1605 1521 l 1,29,-1
 1554 1156 l 1,30,-1
 1554 1135 l 1,31,-1
 1705 1135 l 1,32,-1
 1678 972 l 1,33,-1
 1519 972 l 1,34,-1
 1519 956 l 1,35,-1
 1465 590 l 1,36,-1
 1465 568 l 1,37,-1
 1632 568 l 1,38,-1
 1609 420 l 1,39,-1
 1435 420 l 1,0,-1
945 568 m 1,40,-1
 945 585 l 1,41,-1
 1000 949 l 1,42,-1
 1000 971 l 1,43,-1
 794 971 l 1,44,-1
 794 955 l 1,45,-1
 741 590 l 1,46,-1
 741 568 l 1,47,-1
 945 568 l 1,40,-1
EndSplineSet
EndChar

StartChar: dollar
Encoding: 36 36 5
Width: 1490
Flags: W
LayerCount: 2
Fore
SplineSet
707 21 m 1,0,1
 575 22 575 22 463.5 34.5 c 128,-1,2
 352 47 352 47 271 86 c 128,-1,3
 190 125 190 125 144.5 199 c 128,-1,4
 99 273 99 273 99 397 c 0,5,6
 99 410 99 410 99 414 c 128,-1,7
 99 418 99 418 100 433 c 1,8,-1
 619 401 l 1,9,-1
 619 238 l 1,10,-1
 707 238 l 1,11,-1
 707 573 l 1,12,13
 630 586 630 586 553 601.5 c 128,-1,14
 476 617 476 617 405 640.5 c 128,-1,15
 334 664 334 664 272.5 696.5 c 128,-1,16
 211 729 211 729 165 776.5 c 128,-1,17
 119 824 119 824 93 888 c 128,-1,18
 67 952 67 952 67 1037 c 0,19,20
 67 1170 67 1170 116.5 1254 c 128,-1,21
 166 1338 166 1338 252 1385 c 128,-1,22
 338 1432 338 1432 455 1450 c 128,-1,23
 572 1468 572 1468 707 1470 c 1,24,-1
 707 1652 l 1,25,-1
 789 1652 l 1,26,-1
 789 1471 l 1,27,28
 907 1470 907 1470 1005 1461 c 128,-1,29
 1103 1452 1103 1452 1185 1429 c 1,30,31
 1251 1408 1251 1408 1292.5 1378 c 128,-1,32
 1334 1348 1334 1348 1357.5 1310 c 128,-1,33
 1381 1272 1381 1272 1389.5 1227 c 128,-1,34
 1398 1182 1398 1182 1398 1131 c 0,35,36
 1398 1111 1398 1111 1397.5 1099.5 c 128,-1,37
 1397 1088 1397 1088 1395 1068 c 1,38,-1
 876 1096 l 1,39,-1
 876 1254 l 1,40,-1
 789 1254 l 1,41,-1
 789 937 l 1,42,43
 863 923 863 923 939 907.5 c 128,-1,44
 1015 892 1015 892 1085.5 869 c 128,-1,45
 1156 846 1156 846 1218.5 813.5 c 128,-1,46
 1281 781 1281 781 1327 735 c 128,-1,47
 1373 689 1373 689 1400 626 c 128,-1,48
 1427 563 1427 563 1427 479 c 0,49,50
 1427 343 1427 343 1383.5 255.5 c 128,-1,51
 1340 168 1340 168 1257.5 117 c 128,-1,52
 1175 66 1175 66 1056.5 45 c 128,-1,53
 938 24 938 24 789 22 c 1,54,-1
 789 -165 l 1,55,-1
 707 -165 l 1,56,-1
 707 21 l 1,0,1
789 559 m 1,57,-1
 789 238 l 1,58,-1
 876 238 l 1,59,-1
 876 544 l 1,60,-1
 789 559 l 1,57,-1
649 963 m 2,61,62
 654 963 654 963 660.5 962 c 128,-1,63
 667 961 667 961 667 960 c 2,64,-1
 707 951 l 1,65,-1
 707 1254 l 1,66,-1
 619 1254 l 1,67,-1
 619 969 l 1,68,-1
 649 963 l 2,61,62
EndSplineSet
EndChar

StartChar: percent
Encoding: 37 37 6
Width: 2778
Flags: W
LayerCount: 2
Fore
SplineSet
493 1347 m 1,0,-1
 493 776 l 1,1,-1
 588 776 l 1,2,-1
 588 1347 l 1,3,-1
 493 1347 l 1,0,-1
538 603 m 0,4,5
 479 603 479 603 421.5 604.5 c 128,-1,6
 364 606 364 606 312 614.5 c 128,-1,7
 260 623 260 623 216 640.5 c 128,-1,8
 172 658 172 658 139.5 689.5 c 128,-1,9
 107 721 107 721 88.5 769 c 128,-1,10
 70 817 70 817 70 887 c 2,11,-1
 70 1238 l 2,12,13
 70 1304 70 1304 88.5 1351 c 128,-1,14
 107 1398 107 1398 139.5 1429.5 c 128,-1,15
 172 1461 172 1461 216.5 1479 c 128,-1,16
 261 1497 261 1497 313 1506.5 c 128,-1,17
 365 1516 365 1516 422 1518.5 c 128,-1,18
 479 1521 479 1521 537 1521 c 0,19,20
 594 1521 594 1521 651 1518.5 c 128,-1,21
 708 1516 708 1516 760 1507 c 128,-1,22
 812 1498 812 1498 857 1480 c 128,-1,23
 902 1462 902 1462 935 1430.5 c 128,-1,24
 968 1399 968 1399 987 1352.5 c 128,-1,25
 1006 1306 1006 1306 1006 1240 c 2,26,-1
 1006 889 l 2,27,28
 1006 821 1006 821 987.5 773 c 128,-1,29
 969 725 969 725 936 693.5 c 128,-1,30
 903 662 903 662 858.5 644 c 128,-1,31
 814 626 814 626 762 616.5 c 128,-1,32
 710 607 710 607 653 605 c 128,-1,33
 596 603 596 603 538 603 c 0,4,5
2199 873 m 1,34,-1
 2199 301 l 1,35,-1
 2293 301 l 1,36,-1
 2293 873 l 1,37,-1
 2199 873 l 1,34,-1
2244 127 m 0,38,39
 2156 127 2156 127 2072 133.5 c 128,-1,40
 1988 140 1988 140 1922 168.5 c 128,-1,41
 1856 197 1856 197 1816 254 c 128,-1,42
 1776 311 1776 311 1776 412 c 2,43,-1
 1776 760 l 2,44,45
 1776 827 1776 827 1794.5 874 c 128,-1,46
 1813 921 1813 921 1845 953 c 128,-1,47
 1877 985 1877 985 1921.5 1003 c 128,-1,48
 1966 1021 1966 1021 2018 1030.5 c 128,-1,49
 2070 1040 2070 1040 2127 1042.5 c 128,-1,50
 2184 1045 2184 1045 2243 1045 c 0,51,52
 2301 1045 2301 1045 2358.5 1042.5 c 128,-1,53
 2416 1040 2416 1040 2468 1031 c 128,-1,54
 2520 1022 2520 1022 2564.5 1003.5 c 128,-1,55
 2609 985 2609 985 2642 953.5 c 128,-1,56
 2675 922 2675 922 2693.5 875 c 128,-1,57
 2712 828 2712 828 2712 761 c 2,58,-1
 2712 413 l 2,59,60
 2712 347 2712 347 2693.5 300 c 128,-1,61
 2675 253 2675 253 2642 221.5 c 128,-1,62
 2609 190 2609 190 2564.5 171 c 128,-1,63
 2520 152 2520 152 2468 142.5 c 128,-1,64
 2416 133 2416 133 2358.5 130 c 128,-1,65
 2301 127 2301 127 2244 127 c 0,38,39
1401 -38 m 1,66,-1
 1002 -38 l 1,67,-1
 1387 1557 l 1,68,-1
 1784 1557 l 1,69,-1
 1401 -38 l 1,66,-1
EndSplineSet
EndChar

StartChar: ampersand
Encoding: 38 38 7
Width: 1694
Flags: W
LayerCount: 2
Fore
SplineSet
728 720 m 1,0,-1
 728 180 l 1,1,-1
 947 180 l 1,2,-1
 947 720 l 1,3,-1
 728 720 l 1,0,-1
271 853 m 1,4,5
 245 857 245 857 215.5 875 c 128,-1,6
 186 893 186 893 160.5 928 c 128,-1,7
 135 963 135 963 118 1018 c 128,-1,8
 101 1073 101 1073 101 1151 c 0,9,10
 101 1244 101 1244 131 1310 c 128,-1,11
 161 1376 161 1376 214 1421.5 c 128,-1,12
 267 1467 267 1467 338.5 1493.5 c 128,-1,13
 410 1520 410 1520 494 1534.5 c 128,-1,14
 578 1549 578 1549 669.5 1553 c 128,-1,15
 761 1557 761 1557 853 1557 c 0,16,17
 1014 1557 1014 1557 1137.5 1537 c 128,-1,18
 1261 1517 1261 1517 1344.5 1473 c 128,-1,19
 1428 1429 1428 1429 1471 1360 c 128,-1,20
 1514 1291 1514 1291 1514 1192 c 0,21,22
 1514 1176 1514 1176 1513.5 1168 c 128,-1,23
 1513 1160 1513 1160 1513 1157 c 1,24,-1
 944 1157 l 1,25,-1
 944 1362 l 1,26,-1
 728 1362 l 1,27,-1
 728 869 l 1,28,-1
 947 869 l 1,29,-1
 947 1007 l 1,30,-1
 1514 1007 l 1,31,-1
 1514 869 l 1,32,-1
 1671 869 l 1,33,-1
 1671 720 l 1,34,-1
 1514 720 l 1,35,-1
 1514 482 l 2,36,37
 1514 379 1514 379 1501.5 300.5 c 128,-1,38
 1489 222 1489 222 1458 164 c 128,-1,39
 1427 106 1427 106 1375.5 67 c 128,-1,40
 1324 28 1324 28 1246 4.5 c 128,-1,41
 1168 -19 1168 -19 1060.5 -29 c 128,-1,42
 953 -39 953 -39 811 -39 c 0,43,44
 706 -39 706 -39 612 -33.5 c 128,-1,45
 518 -28 518 -28 439.5 -10.5 c 128,-1,46
 361 7 361 7 298.5 38.5 c 128,-1,47
 236 70 236 70 192 121.5 c 128,-1,48
 148 173 148 173 125 247.5 c 128,-1,49
 102 322 102 322 102 426 c 0,50,51
 102 465 102 465 111 518 c 128,-1,52
 120 571 120 571 140.5 620.5 c 128,-1,53
 161 670 161 670 193 707 c 128,-1,54
 225 744 225 744 271 751 c 1,55,-1
 387 766 l 1,56,-1
 387 841 l 1,57,-1
 271 853 l 1,4,5
EndSplineSet
EndChar

StartChar: quotesingle
Encoding: 39 39 8
Width: 554
Flags: W
LayerCount: 2
Fore
SplineSet
212 861 m 1,0,1
 202 903 202 903 187.5 952.5 c 128,-1,2
 173 1002 173 1002 158 1053.5 c 128,-1,3
 143 1105 143 1105 128 1157 c 128,-1,4
 113 1209 113 1209 101.5 1255 c 128,-1,5
 90 1301 90 1301 82.5 1339 c 128,-1,6
 75 1377 75 1377 75 1402 c 0,7,8
 75 1441 75 1441 91.5 1469.5 c 128,-1,9
 108 1498 108 1498 135 1517 c 128,-1,10
 162 1536 162 1536 196.5 1545 c 128,-1,11
 231 1554 231 1554 268 1554 c 256,12,13
 305 1554 305 1554 341.5 1544 c 128,-1,14
 378 1534 378 1534 406.5 1514.5 c 128,-1,15
 435 1495 435 1495 452.5 1466.5 c 128,-1,16
 470 1438 470 1438 470 1400 c 0,17,18
 470 1379 470 1379 462.5 1343.5 c 128,-1,19
 455 1308 455 1308 443.5 1264.5 c 128,-1,20
 432 1221 432 1221 418 1173 c 128,-1,21
 404 1125 404 1125 390 1081 c 2,22,-1
 377 1039 l 2,23,24
 363 994 363 994 350.5 946.5 c 128,-1,25
 338 899 338 899 328 861 c 1,26,27
 321 841 321 841 304 830 c 128,-1,28
 287 819 287 819 270 819 c 0,29,30
 250 819 250 819 234 829.5 c 128,-1,31
 218 840 218 840 212 863 c 1,32,-1
 212 861 l 1,0,1
EndSplineSet
EndChar

StartChar: parenleft
Encoding: 40 40 9
Width: 618
Flags: W
LayerCount: 2
Fore
SplineSet
89 790 m 256,0,1
 89 905 89 905 103.5 1019 c 128,-1,2
 118 1133 118 1133 147 1236.5 c 128,-1,3
 176 1340 176 1340 219.5 1428.5 c 128,-1,4
 263 1517 263 1517 321 1582.5 c 128,-1,5
 379 1648 379 1648 452 1685 c 128,-1,6
 525 1722 525 1722 613 1722 c 2,7,-1
 709 1722 l 1,8,-1
 709 1577 l 1,9,-1
 641 1577 l 2,10,11
 587 1577 587 1577 540.5 1545.5 c 128,-1,12
 494 1514 494 1514 456 1458.5 c 128,-1,13
 418 1403 418 1403 388.5 1328 c 128,-1,14
 359 1253 359 1253 339 1165.5 c 128,-1,15
 319 1078 319 1078 308.5 982 c 128,-1,16
 298 886 298 886 298 790 c 0,17,18
 298 693 298 693 308.5 598 c 128,-1,19
 319 503 319 503 339 417.5 c 128,-1,20
 359 332 359 332 388.5 259 c 128,-1,21
 418 186 418 186 456 132.5 c 128,-1,22
 494 79 494 79 540.5 49 c 128,-1,23
 587 19 587 19 641 19 c 2,24,-1
 709 19 l 1,25,-1
 709 -125 l 1,26,-1
 613 -125 l 2,27,28
 525 -125 525 -125 452 -89 c 128,-1,29
 379 -53 379 -53 321 10 c 128,-1,30
 263 73 263 73 219.5 159.5 c 128,-1,31
 176 246 176 246 147 348 c 128,-1,32
 118 450 118 450 103.5 562.5 c 128,-1,33
 89 675 89 675 89 790 c 256,0,1
EndSplineSet
EndChar

StartChar: parenright
Encoding: 41 41 10
Width: 620
Flags: W
LayerCount: 2
Fore
SplineSet
536 790 m 256,0,1
 536 675 536 675 521.5 562.5 c 128,-1,2
 507 450 507 450 478 348 c 128,-1,3
 449 246 449 246 405.5 159.5 c 128,-1,4
 362 73 362 73 304 10 c 128,-1,5
 246 -53 246 -53 173 -89 c 128,-1,6
 100 -125 100 -125 12 -125 c 2,7,-1
 -84 -125 l 1,8,-1
 -84 19 l 1,9,-1
 -16 19 l 2,10,11
 38 19 38 19 84.5 49 c 128,-1,12
 131 79 131 79 169 132.5 c 128,-1,13
 207 186 207 186 236.5 259 c 128,-1,14
 266 332 266 332 286 417.5 c 128,-1,15
 306 503 306 503 316.5 598 c 128,-1,16
 327 693 327 693 327 790 c 0,17,18
 327 886 327 886 316.5 982 c 128,-1,19
 306 1078 306 1078 286 1165.5 c 128,-1,20
 266 1253 266 1253 236.5 1328 c 128,-1,21
 207 1403 207 1403 169 1458.5 c 128,-1,22
 131 1514 131 1514 84.5 1545.5 c 128,-1,23
 38 1577 38 1577 -16 1577 c 2,24,-1
 -84 1577 l 1,25,-1
 -84 1722 l 1,26,-1
 12 1722 l 2,27,28
 100 1722 100 1722 173 1685 c 128,-1,29
 246 1648 246 1648 304 1582.5 c 128,-1,30
 362 1517 362 1517 405.5 1428.5 c 128,-1,31
 449 1340 449 1340 478 1236.5 c 128,-1,32
 507 1133 507 1133 521.5 1019 c 128,-1,33
 536 905 536 905 536 790 c 256,0,1
EndSplineSet
EndChar

StartChar: asterisk
Encoding: 42 42 11
Width: 1317
Flags: W
LayerCount: 2
Fore
SplineSet
774 469 m 0,0,1
 763 486 763 486 752 513.5 c 128,-1,2
 741 541 741 541 729.5 574.5 c 128,-1,3
 718 608 718 608 706.5 646.5 c 128,-1,4
 695 685 695 685 683 724 c 2,5,-1
 658 807 l 1,6,-1
 631 712 l 2,7,8
 614 653 614 653 596.5 600.5 c 128,-1,9
 579 548 579 548 556 507.5 c 128,-1,10
 533 467 533 467 504 443.5 c 128,-1,11
 475 420 475 420 436 420 c 0,12,13
 404 420 404 420 372.5 430.5 c 128,-1,14
 341 441 341 441 316.5 459 c 128,-1,15
 292 477 292 477 276.5 500 c 128,-1,16
 261 523 261 523 261 549 c 0,17,18
 261 571 261 571 286 603.5 c 128,-1,19
 311 636 311 636 351 675 c 128,-1,20
 391 714 391 714 441.5 758 c 128,-1,21
 492 802 492 802 543 847 c 1,22,-1
 543 880 l 1,23,-1
 496 868 l 2,24,25
 450 856 450 856 404 843.5 c 128,-1,26
 358 831 358 831 316 821.5 c 128,-1,27
 274 812 274 812 238.5 805.5 c 128,-1,28
 203 799 203 799 178 799 c 0,29,30
 144 799 144 799 119 809 c 128,-1,31
 94 819 94 819 77.5 835.5 c 128,-1,32
 61 852 61 852 53 874 c 128,-1,33
 45 896 45 896 45 920 c 256,34,35
 45 944 45 944 53 967 c 128,-1,36
 61 990 61 990 77.5 1008 c 128,-1,37
 94 1026 94 1026 118 1037 c 128,-1,38
 142 1048 142 1048 175 1048 c 0,39,40
 195 1048 195 1048 229 1042 c 128,-1,41
 263 1036 263 1036 303.5 1027 c 128,-1,42
 344 1018 344 1018 387.5 1006.5 c 128,-1,43
 431 995 431 995 469 984 c 1,44,-1
 543 965 l 1,45,-1
 543 998 l 1,46,-1
 487 1048 l 2,47,48
 441 1089 441 1089 400 1126.5 c 128,-1,49
 359 1164 359 1164 328 1197 c 128,-1,50
 297 1230 297 1230 279 1256.5 c 128,-1,51
 261 1283 261 1283 261 1302 c 0,52,53
 261 1328 261 1328 276.5 1350.5 c 128,-1,54
 292 1373 292 1373 317 1390 c 128,-1,55
 342 1407 342 1407 373 1416.5 c 128,-1,56
 404 1426 404 1426 436 1426 c 0,57,58
 471 1426 471 1426 500 1414 c 128,-1,59
 529 1402 529 1402 545 1379 c 1,60,61
 557 1359 557 1359 568.5 1329.5 c 128,-1,62
 580 1300 580 1300 591.5 1265.5 c 128,-1,63
 603 1231 603 1231 614 1192.5 c 128,-1,64
 625 1154 625 1154 636 1117 c 1,65,-1
 658 1033 l 1,66,-1
 687 1134 l 2,67,68
 697 1170 697 1170 708 1205.5 c 128,-1,69
 719 1241 719 1241 729.5 1273 c 128,-1,70
 740 1305 740 1305 751 1332 c 128,-1,71
 762 1359 762 1359 773 1379 c 1,72,73
 787 1402 787 1402 817 1414 c 128,-1,74
 847 1426 847 1426 881 1426 c 0,75,76
 912 1426 912 1426 943 1416 c 128,-1,77
 974 1406 974 1406 999 1389.5 c 128,-1,78
 1024 1373 1024 1373 1040 1350 c 128,-1,79
 1056 1327 1056 1327 1056 1302 c 0,80,81
 1056 1282 1056 1282 1038.5 1256.5 c 128,-1,82
 1021 1231 1021 1231 991 1200.5 c 128,-1,83
 961 1170 961 1170 921.5 1133.5 c 128,-1,84
 882 1097 882 1097 838 1057 c 2,85,-1
 774 998 l 1,86,-1
 774 965 l 1,87,88
 784 966 784 966 794 970 c 128,-1,89
 804 974 804 974 813 976 c 2,90,-1
 845 984 l 2,91,92
 885 994 885 994 927 1005.5 c 128,-1,93
 969 1017 969 1017 1008 1026.5 c 128,-1,94
 1047 1036 1047 1036 1080.5 1042 c 128,-1,95
 1114 1048 1114 1048 1137 1048 c 0,96,97
 1170 1048 1170 1048 1195.5 1037.5 c 128,-1,98
 1221 1027 1221 1027 1238.5 1009 c 128,-1,99
 1256 991 1256 991 1264.5 968 c 128,-1,100
 1273 945 1273 945 1273 920 c 0,101,102
 1273 897 1273 897 1265 875.5 c 128,-1,103
 1257 854 1257 854 1241 837 c 128,-1,104
 1225 820 1225 820 1200 809.5 c 128,-1,105
 1175 799 1175 799 1142 799 c 0,106,107
 1122 799 1122 799 1088.5 804.5 c 128,-1,108
 1055 810 1055 810 1014.5 819 c 128,-1,109
 974 828 974 828 930 839 c 128,-1,110
 886 850 886 850 846 860 c 1,111,-1
 774 880 l 1,112,-1
 774 847 l 1,113,-1
 828 799 l 2,114,115
 871 761 871 761 912 724 c 128,-1,116
 953 687 953 687 984.5 654.5 c 128,-1,117
 1016 622 1016 622 1035.5 595 c 128,-1,118
 1055 568 1055 568 1055 549 c 0,119,120
 1055 523 1055 523 1039.5 499.5 c 128,-1,121
 1024 476 1024 476 999 458.5 c 128,-1,122
 974 441 974 441 943 430.5 c 128,-1,123
 912 420 912 420 881 420 c 0,124,125
 848 420 848 420 819.5 431 c 128,-1,126
 791 442 791 442 774 469 c 0,0,1
EndSplineSet
EndChar

StartChar: plus
Encoding: 43 43 12
Width: 1248
Flags: W
LayerCount: 2
Fore
SplineSet
836 1127 m 1,0,-1
 836 754 l 1,1,-1
 1215 754 l 1,2,-1
 1215 468 l 1,3,-1
 836 468 l 1,4,-1
 836 98 l 1,5,-1
 429 98 l 1,6,-1
 429 468 l 1,7,-1
 48 468 l 1,8,-1
 48 754 l 1,9,-1
 429 754 l 1,10,-1
 429 1127 l 1,11,-1
 836 1127 l 1,0,-1
EndSplineSet
EndChar

StartChar: comma
Encoding: 44 44 13
Width: 608
Flags: W
LayerCount: 2
Fore
SplineSet
103 184 m 0,0,1
 103 229 103 229 121 262 c 128,-1,2
 139 295 139 295 169 317.5 c 128,-1,3
 199 340 199 340 237 351 c 128,-1,4
 275 362 275 362 315 362 c 0,5,6
 371 362 371 362 412.5 344.5 c 128,-1,7
 454 327 454 327 481 297 c 128,-1,8
 508 267 508 267 521 228 c 128,-1,9
 534 189 534 189 534 146 c 0,10,11
 534 82 534 82 510 15.5 c 128,-1,12
 486 -51 486 -51 439.5 -105.5 c 128,-1,13
 393 -160 393 -160 325.5 -194.5 c 128,-1,14
 258 -229 258 -229 171 -229 c 0,15,16
 160 -229 160 -229 149 -228.5 c 128,-1,17
 138 -228 138 -228 127 -227 c 1,18,-1
 127 -159 l 1,19,20
 156 -159 156 -159 183.5 -148.5 c 128,-1,21
 211 -138 211 -138 233.5 -120 c 128,-1,22
 256 -102 256 -102 270.5 -76.5 c 128,-1,23
 285 -51 285 -51 289 -20 c 1,24,-1
 289 0 l 1,25,26
 253 3 253 3 219.5 16.5 c 128,-1,27
 186 30 186 30 160 53 c 128,-1,28
 134 76 134 76 118.5 109 c 128,-1,29
 103 142 103 142 103 184 c 0,0,1
EndSplineSet
EndChar

StartChar: hyphen
Encoding: 45 45 14
Width: 1279
Flags: W
LayerCount: 2
Fore
SplineSet
1165 468 m 1,0,-1
 124 468 l 1,1,-1
 124 754 l 1,2,-1
 1165 754 l 1,3,-1
 1165 468 l 1,0,-1
EndSplineSet
EndChar

StartChar: period
Encoding: 46 46 15
Width: 590
Flags: W
LayerCount: 2
Fore
SplineSet
94 148 m 256,0,1
 94 195 94 195 112 230 c 128,-1,2
 130 265 130 265 160 288 c 128,-1,3
 190 311 190 311 228 322.5 c 128,-1,4
 266 334 266 334 306 334 c 0,5,6
 345 334 345 334 383 322.5 c 128,-1,7
 421 311 421 311 451 288 c 128,-1,8
 481 265 481 265 499 230 c 128,-1,9
 517 195 517 195 517 148 c 256,10,11
 517 101 517 101 499 66 c 128,-1,12
 481 31 481 31 451 8 c 128,-1,13
 421 -15 421 -15 383 -26.5 c 128,-1,14
 345 -38 345 -38 306 -38 c 0,15,16
 266 -38 266 -38 228 -26.5 c 128,-1,17
 190 -15 190 -15 160 8 c 128,-1,18
 130 31 130 31 112 66 c 128,-1,19
 94 101 94 101 94 148 c 256,0,1
EndSplineSet
EndChar

StartChar: slash
Encoding: 47 47 16
Width: 845
Flags: HW
LayerCount: 2
Fore
SplineSet
499 1501 m 1,0,-1
 707 1501 l 1,1,-1
 331 0 l 1,2,-1
 120 0 l 1,3,-1
 499 1501 l 1,0,-1
EndSplineSet
EndChar

StartChar: zero
Encoding: 48 48 17
Width: 1589
Flags: W
LayerCount: 2
Fore
SplineSet
881 190 m 1,0,-1
 881 1328 l 1,1,-1
 709 1328 l 1,2,-1
 709 190 l 1,3,-1
 881 190 l 1,0,-1
798 -38 m 0,4,5
 716 -38 716 -38 634 -34.5 c 128,-1,6
 552 -31 552 -31 477 -19 c 128,-1,7
 402 -7 402 -7 337.5 16.5 c 128,-1,8
 273 40 273 40 225 80 c 128,-1,9
 177 120 177 120 150 179.5 c 128,-1,10
 123 239 123 239 123 324 c 2,11,-1
 123 1196 l 2,12,13
 123 1281 123 1281 150.5 1341 c 128,-1,14
 178 1401 178 1401 226.5 1441 c 128,-1,15
 275 1481 275 1481 340 1504.5 c 128,-1,16
 405 1528 405 1528 480 1540 c 128,-1,17
 555 1552 555 1552 636 1555 c 128,-1,18
 717 1558 717 1558 797 1558 c 0,19,20
 880 1558 880 1558 962 1554.5 c 128,-1,21
 1044 1551 1044 1551 1118.5 1538.5 c 128,-1,22
 1193 1526 1193 1526 1257 1502 c 128,-1,23
 1321 1478 1321 1478 1368 1438 c 128,-1,24
 1415 1398 1415 1398 1441.5 1338.5 c 128,-1,25
 1468 1279 1468 1279 1468 1196 c 2,26,-1
 1468 324 l 2,27,28
 1468 237 1468 237 1441 176.5 c 128,-1,29
 1414 116 1414 116 1366.5 75.5 c 128,-1,30
 1319 35 1319 35 1255 12.5 c 128,-1,31
 1191 -10 1191 -10 1116.5 -21.5 c 128,-1,32
 1042 -33 1042 -33 960.5 -35.5 c 128,-1,33
 879 -38 879 -38 798 -38 c 0,4,5
EndSplineSet
EndChar

StartChar: one
Encoding: 49 49 18
Width: 1013
Flags: W
LayerCount: 2
Fore
SplineSet
7 1261 m 1,0,-1
 7 1439 l 1,1,2
 111 1439 111 1439 201.5 1460 c 128,-1,3
 292 1481 292 1481 361 1521 c 1,4,-1
 865 1521 l 1,5,-1
 865 0 l 1,6,-1
 236 0 l 1,7,-1
 236 1261 l 1,8,-1
 7 1261 l 1,0,-1
EndSplineSet
EndChar

StartChar: two
Encoding: 50 50 19
Width: 1496
Flags: W
LayerCount: 2
Fore
SplineSet
95 1044 m 1,0,1
 94 1055 94 1055 93.5 1063 c 128,-1,2
 93 1071 93 1071 93 1079 c 0,3,4
 93 1224 93 1224 143 1317 c 128,-1,5
 193 1410 193 1410 282 1463.5 c 128,-1,6
 371 1517 371 1517 493.5 1537.5 c 128,-1,7
 616 1558 616 1558 760 1558 c 0,8,9
 924 1558 924 1558 1047.5 1533 c 128,-1,10
 1171 1508 1171 1508 1253 1451.5 c 128,-1,11
 1335 1395 1335 1395 1376 1304 c 128,-1,12
 1417 1213 1417 1213 1417 1080 c 0,13,14
 1417 999 1417 999 1395 934 c 128,-1,15
 1373 869 1373 869 1335 816.5 c 128,-1,16
 1297 764 1297 764 1247 722.5 c 128,-1,17
 1197 681 1197 681 1140 647 c 128,-1,18
 1083 613 1083 613 1023 584.5 c 128,-1,19
 963 556 963 556 906 530 c 0,20,21
 865 511 865 511 822.5 488 c 128,-1,22
 780 465 780 465 745.5 434.5 c 128,-1,23
 711 404 711 404 689.5 364.5 c 128,-1,24
 668 325 668 325 668 274 c 2,25,-1
 668 255 l 1,26,-1
 1342 255 l 1,27,-1
 1342 1 l 1,28,-1
 95 1 l 1,29,-1
 95 177 l 2,30,31
 95 263 95 263 115 336.5 c 128,-1,32
 135 410 135 410 170.5 472.5 c 128,-1,33
 206 535 206 535 254.5 587.5 c 128,-1,34
 303 640 303 640 360.5 684.5 c 128,-1,35
 418 729 418 729 481.5 766 c 128,-1,36
 545 803 545 803 610 834 c 0,37,38
 646 851 646 851 684 870.5 c 128,-1,39
 722 890 722 890 754 914.5 c 128,-1,40
 786 939 786 939 806.5 970.5 c 128,-1,41
 827 1002 827 1002 827 1042 c 2,42,-1
 827 1327 l 1,43,-1
 668 1327 l 1,44,-1
 668 1041 l 1,45,-1
 95 1041 l 1,46,-1
 95 1044 l 1,0,1
EndSplineSet
EndChar

StartChar: three
Encoding: 51 51 20
Width: 1529
Flags: W
LayerCount: 2
Fore
SplineSet
757 1557 m 0,0,1
 926 1557 926 1557 1052.5 1532.5 c 128,-1,2
 1179 1508 1179 1508 1263.5 1451 c 128,-1,3
 1348 1394 1348 1394 1390.5 1300.5 c 128,-1,4
 1433 1207 1433 1207 1433 1069 c 0,5,6
 1433 970 1433 970 1376 903 c 128,-1,7
 1319 836 1319 836 1225 801 c 1,8,-1
 1225 765 l 1,9,10
 1331 727 1331 727 1383 656 c 128,-1,11
 1435 585 1435 585 1435 491 c 0,12,13
 1435 334 1435 334 1387 232 c 128,-1,14
 1339 130 1339 130 1251 70 c 128,-1,15
 1163 10 1163 10 1038 -14 c 128,-1,16
 913 -38 913 -38 759 -38 c 0,17,18
 585 -38 585 -38 458.5 -6 c 128,-1,19
 332 26 332 26 250 91.5 c 128,-1,20
 168 157 168 157 128.5 255.5 c 128,-1,21
 89 354 89 354 89 486 c 0,22,23
 89 504 89 504 89.5 523.5 c 128,-1,24
 90 543 90 543 92 560 c 1,25,-1
 666 560 l 1,26,-1
 666 192 l 1,27,-1
 845 192 l 1,28,-1
 845 690 l 1,29,-1
 576 690 l 1,30,-1
 576 871 l 1,31,-1
 845 871 l 1,32,-1
 845 1330 l 1,33,-1
 666 1330 l 1,34,-1
 666 1001 l 1,35,-1
 93 1001 l 1,36,37
 92 1011 92 1011 91.5 1018.5 c 128,-1,38
 91 1026 91 1026 90.5 1033 c 128,-1,39
 90 1040 90 1040 90 1047 c 128,-1,40
 90 1054 90 1054 90 1064 c 0,41,42
 90 1203 90 1203 132.5 1297.5 c 128,-1,43
 175 1392 175 1392 259 1449.5 c 128,-1,44
 343 1507 343 1507 468 1532 c 128,-1,45
 593 1557 593 1557 757 1557 c 0,0,1
EndSplineSet
EndChar

StartChar: four
Encoding: 52 52 21
Width: 1528
Flags: W
LayerCount: 2
Fore
SplineSet
914 0 m 1,0,-1
 914 235 l 1,1,-1
 91 235 l 1,2,-1
 91 618 l 1,3,-1
 351 1521 l 1,4,-1
 943 1521 l 1,5,-1
 689 629 l 1,6,-1
 689 551 l 1,7,-1
 914 551 l 1,8,-1
 914 879 l 1,9,-1
 1446 879 l 1,10,-1
 1446 0 l 1,11,-1
 914 0 l 1,0,-1
EndSplineSet
EndChar

StartChar: five
Encoding: 53 53 22
Width: 1509
Flags: W
LayerCount: 2
Fore
SplineSet
1008 1042 m 0,0,1
 1135 1042 1135 1042 1217.5 1004 c 128,-1,2
 1300 966 1300 966 1348 897 c 128,-1,3
 1396 828 1396 828 1414.5 732 c 128,-1,4
 1433 636 1433 636 1433 521 c 0,5,6
 1433 356 1433 356 1396.5 248 c 128,-1,7
 1360 140 1360 140 1279.5 76.5 c 128,-1,8
 1199 13 1199 13 1070 -12.5 c 128,-1,9
 941 -38 941 -38 757 -38 c 0,10,11
 601 -38 601 -38 476 -17.5 c 128,-1,12
 351 3 351 3 264 55 c 128,-1,13
 177 107 177 107 130 196.5 c 128,-1,14
 83 286 83 286 83 424 c 1,15,-1
 655 424 l 1,16,-1
 655 193 l 1,17,-1
 843 193 l 1,18,-1
 843 820 l 1,19,-1
 655 820 l 1,20,-1
 655 641 l 1,21,-1
 155 641 l 1,22,-1
 155 1522 l 1,23,-1
 1292 1522 l 1,24,-1
 1292 1270 l 1,25,-1
 677 1270 l 1,26,-1
 677 1253 l 1,27,-1
 643 960 l 1,28,-1
 643 945 l 1,29,30
 693 999 693 999 786.5 1020.5 c 128,-1,31
 880 1042 880 1042 1008 1042 c 0,0,1
EndSplineSet
EndChar

StartChar: six
Encoding: 54 54 23
Width: 1539
Flags: W
LayerCount: 2
Fore
SplineSet
855 1133 m 1,0,-1
 855 1338 l 1,1,-1
 685 1338 l 1,2,-1
 685 1007 l 1,3,-1
 815 1007 l 2,4,5
 995 1007 995 1007 1118.5 982 c 128,-1,6
 1242 957 1242 957 1317.5 897 c 128,-1,7
 1393 837 1393 837 1426.5 738 c 128,-1,8
 1460 639 1460 639 1460 492 c 0,9,10
 1460 329 1460 329 1412.5 226.5 c 128,-1,11
 1365 124 1365 124 1275.5 65.5 c 128,-1,12
 1186 7 1186 7 1058 -15 c 128,-1,13
 930 -37 930 -37 770 -38 c 0,14,15
 611 -38 611 -38 488.5 -13 c 128,-1,16
 366 12 366 12 282.5 69 c 128,-1,17
 199 126 199 126 155.5 218.5 c 128,-1,18
 112 311 112 311 112 446 c 2,19,-1
 112 1013 l 2,20,21
 112 1169 112 1169 155.5 1273.5 c 128,-1,22
 199 1378 199 1378 282.5 1441 c 128,-1,23
 366 1504 366 1504 488.5 1530.5 c 128,-1,24
 611 1557 611 1557 769 1557 c 0,25,26
 834 1557 834 1557 906 1553.5 c 128,-1,27
 978 1550 978 1550 1049 1538 c 128,-1,28
 1120 1526 1120 1526 1184.5 1502.5 c 128,-1,29
 1249 1479 1249 1479 1298.5 1438 c 128,-1,30
 1348 1397 1348 1397 1377 1336.5 c 128,-1,31
 1406 1276 1406 1276 1406 1191 c 0,32,33
 1406 1180 1406 1180 1406.5 1168.5 c 128,-1,34
 1407 1157 1407 1157 1407 1148 c 2,35,-1
 1407 1134 l 1,36,37
 1408 1134 1408 1134 1408 1133 c 1,38,-1
 1407 1133 l 1,39,-1
 855 1133 l 1,0,-1
871 193 m 1,40,-1
 871 780 l 1,41,-1
 684 780 l 1,42,-1
 684 193 l 1,43,-1
 871 193 l 1,40,-1
EndSplineSet
EndChar

StartChar: seven
Encoding: 55 55 24
Width: 1054
Flags: W
LayerCount: 2
Fore
SplineSet
975 1305 m 1,0,-1
 745 0 l 1,1,-1
 115 0 l 1,2,-1
 343 1302 l 1,3,-1
 343 1324 l 1,4,-1
 39 1324 l 1,5,-1
 39 1521 l 1,6,-1
 975 1521 l 1,7,-1
 975 1305 l 1,0,-1
EndSplineSet
EndChar

StartChar: eight
Encoding: 56 56 25
Width: 1517
Flags: W
LayerCount: 2
Fore
SplineSet
142 1136 m 0,0,1
 142 1257 142 1257 188 1338 c 128,-1,2
 234 1419 234 1419 316.5 1467.5 c 128,-1,3
 399 1516 399 1516 513.5 1536 c 128,-1,4
 628 1556 628 1556 766 1556 c 256,5,6
 904 1556 904 1556 1017 1536 c 128,-1,7
 1130 1516 1130 1516 1210.5 1467 c 128,-1,8
 1291 1418 1291 1418 1335.5 1337 c 128,-1,9
 1380 1256 1380 1256 1380 1135 c 0,10,11
 1380 1081 1380 1081 1371 1034 c 128,-1,12
 1362 987 1362 987 1342 949 c 128,-1,13
 1322 911 1322 911 1290.5 884 c 128,-1,14
 1259 857 1259 857 1213 844 c 1,15,-1
 1213 806 l 1,16,17
 1274 794 1274 794 1317 761.5 c 128,-1,18
 1360 729 1360 729 1387.5 681 c 128,-1,19
 1415 633 1415 633 1428 571.5 c 128,-1,20
 1441 510 1441 510 1441 441 c 0,21,22
 1441 338 1441 338 1418.5 262.5 c 128,-1,23
 1396 187 1396 187 1354 133.5 c 128,-1,24
 1312 80 1312 80 1252.5 46.5 c 128,-1,25
 1193 13 1193 13 1118 -6 c 128,-1,26
 1043 -25 1043 -25 955 -32 c 128,-1,27
 867 -39 867 -39 768 -39 c 0,28,29
 599 -39 599 -39 471 -16 c 128,-1,30
 343 7 343 7 257.5 62 c 128,-1,31
 172 117 172 117 128.5 209.5 c 128,-1,32
 85 302 85 302 85 441 c 0,33,34
 85 489 85 489 91.5 545.5 c 128,-1,35
 98 602 98 602 119 654.5 c 128,-1,36
 140 707 140 707 178.5 748 c 128,-1,37
 217 789 217 789 280 806 c 1,38,-1
 280 844 l 1,39,40
 240 858 240 858 213.5 886.5 c 128,-1,41
 187 915 187 915 171 953.5 c 128,-1,42
 155 992 155 992 148.5 1039 c 128,-1,43
 142 1086 142 1086 142 1136 c 0,0,1
844 900 m 1,44,-1
 844 1324 l 1,45,-1
 684 1324 l 1,46,-1
 684 900 l 1,47,-1
 844 900 l 1,44,-1
844 192 m 1,48,-1
 844 705 l 1,49,-1
 671 705 l 1,50,-1
 671 192 l 1,51,-1
 844 192 l 1,48,-1
EndSplineSet
EndChar

StartChar: nine
Encoding: 57 57 26
Width: 1547
Flags: W
LayerCount: 2
Fore
SplineSet
90 1028 m 0,0,1
 90 1141 90 1141 112 1224 c 128,-1,2
 134 1307 134 1307 175 1365.5 c 128,-1,3
 216 1424 216 1424 275.5 1460.5 c 128,-1,4
 335 1497 335 1497 410.5 1518 c 128,-1,5
 486 1539 486 1539 576.5 1546.5 c 128,-1,6
 667 1554 667 1554 770 1554 c 0,7,8
 929 1554 929 1554 1053.5 1530.5 c 128,-1,9
 1178 1507 1178 1507 1263.5 1451 c 128,-1,10
 1349 1395 1349 1395 1394 1302.5 c 128,-1,11
 1439 1210 1439 1210 1439 1072 c 2,12,-1
 1439 489 l 2,13,14
 1439 335 1439 335 1394.5 233 c 128,-1,15
 1350 131 1350 131 1265.5 70.5 c 128,-1,16
 1181 10 1181 10 1058.5 -14.5 c 128,-1,17
 936 -39 936 -39 781 -39 c 0,18,19
 714 -39 714 -39 640 -33.5 c 128,-1,20
 566 -28 566 -28 494.5 -13.5 c 128,-1,21
 423 1 423 1 358.5 27.5 c 128,-1,22
 294 54 294 54 245 96 c 128,-1,23
 196 138 196 138 167 197.5 c 128,-1,24
 138 257 138 257 138 339 c 2,25,-1
 138 376 l 1,26,-1
 690 376 l 1,27,-1
 690 181 l 1,28,-1
 854 181 l 1,29,-1
 854 496 l 1,30,-1
 619 496 l 2,31,32
 464 496 464 496 362 528 c 128,-1,33
 260 560 260 560 199.5 626 c 128,-1,34
 139 692 139 692 114.5 792 c 128,-1,35
 90 892 90 892 90 1028 c 0,0,1
672 1327 m 1,36,-1
 672 723 l 1,37,-1
 850 723 l 1,38,-1
 850 1327 l 1,39,-1
 672 1327 l 1,36,-1
EndSplineSet
EndChar

StartChar: colon
Encoding: 58 58 27
Width: 662
Flags: W
LayerCount: 2
Fore
SplineSet
124 297 m 0,0,1
 124 343 124 343 142 377.5 c 128,-1,2
 160 412 160 412 190 435.5 c 128,-1,3
 220 459 220 459 258 470.5 c 128,-1,4
 296 482 296 482 336 482 c 0,5,6
 375 482 375 482 413 470.5 c 128,-1,7
 451 459 451 459 481 435.5 c 128,-1,8
 511 412 511 412 529 377.5 c 128,-1,9
 547 343 547 343 547 297 c 0,10,11
 547 250 547 250 529 215 c 128,-1,12
 511 180 511 180 481 156.5 c 128,-1,13
 451 133 451 133 413 121.5 c 128,-1,14
 375 110 375 110 336 110 c 0,15,16
 296 110 296 110 258 121.5 c 128,-1,17
 220 133 220 133 190 156.5 c 128,-1,18
 160 180 160 180 142 215 c 128,-1,19
 124 250 124 250 124 297 c 0,0,1
124 1088 m 256,20,21
 124 1135 124 1135 142 1170 c 128,-1,22
 160 1205 160 1205 190 1228.5 c 128,-1,23
 220 1252 220 1252 258 1263.5 c 128,-1,24
 296 1275 296 1275 336 1275 c 0,25,26
 375 1275 375 1275 413 1263.5 c 128,-1,27
 451 1252 451 1252 481 1228.5 c 128,-1,28
 511 1205 511 1205 529 1170 c 128,-1,29
 547 1135 547 1135 547 1088 c 256,30,31
 547 1041 547 1041 529 1006.5 c 128,-1,32
 511 972 511 972 481 948.5 c 128,-1,33
 451 925 451 925 413 913.5 c 128,-1,34
 375 902 375 902 336 902 c 0,35,36
 296 902 296 902 258 913.5 c 128,-1,37
 220 925 220 925 190 948.5 c 128,-1,38
 160 972 160 972 142 1006.5 c 128,-1,39
 124 1041 124 1041 124 1088 c 256,20,21
EndSplineSet
EndChar

StartChar: semicolon
Encoding: 59 59 28
Width: 661
Flags: W
LayerCount: 2
Fore
SplineSet
123 297 m 0,0,1
 123 341 123 341 141 374 c 128,-1,2
 159 407 159 407 189 429 c 128,-1,3
 219 451 219 451 257 462 c 128,-1,4
 295 473 295 473 335 473 c 0,5,6
 391 473 391 473 432.5 455.5 c 128,-1,7
 474 438 474 438 501 408.5 c 128,-1,8
 528 379 528 379 541 340 c 128,-1,9
 554 301 554 301 554 257 c 0,10,11
 554 193 554 193 530 126.5 c 128,-1,12
 506 60 506 60 459.5 6 c 128,-1,13
 413 -48 413 -48 345.5 -82.5 c 128,-1,14
 278 -117 278 -117 191 -117 c 0,15,16
 169 -117 169 -117 147 -114 c 1,17,-1
 147 -46 l 1,18,19
 177 -46 177 -46 204.5 -36 c 128,-1,20
 232 -26 232 -26 254 -8 c 128,-1,21
 276 10 276 10 291 35 c 128,-1,22
 306 60 306 60 309 91 c 1,23,-1
 309 111 l 1,24,25
 273 114 273 114 239.5 127.5 c 128,-1,26
 206 141 206 141 180 164 c 128,-1,27
 154 187 154 187 138.5 220.5 c 128,-1,28
 123 254 123 254 123 297 c 0,0,1
123 1088 m 256,29,30
 123 1135 123 1135 141 1170 c 128,-1,31
 159 1205 159 1205 189 1228.5 c 128,-1,32
 219 1252 219 1252 257 1263.5 c 128,-1,33
 295 1275 295 1275 335 1275 c 0,34,35
 374 1275 374 1275 412 1263.5 c 128,-1,36
 450 1252 450 1252 480 1228.5 c 128,-1,37
 510 1205 510 1205 528 1170 c 128,-1,38
 546 1135 546 1135 546 1088 c 256,39,40
 546 1041 546 1041 528 1006.5 c 128,-1,41
 510 972 510 972 480 948.5 c 128,-1,42
 450 925 450 925 412 913.5 c 128,-1,43
 374 902 374 902 335 902 c 0,44,45
 295 902 295 902 257 913.5 c 128,-1,46
 219 925 219 925 189 948.5 c 128,-1,47
 159 972 159 972 141 1006.5 c 128,-1,48
 123 1041 123 1041 123 1088 c 256,29,30
EndSplineSet
EndChar

StartChar: less
Encoding: 60 60 29
Width: 1095
Flags: W
LayerCount: 2
Fore
SplineSet
974 1526 m 1,0,-1
 974 1065 l 1,1,-1
 349 776 l 1,2,-1
 349 743 l 1,3,4
 507 672 507 672 662 600.5 c 128,-1,5
 817 529 817 529 974 458 c 1,6,-1
 974 -3 l 1,7,-1
 64 476 l 1,8,-1
 64 1038 l 1,9,-1
 974 1526 l 1,0,-1
EndSplineSet
EndChar

StartChar: equal
Encoding: 61 61 30
Width: 1143
Flags: W
LayerCount: 2
Fore
SplineSet
1009 0 m 1,0,-1
 141 0 l 1,1,-1
 141 290 l 1,2,-1
 1009 290 l 1,3,-1
 1009 0 l 1,0,-1
1009 549 m 1,4,-1
 141 549 l 1,5,-1
 141 838 l 1,6,-1
 1009 838 l 1,7,-1
 1009 549 l 1,4,-1
EndSplineSet
EndChar

StartChar: greater
Encoding: 62 62 31
Width: 1090
Flags: W
LayerCount: 2
Fore
SplineSet
118 -3 m 1,0,-1
 118 458 l 1,1,-1
 743 743 l 1,2,-1
 743 776 l 1,3,4
 586 848 586 848 430.5 920.5 c 128,-1,5
 275 993 275 993 118 1065 c 1,6,-1
 118 1526 l 1,7,-1
 1029 1038 l 1,8,-1
 1029 476 l 1,9,-1
 118 -3 l 1,0,-1
EndSplineSet
EndChar

StartChar: question
Encoding: 63 63 32
Width: 861
Flags: W
LayerCount: 2
Fore
SplineSet
386 539 m 1,0,1
 382 516 382 516 363 507 c 128,-1,2
 344 498 344 498 321 498 c 0,3,4
 259 498 259 498 259 550 c 0,5,6
 259 600 259 600 267.5 648 c 128,-1,7
 276 696 276 696 289 741 c 128,-1,8
 302 786 302 786 318.5 827.5 c 128,-1,9
 335 869 335 869 351 907 c 0,10,11
 358 925 358 925 366 946.5 c 128,-1,12
 374 968 374 968 381.5 990.5 c 128,-1,13
 389 1013 389 1013 396 1034.5 c 128,-1,14
 403 1056 403 1056 408 1074 c 1,15,-1
 408 1075 l 1,16,17
 409 1081 409 1081 409.5 1089 c 128,-1,18
 410 1097 410 1097 410 1105 c 0,19,20
 410 1131 410 1131 402 1155 c 128,-1,21
 394 1179 394 1179 377 1197 c 128,-1,22
 360 1215 360 1215 332 1225.5 c 128,-1,23
 304 1236 304 1236 264 1236 c 0,24,25
 226 1236 226 1236 176 1224.5 c 128,-1,26
 126 1213 126 1213 60 1187 c 1,27,-1
 27 1488 l 1,28,29
 148 1525 148 1525 242.5 1541 c 128,-1,30
 337 1557 337 1557 409 1557 c 0,31,32
 540 1557 540 1557 627 1531.5 c 128,-1,33
 714 1506 714 1506 766 1465 c 128,-1,34
 818 1424 818 1424 839.5 1371.5 c 128,-1,35
 861 1319 861 1319 861 1264 c 0,36,37
 861 1218 861 1218 841 1173.5 c 128,-1,38
 821 1129 821 1129 789 1086 c 128,-1,39
 757 1043 757 1043 717.5 1003.5 c 128,-1,40
 678 964 678 964 640 928 c 0,41,42
 603 893 603 893 561.5 849 c 128,-1,43
 520 805 520 805 483.5 755 c 128,-1,44
 447 705 447 705 420 650 c 128,-1,45
 393 595 393 595 386 539 c 1,0,1
112 148 m 256,46,47
 112 195 112 195 130 230 c 128,-1,48
 148 265 148 265 177.5 288 c 128,-1,49
 207 311 207 311 245 322.5 c 128,-1,50
 283 334 283 334 323 334 c 256,51,52
 363 334 363 334 401.5 322.5 c 128,-1,53
 440 311 440 311 470 288 c 128,-1,54
 500 265 500 265 518 230 c 128,-1,55
 536 195 536 195 536 148 c 256,56,57
 536 101 536 101 518 66 c 128,-1,58
 500 31 500 31 470 8 c 128,-1,59
 440 -15 440 -15 401.5 -26.5 c 128,-1,60
 363 -38 363 -38 323 -38 c 256,61,62
 283 -38 283 -38 245 -26.5 c 128,-1,63
 207 -15 207 -15 177.5 8 c 128,-1,64
 148 31 148 31 130 66 c 128,-1,65
 112 101 112 101 112 148 c 256,46,47
EndSplineSet
EndChar

StartChar: at
Encoding: 64 64 33
Width: 2300
Flags: W
LayerCount: 2
Fore
SplineSet
1626 86 m 1,0,1
 1494 88 1494 88 1400 122 c 128,-1,2
 1306 156 1306 156 1261 227 c 1,3,4
 1241 204 1241 204 1215.5 183 c 128,-1,5
 1190 162 1190 162 1158 145.5 c 128,-1,6
 1126 129 1126 129 1086.5 119.5 c 128,-1,7
 1047 110 1047 110 999 110 c 0,8,9
 829 110 829 110 741.5 172.5 c 128,-1,10
 654 235 654 235 649 377 c 0,11,12
 648 399 648 399 648 419.5 c 128,-1,13
 648 440 648 440 648 463 c 0,14,15
 648 545 648 545 667.5 605 c 128,-1,16
 687 665 687 665 729 703.5 c 128,-1,17
 771 742 771 742 837.5 760.5 c 128,-1,18
 904 779 904 779 999 779 c 0,19,20
 1079 779 1079 779 1136.5 768.5 c 128,-1,21
 1194 758 1194 758 1232 734 c 1,22,-1
 1232 999 l 1,23,-1
 1172 999 l 1,24,-1
 1172 868 l 1,25,-1
 701 868 l 1,26,-1
 701 873 l 2,27,28
 701 875 701 875 700.5 877.5 c 128,-1,29
 700 880 700 880 700 882 c 2,30,-1
 700 915 l 2,31,32
 700 1000 700 1000 736.5 1052.5 c 128,-1,33
 773 1105 773 1105 838.5 1134 c 128,-1,34
 904 1163 904 1163 994.5 1173 c 128,-1,35
 1085 1183 1085 1183 1194 1183 c 0,36,37
 1333 1183 1333 1183 1427 1163.5 c 128,-1,38
 1521 1144 1521 1144 1578 1099 c 128,-1,39
 1635 1054 1635 1054 1659 980.5 c 128,-1,40
 1683 907 1683 907 1683 799 c 2,41,-1
 1683 285 l 1,42,-1
 1860 285 l 1,43,-1
 1860 794 l 2,44,45
 1860 922 1860 922 1843 1016.5 c 128,-1,46
 1826 1111 1826 1111 1791.5 1177 c 128,-1,47
 1757 1243 1757 1243 1704 1285 c 128,-1,48
 1651 1327 1651 1327 1578.5 1351 c 128,-1,49
 1506 1375 1506 1375 1414 1383.5 c 128,-1,50
 1322 1392 1322 1392 1209 1392 c 0,51,52
 1056 1392 1056 1392 941 1373 c 128,-1,53
 826 1354 826 1354 742.5 1315.5 c 128,-1,54
 659 1277 659 1277 603.5 1217 c 128,-1,55
 548 1157 548 1157 515.5 1075.5 c 128,-1,56
 483 994 483 994 469.5 889.5 c 128,-1,57
 456 785 456 785 456 657 c 0,58,59
 456 498 456 498 471.5 380.5 c 128,-1,60
 487 263 487 263 523.5 179.5 c 128,-1,61
 560 96 560 96 621.5 42.5 c 128,-1,62
 683 -11 683 -11 774.5 -42 c 128,-1,63
 866 -73 866 -73 991.5 -84.5 c 128,-1,64
 1117 -96 1117 -96 1282 -96 c 0,65,66
 1322 -96 1322 -96 1367.5 -92 c 128,-1,67
 1413 -88 1413 -88 1472 -79 c 128,-1,68
 1531 -70 1531 -70 1608 -55 c 128,-1,69
 1685 -40 1685 -40 1787 -17 c 1,70,-1
 1838 -234 l 1,71,72
 1789 -265 1789 -265 1729.5 -292 c 128,-1,73
 1670 -319 1670 -319 1602 -339.5 c 128,-1,74
 1534 -360 1534 -360 1458 -372 c 128,-1,75
 1382 -384 1382 -384 1300 -384 c 0,76,77
 1088 -384 1088 -384 915.5 -365 c 128,-1,78
 743 -346 743 -346 608.5 -300 c 128,-1,79
 474 -254 474 -254 375.5 -177 c 128,-1,80
 277 -100 277 -100 213 15 c 128,-1,81
 149 130 149 130 118 287.5 c 128,-1,82
 87 445 87 445 87 652 c 0,83,84
 87 846 87 846 118.5 996.5 c 128,-1,85
 150 1147 150 1147 213 1259.5 c 128,-1,86
 276 1372 276 1372 370 1449.5 c 128,-1,87
 464 1527 464 1527 588 1575 c 128,-1,88
 712 1623 712 1623 866.5 1644 c 128,-1,89
 1021 1665 1021 1665 1205 1665 c 0,90,91
 1475 1665 1475 1665 1668.5 1620.5 c 128,-1,92
 1862 1576 1862 1576 1987 1478 c 128,-1,93
 2112 1380 2112 1380 2171 1222 c 128,-1,94
 2230 1064 2230 1064 2230 838 c 0,95,96
 2230 727 2230 727 2221 628 c 128,-1,97
 2212 529 2212 529 2187.5 445.5 c 128,-1,98
 2163 362 2163 362 2120.5 295.5 c 128,-1,99
 2078 229 2078 229 2010.5 182.5 c 128,-1,100
 1943 136 1943 136 1848.5 111 c 128,-1,101
 1754 86 1754 86 1626 86 c 1,0,1
1231 290 m 1,102,-1
 1231 627 l 1,103,-1
 1134 627 l 1,104,-1
 1134 290 l 1,105,-1
 1231 290 l 1,102,-1
EndSplineSet
EndChar

StartChar: A
Encoding: 65 65 34
Width: 1290
Flags: W
LayerCount: 2
Fore
SplineSet
918 389 m 1,0,-1
 338 389 l 1,1,-1
 222 0 l 1,2,-1
 22 0 l 1,3,-1
 492 1499 l 1,4,-1
 782 1499 l 1,5,-1
 1259 0 l 1,6,-1
 1041 0 l 1,7,-1
 918 389 l 1,0,-1
381 521 m 1,8,-1
 876 521 l 1,9,-1
 625 1373 l 1,10,-1
 381 521 l 1,8,-1
EndSplineSet
EndChar

StartChar: B
Encoding: 66 66 35
Width: 1392
Flags: W
LayerCount: 2
Fore
SplineSet
1229 1102 m 0,0,1
 1229 867 1229 867 978 808 c 1,2,3
 1139 782 1139 782 1217 670 c 0,4,5
 1284 574 1284 574 1284 417 c 0,6,7
 1284 145 1284 145 1091 58 c 0,8,9
 983 9 983 9 832 3 c 0,10,11
 762 0 762 0 694 0 c 2,12,-1
 150 0 l 1,13,-1
 150 1499 l 1,14,-1
 652 1499 l 2,15,16
 824 1499 824 1499 904 1484 c 128,-1,17
 984 1469 984 1469 1040.5 1444 c 128,-1,18
 1097 1419 1097 1419 1139 1375 c 0,19,20
 1229 1281 1229 1281 1229 1102 c 0,0,1
371 721 m 1,21,-1
 371 157 l 1,22,-1
 694 157 l 2,23,24
 782 157 782 157 851 161.5 c 0,25,26
 919 166 919 166 967 190 c 0,27,28
 1065 239 1065 239 1065 407 c 2,29,-1
 1065 429 l 2,30,31
 1065 607 1065 607 978 670 c 0,32,33
 907 721 907 721 720 721 c 2,34,-1
 371 721 l 1,21,-1
371 867 m 1,35,-1
 674 867 l 2,36,37
 863 867 863 867 915.5 895 c 128,-1,38
 968 923 968 923 989 967.5 c 128,-1,39
 1010 1012 1010 1012 1010 1090 c 2,40,-1
 1010 1112 l 2,41,42
 1010 1267 1010 1267 911 1312 c 0,43,44
 863 1334 863 1334 792.5 1338 c 128,-1,45
 722 1342 722 1342 632 1342 c 2,46,-1
 371 1342 l 1,47,-1
 371 867 l 1,35,-1
EndSplineSet
EndChar

StartChar: C
Encoding: 67 67 36
Width: 1426
Flags: W
LayerCount: 2
Fore
SplineSet
1302.01269531 467 m 1,0,1
 1302.01269531 148 1302.01269531 148 1157.01269531 46 c 0,2,3
 1065.01269531 -18 1065.01269531 -18 903.012695312 -31 c 0,4,5
 824.012695312 -37 824.012695312 -37 731.012695312 -37 c 128,-1,6
 638.012695312 -37 638.012695312 -37 556.512695312 -30 c 128,-1,7
 475.012695312 -23 475.012695312 -23 407.012695312 -0.5 c 128,-1,8
 339.012695312 22 339.012695312 22 285.012695312 64.5 c 0,9,10
 231.012695312 106 231.012695312 106 193.012695312 178 c 0,11,12
 115.012695312 326 115.012695312 326 116.012695312 608 c 2,13,-1
 116.012695312 922 l 2,14,15
 116.012695312 1310 116.012695312 1310 292.012695312 1438 c 0,16,17
 396.012695312 1512 396.012695312 1512 568.012695312 1526 c 0,18,19
 649.012695312 1532 649.012695312 1532 765.012695312 1532.5 c 128,-1,20
 881.012695312 1533 881.012695312 1533 986.512695312 1515 c 0,21,22
 1093.01269531 1497 1093.01269531 1497 1163.01269531 1442 c 0,23,24
 1303.01269531 1332 1303.01269531 1332 1303.01269531 1020 c 1,25,-1
 1091.01269531 1020 l 1,26,27
 1091.01269531 1128 1091.01269531 1128 1081.01269531 1197.5 c 128,-1,28
 1071.01269531 1267 1071.01269531 1267 1035.51269531 1306.5 c 128,-1,29
 1000.01269531 1346 1000.01269531 1346 930.512695312 1361 c 128,-1,30
 861.012695312 1376 861.012695312 1376 754.512695312 1376 c 128,-1,31
 648.012695312 1376 648.012695312 1376 581.012695312 1368.5 c 128,-1,32
 514.012695312 1361 514.012695312 1361 468.512695312 1338 c 128,-1,33
 423.012695312 1315 423.012695312 1315 397.012695312 1273.5 c 128,-1,34
 371.012695312 1232 371.012695312 1232 357.012695312 1164 c 0,35,36
 337.012695312 1062 337.012695312 1062 337.012695312 768 c 256,37,38
 337.012695312 459 337.012695312 459 350.512695312 375.5 c 128,-1,39
 364.012695312 292 364.012695312 292 388.012695312 246 c 128,-1,40
 412.012695312 200 412.012695312 200 456.012695312 174 c 0,41,42
 535.012695312 127 535.012695312 127 733.012695312 126 c 0,43,44
 895.012695312 126 895.012695312 126 950.512695312 145.5 c 128,-1,45
 1006.01269531 165 1006.01269531 165 1030.51269531 189.5 c 128,-1,46
 1055.01269531 214 1055.01269531 214 1069.01269531 252 c 0,47,48
 1091.01269531 315 1091.01269531 315 1091.01269531 467 c 1,49,-1
 1302.01269531 467 l 1,0,1
EndSplineSet
EndChar

StartChar: D
Encoding: 68 68 37
Width: 1473
Flags: W
LayerCount: 2
Fore
SplineSet
150 1499 m 1,0,-1
 728 1499 l 2,1,2
 1029 1499 1029 1499 1125.5 1432.5 c 128,-1,3
 1222 1366 1222 1366 1284 1267 c 128,-1,4
 1346 1168 1346 1168 1346 922 c 2,5,-1
 1346 608 l 2,6,7
 1346 111 1346 111 1047 30 c 0,8,9
 936 0 936 0 728 0 c 2,10,-1
 150 0 l 1,11,-1
 150 1499 l 1,0,-1
371 1341 m 1,12,-1
 371 164 l 1,13,14
 420 163 420 163 477 163 c 2,15,-1
 728 163 l 2,16,17
 950 163 950 163 1011.5 205.5 c 128,-1,18
 1073 248 1073 248 1093.5 299.5 c 128,-1,19
 1114 351 1114 351 1121 430 c 128,-1,20
 1128 509 1128 509 1126.5 618 c 128,-1,21
 1125 727 1125 727 1125 908.5 c 128,-1,22
 1125 1090 1125 1090 1102.5 1179.5 c 128,-1,23
 1080 1269 1080 1269 1000 1305 c 0,24,25
 919 1341 919 1341 728 1341 c 2,26,-1
 371 1341 l 1,12,-1
EndSplineSet
EndChar

StartChar: E
Encoding: 69 69 38
Width: 1197
Flags: W
LayerCount: 2
Fore
SplineSet
371 703 m 1,0,-1
 371 160 l 1,1,-1
 1113 160 l 1,2,-1
 1113 0 l 1,3,-1
 150 0 l 1,4,-1
 150 1499 l 1,5,-1
 1095 1499 l 1,6,-1
 1095 1339 l 1,7,-1
 371 1339 l 1,8,-1
 371 863 l 1,9,-1
 1005 863 l 1,10,-1
 1005 703 l 1,11,-1
 371 703 l 1,0,-1
EndSplineSet
EndChar

StartChar: F
Encoding: 70 70 39
Width: 1063
Flags: W
LayerCount: 2
Fore
SplineSet
371 688 m 1,0,-1
 371 0 l 1,1,-1
 150 0 l 1,2,-1
 150 1499 l 1,3,-1
 1016 1499 l 1,4,-1
 1016 1339 l 1,5,-1
 371 1339 l 1,6,-1
 371 848 l 1,7,-1
 966 848 l 1,8,-1
 966 688 l 1,9,-1
 371 688 l 1,0,-1
EndSplineSet
EndChar

StartChar: G
Encoding: 71 71 40
Width: 1432
Flags: W
LayerCount: 2
Fore
SplineSet
745 126 m 0,0,1
 1036 126 1036 126 1092 179 c 1,2,-1
 1092 538 l 1,3,-1
 783 538 l 1,4,-1
 783 703 l 1,5,-1
 1292 703 l 1,6,-1
 1292 0 l 5,7,-1
 1141 0 l 5,8,-1
 1122 107 l 1,9,10
 1091 -5 1091 -5 864 -31 c 0,11,12
 812 -37 812 -37 734 -37 c 128,-1,13
 656 -37 656 -37 574.5 -29.5 c 128,-1,14
 493 -22 493 -22 423 1.5 c 128,-1,15
 353 25 353 25 296 68.5 c 128,-1,16
 239 112 239 112 199 184 c 0,17,18
 115 334 115 334 114 608 c 2,19,-1
 114 922 l 2,20,21
 114 1300 114 1300 297 1432 c 0,22,23
 405 1510 405 1510 573 1526 c 0,24,25
 653 1534 653 1534 735.5 1533.5 c 128,-1,26
 818 1533 818 1533 889 1526.5 c 128,-1,27
 960 1520 960 1520 1020 1500.5 c 128,-1,28
 1080 1481 1080 1481 1128 1446 c 128,-1,29
 1176 1411 1176 1411 1210 1354 c 0,30,31
 1280 1236 1280 1236 1284 1020 c 1,32,-1
 1082 1020 l 1,33,34
 1079 1117 1079 1117 1069 1184.5 c 128,-1,35
 1059 1252 1059 1252 1025 1294 c 0,36,37
 960 1376 960 1376 738 1376 c 0,38,39
 543 1376 543 1376 457 1320 c 0,40,41
 344 1244 344 1244 337 986 c 0,42,43
 335 902 335 902 335 790.5 c 128,-1,44
 335 679 335 679 335.5 582.5 c 128,-1,45
 336 486 336 486 345.5 411 c 128,-1,46
 355 336 355 336 378 282.5 c 128,-1,47
 401 229 401 229 447 194 c 0,48,49
 535 126 535 126 745 126 c 0,0,1
EndSplineSet
EndChar

StartChar: H
Encoding: 72 72 41
Width: 1472
Flags: W
LayerCount: 2
Fore
SplineSet
371 681 m 1,0,-1
 371 0 l 1,1,-1
 150 0 l 1,2,-1
 150 1499 l 1,3,-1
 371 1499 l 1,4,-1
 371 838 l 1,5,-1
 1096 838 l 1,6,-1
 1096 1499 l 1,7,-1
 1317 1499 l 1,8,-1
 1317 0 l 1,9,-1
 1096 0 l 1,10,-1
 1096 681 l 1,11,-1
 371 681 l 1,0,-1
EndSplineSet
EndChar

StartChar: I
Encoding: 73 73 42
Width: 526
Flags: W
LayerCount: 2
Fore
SplineSet
371 0 m 1,0,-1
 150 0 l 1,1,-1
 150 1499 l 1,2,-1
 371 1499 l 1,3,-1
 371 0 l 1,0,-1
EndSplineSet
EndChar

StartChar: J
Encoding: 74 74 43
Width: 603
Flags: W
LayerCount: 2
Fore
SplineSet
448 45 m 2,0,1
 448 -153 448 -153 233 -153 c 0,2,3
 114 -153 114 -153 -10 -129 c 1,4,-1
 -10 45 l 1,5,-1
 227 45 l 1,6,-1
 227 1499 l 5,7,-1
 448 1499 l 5,8,-1
 448 45 l 2,0,1
EndSplineSet
EndChar

StartChar: K
Encoding: 75 75 44
Width: 1255
Flags: W
LayerCount: 2
Fore
SplineSet
614 795 m 1,0,-1
 1280 0 l 1,1,-1
 1009 0 l 1,2,-1
 424 716 l 1,3,-1
 371 658 l 1,4,-1
 371 0 l 1,5,-1
 150 0 l 1,6,-1
 150 1499 l 1,7,-1
 371 1499 l 1,8,-1
 371 815 l 1,9,-1
 949 1499 l 1,10,-1
 1210 1499 l 1,11,-1
 614 795 l 1,0,-1
EndSplineSet
EndChar

StartChar: L
Encoding: 76 76 45
Width: 1005
Flags: W
LayerCount: 2
Fore
SplineSet
150 0 m 1,0,-1
 150 1499 l 1,1,-1
 371 1499 l 1,2,-1
 371 160 l 1,3,-1
 976 160 l 1,4,-1
 976 0 l 1,5,-1
 150 0 l 1,0,-1
EndSplineSet
EndChar

StartChar: M
Encoding: 77 77 46
Width: 1794
Flags: W
LayerCount: 2
Fore
SplineSet
322 1163 m 1,0,-1
 322 0 l 1,1,-1
 150 0 l 1,2,-1
 150 1499 l 1,3,-1
 385 1499 l 1,4,-1
 890 319 l 1,5,-1
 1389 1499 l 1,6,-1
 1639 1499 l 1,7,-1
 1639 0 l 1,8,-1
 1430 0 l 1,9,-1
 1430 1163 l 1,10,-1
 951 0 l 1,11,-1
 820 0 l 1,12,-1
 322 1163 l 1,0,-1
EndSplineSet
EndChar

StartChar: N
Encoding: 78 78 47
Width: 1514
Flags: W
LayerCount: 2
Fore
SplineSet
1180 288 m 1,0,-1
 1180 1499 l 1,1,-1
 1359 1499 l 1,2,-1
 1359 0 l 1,3,-1
 1139 0 l 1,4,-1
 332 1193 l 1,5,-1
 332 0 l 1,6,-1
 150 0 l 1,7,-1
 150 1499 l 1,8,-1
 370 1499 l 1,9,-1
 1180 288 l 1,0,-1
EndSplineSet
EndChar

StartChar: O
Encoding: 79 79 48
Width: 1494
Flags: W
LayerCount: 2
Fore
SplineSet
741 -37 m 256,0,1
 526 -37 526 -37 438.5 -10.5 c 128,-1,2
 351 16 351 16 295 57.5 c 0,3,4
 239 98 239 98 199 170 c 0,5,6
 116 318 116 318 116 608 c 2,7,-1
 116 922 l 2,8,9
 116 1317 116 1317 300 1443 c 0,10,11
 405 1516 405 1516 575 1528 c 0,12,13
 655 1534 655 1534 741 1533 c 256,14,15
 948 1533 948 1533 1036.5 1507.5 c 128,-1,16
 1125 1482 1125 1482 1182 1443 c 128,-1,17
 1239 1404 1239 1404 1280 1336 c 0,18,19
 1366 1193 1366 1193 1366 922 c 2,20,-1
 1366 608 l 2,21,22
 1366 190 1366 190 1187 58 c 0,23,24
 1083 -20 1083 -20 911 -32 c 0,25,26
 830 -38 830 -38 741 -37 c 256,0,1
576.5 135.5 m 128,-1,28
 644 126 644 126 747 126 c 128,-1,29
 850 126 850 126 923 138.5 c 128,-1,30
 996 151 996 151 1040.5 181.5 c 128,-1,31
 1085 212 1085 212 1107 264.5 c 128,-1,32
 1129 317 1129 317 1137.5 396.5 c 128,-1,33
 1146 476 1146 476 1145.5 586 c 128,-1,34
 1145 696 1145 696 1145 823.5 c 128,-1,35
 1145 951 1145 951 1142 1032.5 c 128,-1,36
 1139 1114 1139 1114 1126.5 1173.5 c 128,-1,37
 1114 1233 1114 1233 1088.5 1272 c 128,-1,38
 1063 1311 1063 1311 1018 1334 c 0,39,40
 936 1376 936 1376 784 1376 c 128,-1,41
 632 1376 632 1376 559 1364 c 128,-1,42
 486 1352 486 1352 441.5 1321 c 128,-1,43
 397 1290 397 1290 375 1237.5 c 128,-1,44
 353 1185 353 1185 344.5 1103.5 c 128,-1,45
 336 1022 336 1022 336.5 908.5 c 128,-1,46
 337 795 337 795 337 667.5 c 128,-1,47
 337 540 337 540 340 461.5 c 128,-1,48
 343 383 343 383 355.5 325.5 c 128,-1,49
 368 268 368 268 393.5 229.5 c 128,-1,50
 419 191 419 191 464 168 c 128,-1,27
 509 145 509 145 576.5 135.5 c 128,-1,28
EndSplineSet
EndChar

StartChar: P
Encoding: 80 80 49
Width: 1347
Flags: W
LayerCount: 2
Fore
SplineSet
618 1499 m 2,0,1
 816 1499 816 1499 908 1477 c 128,-1,2
 1000 1455 1000 1455 1056.5 1424 c 0,3,4
 1113 1392 1113 1392 1153 1342 c 0,5,6
 1237 1237 1237 1237 1238 1042 c 2,7,-1
 1238 978 l 2,8,9
 1237 684 1237 684 1061 580 c 0,10,11
 957 519 957 519 787 506 c 0,12,13
 707 500 707 500 618 500 c 2,14,-1
 371 500 l 1,15,-1
 371 0 l 1,16,-1
 150 0 l 1,17,-1
 150 1499 l 1,18,-1
 618 1499 l 2,0,1
618 663 m 2,19,20
 808 663 808 663 874 686 c 128,-1,21
 940 709 940 709 965 733 c 0,22,23
 990 756 990 756 1002 790 c 0,24,25
 1019 837 1019 837 1019 939 c 128,-1,26
 1019 1041 1019 1041 1018.5 1099 c 128,-1,27
 1018 1157 1018 1157 1007.5 1199.5 c 128,-1,28
 997 1242 997 1242 971.5 1270 c 0,29,30
 945 1298 945 1298 895 1314 c 0,31,32
 802 1344 802 1344 564 1345 c 0,33,34
 479 1345 479 1345 371 1342 c 1,35,-1
 371 663 l 1,36,-1
 618 663 l 2,19,20
EndSplineSet
EndChar

StartChar: Q
Encoding: 81 81 50
Width: 1493
Flags: W
LayerCount: 2
Fore
SplineSet
1217 -339 m 1,0,1
 1100 -352 1100 -352 1018 -352 c 128,-1,2
 936 -352 936 -352 868.5 -336.5 c 0,3,4
 801 -320 801 -320 753 -284 c 0,5,6
 654 -209 654 -209 640 -35 c 1,7,8
 466 -28 466 -28 388 6 c 128,-1,9
 310 40 310 40 263 84.5 c 0,10,11
 216 130 216 130 183 200 c 0,12,13
 115 345 115 345 115 608 c 2,14,-1
 115 922 l 2,15,16
 115 1317 115 1317 299 1443 c 0,17,18
 405 1516 405 1516 575 1528 c 0,19,20
 655 1534 655 1534 740 1533 c 256,21,22
 947 1533 947 1533 1035.5 1507.5 c 128,-1,23
 1124 1482 1124 1482 1181 1443 c 128,-1,24
 1238 1404 1238 1404 1279 1336 c 0,25,26
 1365 1193 1365 1193 1365 922 c 2,27,-1
 1365 608 l 2,28,29
 1365 222 1365 222 1214 82 c 0,30,31
 1125 -2 1125 -2 977 -24 c 0,32,33
 907 -34 907 -34 830 -36 c 1,34,35
 839 -170 839 -170 947 -193 c 0,36,37
 984 -201 984 -201 1031 -201 c 0,38,39
 1102 -201 1102 -201 1248 -185 c 1,40,-1
 1217 -339 l 1,0,1
575.5 135.5 m 128,-1,42
 643 126 643 126 746 126 c 128,-1,43
 849 126 849 126 922 138.5 c 128,-1,44
 995 151 995 151 1039.5 181.5 c 128,-1,45
 1084 212 1084 212 1106 264.5 c 128,-1,46
 1128 317 1128 317 1136.5 396.5 c 128,-1,47
 1145 476 1145 476 1144.5 586 c 128,-1,48
 1144 696 1144 696 1144 823.5 c 128,-1,49
 1144 951 1144 951 1141 1032.5 c 128,-1,50
 1138 1114 1138 1114 1125.5 1173.5 c 128,-1,51
 1113 1233 1113 1233 1087.5 1272 c 128,-1,52
 1062 1311 1062 1311 1017 1334 c 0,53,54
 935 1376 935 1376 783 1376 c 128,-1,55
 631 1376 631 1376 558 1364 c 128,-1,56
 485 1352 485 1352 440.5 1321 c 128,-1,57
 396 1290 396 1290 374 1237.5 c 128,-1,58
 352 1185 352 1185 343.5 1103.5 c 128,-1,59
 335 1022 335 1022 335.5 908.5 c 128,-1,60
 336 795 336 795 336 667.5 c 128,-1,61
 336 540 336 540 339 461.5 c 128,-1,62
 342 383 342 383 354.5 325.5 c 128,-1,63
 367 268 367 268 392.5 229.5 c 128,-1,64
 418 191 418 191 463 168 c 128,-1,41
 508 145 508 145 575.5 135.5 c 128,-1,42
EndSplineSet
EndChar

StartChar: R
Encoding: 82 82 51
Width: 1427
Flags: W
LayerCount: 2
Fore
SplineSet
371 0 m 1,0,-1
 150 0 l 1,1,-1
 150 1499 l 1,2,-1
 668 1499 l 2,3,4
 852 1499 852 1499 938.5 1484 c 128,-1,5
 1025 1469 1025 1469 1085 1445 c 128,-1,6
 1145 1421 1145 1421 1190 1378 c 0,7,8
 1287 1285 1287 1285 1287 1112 c 0,9,10
 1287 922 1287 922 1233 835 c 0,11,12
 1168 732 1168 732 998 719 c 1,13,14
 1207 710 1207 710 1263 514 c 0,15,16
 1282 449 1282 449 1288 365 c 2,17,-1
 1318 0 l 5,18,-1
 1099 0 l 5,19,-1
 1069 343 l 2,20,21
 1054 526 1054 526 974 584 c 0,22,23
 902 636 902 636 695 637 c 2,24,-1
 371 637 l 1,25,-1
 371 0 l 1,0,-1
716 793 m 2,26,27
 914 793 914 793 1000 847 c 0,28,29
 1063 887 1063 887 1067 991 c 0,30,31
 1069 1033 1069 1033 1068 1070 c 2,32,-1
 1068 1092 l 2,33,34
 1068 1206 1068 1206 1050 1242.5 c 128,-1,35
 1032 1279 1032 1279 993 1298.5 c 0,36,37
 953 1318 953 1318 905 1328 c 0,38,39
 831 1342 831 1342 712 1342 c 2,40,-1
 371 1342 l 1,41,-1
 371 793 l 1,42,-1
 716 793 l 2,26,27
EndSplineSet
EndChar

StartChar: S
Encoding: 83 83 52
Width: 1351
Flags: W
LayerCount: 2
Fore
SplineSet
311.006835938 416 m 1,0,-1
 310.006835938 386 l 1,1,2
 310.006835938 235 310.006835938 235 383.006835938 184 c 0,3,4
 451.006835938 137 451.006835938 137 640.006835938 137 c 0,5,6
 748.006835938 137 748.006835938 137 821.506835938 141 c 128,-1,7
 895.006835938 145 895.006835938 145 940.506835938 170 c 128,-1,8
 986.006835938 195 986.006835938 195 1005.50683594 248.5 c 128,-1,9
 1025.00683594 302 1025.00683594 302 1025.00683594 368.5 c 128,-1,10
 1025.00683594 435 1025.00683594 435 1022.50683594 475.5 c 128,-1,11
 1020.00683594 516 1020.00683594 516 1011.00683594 552 c 0,12,13
 990.006835938 635 990.006835938 635 937.006835938 643 c 1,14,15
 871.006835938 658 871.006835938 658 747.006835938 674 c 0,16,17
 503.006835938 707 503.006835938 707 419.506835938 722 c 128,-1,18
 336.006835938 737 336.006835938 737 278.006835938 768.5 c 0,19,20
 219.006835938 800 219.006835938 800 187.006835938 848 c 0,21,22
 131.006835938 932 131.006835938 932 131.006835938 1084.5 c 128,-1,23
 131.006835938 1237 131.006835938 1237 160.506835938 1320 c 0,24,25
 191.006835938 1402 191.006835938 1402 253.006835938 1450 c 0,26,27
 362.006835938 1532 362.006835938 1532 646.006835938 1533 c 0,28,29
 951.006835938 1533 951.006835938 1533 1067.00683594 1450 c 0,30,31
 1192.00683594 1361 1192.00683594 1361 1196.00683594 1106 c 1,32,-1
 989.006835938 1106 l 1,33,34
 985.006835938 1268 985.006835938 1268 915.006835938 1323 c 0,35,36
 855.006835938 1370 855.006835938 1370 700.006835938 1370 c 0,37,38
 522.006835938 1370 522.006835938 1370 469.006835938 1355 c 128,-1,39
 416.006835938 1340 416.006835938 1340 394.506835938 1320 c 128,-1,40
 373.006835938 1300 373.006835938 1300 363.006835938 1267 c 0,41,42
 349.006835938 1221 349.006835938 1221 349.006835938 1136.5 c 128,-1,43
 349.006835938 1052 349.006835938 1052 350.006835938 1026.5 c 0,44,45
 351.006835938 1000 351.006835938 1000 357.006835938 978 c 0,46,47
 372.006835938 925 372.006835938 925 417.006835938 917 c 0,48,49
 572.006835938 885 572.006835938 885 692.506835938 870.5 c 128,-1,50
 813.006835938 856 813.006835938 856 904.006835938 841.5 c 128,-1,51
 995.006835938 827 995.006835938 827 1057.50683594 805 c 128,-1,52
 1120.00683594 783 1120.00683594 783 1159.00683594 737 c 0,53,54
 1233.00683594 650 1233.00683594 650 1233.00683594 407 c 0,55,56
 1233.00683594 120 1233.00683594 120 1071.00683594 29 c 0,57,58
 976.006835938 -25 976.006835938 -25 815.006835938 -33 c 0,59,60
 739.006835938 -37 739.006835938 -37 629.006835938 -37 c 128,-1,61
 519.006835938 -37 519.006835938 -37 416.006835938 -19 c 128,-1,62
 313.006835938 -1 313.006835938 -1 243.006835938 47 c 0,63,64
 101.006835938 145 101.006835938 145 102.006835938 399 c 2,65,-1
 102.006835938 416 l 1,66,-1
 311.006835938 416 l 1,0,-1
EndSplineSet
EndChar

StartChar: T
Encoding: 84 84 53
Width: 945
Flags: W
LayerCount: 2
Fore
SplineSet
996 1499 m 1,0,-1
 996 1339 l 1,1,-1
 571 1339 l 1,2,-1
 571 0 l 1,3,-1
 350 0 l 1,4,-1
 350 1339 l 1,5,-1
 -67 1339 l 1,6,-1
 -67 1499 l 1,7,-1
 996 1499 l 1,0,-1
EndSplineSet
EndChar

StartChar: U
Encoding: 85 85 54
Width: 1519
Flags: W
LayerCount: 2
Fore
SplineSet
756 -37 m 256,0,1
 506 -37 506 -37 418 -12 c 128,-1,2
 330 13 330 13 281 51 c 0,3,4
 233 88 233 88 201 154 c 0,5,6
 139 282 139 282 139 549 c 2,7,-1
 139 1499 l 1,8,-1
 360 1499 l 1,9,-1
 360 467 l 2,10,11
 360 315 360 315 379 265 c 128,-1,12
 398 215 398 215 424.5 190.5 c 128,-1,13
 451 166 451 166 495 152 c 0,14,15
 572 127 572 127 756 126 c 256,16,17
 940 126 940 126 1000.5 146 c 128,-1,18
 1061 166 1061 166 1087.5 190.5 c 0,19,20
 1115 215 1115 215 1129 253 c 0,21,22
 1153 315 1153 315 1152 467 c 2,23,-1
 1152 1499 l 1,24,-1
 1373 1499 l 1,25,-1
 1373 549 l 2,26,27
 1373 282 1373 282 1311 154 c 0,28,29
 1253 34 1253 34 1113 -6 c 0,30,31
 1005 -36 1005 -36 756 -37 c 256,0,1
EndSplineSet
EndChar

StartChar: V
Encoding: 86 86 55
Width: 1255
Flags: W
LayerCount: 2
Fore
SplineSet
624 256 m 1,0,-1
 630 256 l 1,1,-1
 1024 1499 l 1,2,-1
 1262 1499 l 1,3,-1
 735 0 l 1,4,-1
 505 0 l 1,5,-1
 -15 1499 l 1,6,-1
 219 1499 l 1,7,-1
 624 256 l 1,0,-1
EndSplineSet
EndChar

StartChar: W
Encoding: 87 87 56
Width: 1903
Flags: W
LayerCount: 2
Fore
SplineSet
1379 266 m 1,0,-1
 1385 266 l 1,1,-1
 1649 1499 l 1,2,-1
 1877 1499 l 1,3,-1
 1500 0 l 1,4,-1
 1250 0 l 1,5,-1
 949 1192 l 1,6,-1
 641 0 l 1,7,-1
 391 0 l 1,8,-1
 21 1499 l 1,9,-1
 255 1499 l 1,10,-1
 520 266 l 1,11,-1
 526 266 l 1,12,-1
 840 1499 l 1,13,-1
 1054 1499 l 1,14,-1
 1379 266 l 1,0,-1
EndSplineSet
EndChar

StartChar: X
Encoding: 88 88 57
Width: 1216
Flags: W
LayerCount: 2
Fore
SplineSet
610 598 m 1,0,-1
 259 0 l 1,1,-1
 22 0 l 1,2,-1
 490 770 l 1,3,-1
 44 1499 l 1,4,-1
 275 1499 l 1,5,-1
 610 934 l 1,6,-1
 945 1499 l 1,7,-1
 1176 1499 l 1,8,-1
 730 770 l 1,9,-1
 1198 0 l 1,10,-1
 961 0 l 1,11,-1
 610 598 l 1,0,-1
EndSplineSet
EndChar

StartChar: Y
Encoding: 89 89 58
Width: 1068
Flags: W
LayerCount: 2
Fore
SplineSet
184 1499 m 1,0,-1
 531 717 l 1,1,-1
 885 1499 l 1,2,-1
 1111 1499 l 1,3,-1
 636 510 l 1,4,-1
 636 0 l 1,5,-1
 415 0 l 1,6,-1
 415 510 l 1,7,-1
 -52 1499 l 1,8,-1
 184 1499 l 1,0,-1
EndSplineSet
EndChar

StartChar: Z
Encoding: 90 90 59
Width: 1104
Flags: W
LayerCount: 2
Fore
SplineSet
63 0 m 1,0,-1
 63 147 l 1,1,-1
 790 1336 l 1,2,-1
 141 1336 l 1,3,-1
 141 1499 l 1,4,-1
 1016 1499 l 1,5,-1
 1016 1328 l 1,6,-1
 313 168 l 1,7,-1
 1015 168 l 1,8,-1
 1015 0 l 1,9,-1
 63 0 l 1,0,-1
EndSplineSet
EndChar

StartChar: bracketleft
Encoding: 91 91 60
Width: 591
Flags: W
LayerCount: 2
Fore
SplineSet
666 1710 m 1,0,-1
 666 1543 l 1,1,-1
 381 1543 l 1,2,-1
 381 -114 l 1,3,-1
 666 -114 l 1,4,-1
 666 -282 l 1,5,-1
 159 -282 l 1,6,-1
 159 1710 l 1,7,-1
 666 1710 l 1,0,-1
EndSplineSet
EndChar

StartChar: backslash
Encoding: 92 92 61
Width: 868
Flags: W
LayerCount: 2
Fore
SplineSet
862 0 m 1,0,-1
 370 0 l 1,1,-1
 15 1521 l 1,2,-1
 505 1521 l 1,3,-1
 862 0 l 1,0,-1
EndSplineSet
EndChar

StartChar: bracketright
Encoding: 93 93 62
Width: 596
Flags: W
LayerCount: 2
Fore
SplineSet
438 1710 m 1,0,-1
 438 -282 l 1,1,-1
 -69 -282 l 1,2,-1
 -69 -114 l 1,3,-1
 216 -114 l 1,4,-1
 216 1543 l 1,5,-1
 -69 1543 l 1,6,-1
 -69 1710 l 1,7,-1
 438 1710 l 1,0,-1
EndSplineSet
EndChar

StartChar: asciicircum
Encoding: 94 94 63
Width: 1243
Flags: W
LayerCount: 2
Fore
SplineSet
1208 60 m 1,0,-1
 718 60 l 1,1,-1
 631 358 l 1,2,-1
 548 60 l 1,3,-1
 57 60 l 1,4,-1
 320 622 l 1,5,-1
 932 622 l 1,6,-1
 1208 60 l 1,0,-1
EndSplineSet
EndChar

StartChar: underscore
Encoding: 95 95 64
Width: 1123
Flags: W
LayerCount: 2
Fore
SplineSet
1021 -425 m 1,0,-1
 98 -425 l 1,1,-1
 98 -38 l 1,2,-1
 1021 -38 l 1,3,-1
 1021 -425 l 1,0,-1
EndSplineSet
EndChar

StartChar: grave
Encoding: 96 96 65
Width: 930
Flags: W
LayerCount: 2
Fore
SplineSet
809 1411 m 1,0,1
 843 1383 843 1383 843 1370 c 256,2,3
 843 1357 843 1357 824.5 1348 c 128,-1,4
 806 1339 806 1339 779 1339 c 0,5,6
 771 1339 771 1339 761.5 1340 c 128,-1,7
 752 1341 752 1341 745 1344 c 2,8,-1
 701 1358 l 1,9,10
 625 1378 625 1378 539 1401 c 128,-1,11
 453 1424 453 1424 373 1447 c 128,-1,12
 293 1470 293 1470 227 1492 c 128,-1,13
 161 1514 161 1514 125 1532 c 1,14,15
 65 1566 65 1566 35 1609.5 c 128,-1,16
 5 1653 5 1653 5 1694 c 0,17,18
 5 1725 5 1725 18 1753 c 128,-1,19
 31 1781 31 1781 55 1802.5 c 128,-1,20
 79 1824 79 1824 112.5 1836.5 c 128,-1,21
 146 1849 146 1849 186 1849 c 0,22,23
 214 1849 214 1849 249.5 1840 c 128,-1,24
 285 1831 285 1831 315 1814 c 0,25,26
 349 1794 349 1794 393.5 1761 c 128,-1,27
 438 1728 438 1728 488.5 1688 c 128,-1,28
 539 1648 539 1648 591 1604 c 128,-1,29
 643 1560 643 1560 692 1517 c 2,30,-1
 709 1502 l 2,31,32
 734 1479 734 1479 759 1456 c 128,-1,33
 784 1433 784 1433 809 1415 c 1,34,-1
 809 1411 l 1,0,1
EndSplineSet
EndChar

StartChar: a
Encoding: 97 97 66
Width: 1169
Flags: W
LayerCount: 2
Fore
SplineSet
89 274 m 0,0,1
 89 499 89 499 185.571289062 577 c 128,-1,2
 282.142578125 655 282.142578125 655 471.071289062 655 c 128,-1,3
 660 655 660 655 810 637 c 1,4,-1
 810 924 l 2,5,6
 810 1044 810 1044 614.814453125 1044 c 128,-1,7
 419.62890625 1044 419.62890625 1044 371.314453125 1016.72558594 c 128,-1,8
 323 989.451171875 323 989.451171875 323 858 c 1,9,-1
 142 858 l 1,10,11
 142 1142.91601562 142 1142.91601562 382.5 1175.5 c 0,12,13
 460 1186 460 1186 576.25 1186 c 0,14,15
 1031 1186 1031 1186 1031 889 c 2,16,-1
 1031 195 l 2,17,18
 1031 93 1031 93 1040 0 c 1,19,-1
 863 0 l 1,20,-1
 830 127 l 1,21,22
 794.286132812 -23 794.286132812 -23 488 -23 c 0,23,24
 89 -23 89 -23 89 274 c 0,0,1
810 266 m 2,25,-1
 810 529 l 1,26,-1
 515 529 l 2,27,28
 336.1953125 529 336.1953125 529 304 419 c 0,29,30
 292 378 292 378 292 281.123046875 c 128,-1,31
 292 184.24609375 292 184.24609375 347.579101562 146.623046875 c 128,-1,32
 403.159179688 109 403.159179688 109 528.809570312 109 c 0,33,34
 810 109 810 109 810 266 c 2,25,-1
EndSplineSet
EndChar

StartChar: b
Encoding: 98 98 67
Width: 1260
Flags: W
LayerCount: 2
Fore
SplineSet
644 1042 m 256,0,1
 485.293945312 1042 485.293945312 1042 423.647460938 996.434570312 c 128,-1,2
 362 950.869140625 362 950.869140625 362 800 c 2,3,-1
 362 343 l 2,4,5
 362 196.638671875 362 196.638671875 425.891601562 155.819335938 c 128,-1,6
 489.782226562 115 489.782226562 115 644 115 c 256,7,8
 865.41796875 115 865.41796875 115 907.5 218.5 c 0,9,10
 926 264 926 264 926 343 c 2,11,-1
 926 800 l 2,12,13
 926 950.869140625 926 950.869140625 864.352539062 996.434570312 c 128,-1,14
 802.706054688 1042 802.706054688 1042 644 1042 c 256,0,1
152 0 m 1,15,-1
 152 1595 l 1,16,-1
 355 1595 l 1,17,-1
 355 992 l 1,18,19
 373.1875 1186 373.1875 1186 673.420898438 1186 c 4,20,21
 969 1186 969 1186 1058.05273438 1057.80761719 c 0,22,23
 1142 935 1142 935 1142 631.174804688 c 0,24,25
 1142 328 1142 328 1115.29199219 208.439453125 c 0,26,27
 1089 89 1089 89 991.392578125 33.072265625 c 0,28,29
 894 -23 894 -23 625.920898438 -23 c 128,-1,30
 358 -23 358 -23 340 164 c 1,31,-1
 318 0 l 1,32,-1
 152 0 l 1,15,-1
EndSplineSet
EndChar

StartChar: c
Encoding: 99 99 68
Width: 1153
Flags: W
LayerCount: 2
Fore
SplineSet
839 283 m 128,-1,1
 839 329 839 329 835 375 c 1,2,-1
 1044 375 l 1,3,4
 1033 181 1033 181 983.109375 119.965820312 c 0,5,6
 821 -78 821 -78 405.5 -10 c 0,7,8
 252 15 252 15 201.03515625 82.2041015625 c 0,9,10
 99 216 99 216 99 515.180664062 c 0,11,12
 99 815 99 815 128 929 c 0,13,14
 195 1186 195 1186 542.838867188 1186 c 4,15,16
 871 1186 871 1186 954.775390625 1085.19335938 c 0,17,18
 1034 989 1034 989 1044 797 c 1,19,-1
 835 797 l 1,20,21
 836 811 836 811 836 823.5 c 2,22,-1
 836 847 l 2,23,24
 836 965 836 965 790.454101562 1003.46191406 c 128,-1,25
 745 1042 745 1042 583.634765625 1042 c 0,26,27
 422 1042 422 1042 368.680664062 989.185546875 c 0,28,29
 315 936 315 936 315 767 c 2,30,-1
 315 360 l 2,31,32
 315 210 315 210 371.258789062 162.46875 c 0,33,34
 428 115 428 115 545.258789062 115 c 0,35,36
 663 115 663 115 710.5 121.5 c 128,-1,37
 758 128 758 128 786.5 147 c 128,-1,38
 815 166 815 166 827 201.5 c 128,-1,0
 839 237 839 237 839 283 c 128,-1,1
EndSplineSet
EndChar

StartChar: d
Encoding: 100 100 69
Width: 1244
Flags: W
LayerCount: 2
Fore
SplineSet
626 1186 m 0,0,1
 867 1186 867 1186 885 992 c 1,2,-1
 885 1595 l 1,3,-1
 1088 1595 l 1,4,-1
 1088 0 l 1,5,-1
 922 0 l 1,6,-1
 900 164 l 1,7,8
 875 -23 875 -23 562.454101562 -23 c 128,-1,9
 250 -23 250 -23 173.802734375 97.771484375 c 0,10,11
 98 219 98 219 98 523 c 128,-1,12
 98 827 98 827 127.548828125 945.819335938 c 0,13,14
 186.922851562 1186 186.922851562 1186 626 1186 c 0,0,1
596 1042 m 256,15,16
 437.293945312 1042 437.293945312 1042 375.647460938 996.434570312 c 128,-1,17
 314 950.869140625 314 950.869140625 314 800 c 2,18,-1
 314 343 l 2,19,20
 314 196.638671875 314 196.638671875 377.891601562 155.819335938 c 128,-1,21
 441.782226562 115 441.782226562 115 596 115 c 256,22,23
 817.41796875 115 817.41796875 115 859.5 218.5 c 0,24,25
 878 264 878 264 878 343 c 2,26,-1
 878 800 l 2,27,28
 878 950.869140625 878 950.869140625 816.352539062 996.434570312 c 128,-1,29
 754.706054688 1042 754.706054688 1042 596 1042 c 256,15,16
EndSplineSet
EndChar

StartChar: e
Encoding: 101 101 70
Width: 1198
Flags: W
LayerCount: 2
Fore
SplineSet
1072 354 m 1,0,1
 1072 146 1072 146 1022.5 93.9345703125 c 0,2,3
 911 -23 911 -23 592.061523438 -23 c 128,-1,4
 273 -23 273 -23 186.038085938 102.72265625 c 0,5,6
 99 228 99 228 99 524.708984375 c 0,7,8
 99 821 99 821 128.5 931 c 0,9,10
 199 1186 199 1186 569.458007812 1186 c 4,11,12
 1026 1186 1026 1186 1059.55664062 909.642578125 c 0,13,14
 1079 751 1079 751 1079 555 c 1,15,-1
 315 555 l 1,16,-1
 315 349 l 2,17,18
 315 211 315 211 369.42578125 163.180664062 c 0,19,20
 424 115 424 115 600.354492188 115 c 0,21,22
 777 115 777 115 824.928710938 154.258789062 c 0,23,24
 873 194 873 194 873 354 c 1,25,-1
 1072 354 l 1,0,1
315 659 m 1,26,-1
 863 659 l 1,27,-1
 863 766 l 2,28,29
 863 927.384765625 863 927.384765625 819.811523438 984.692382812 c 128,-1,30
 776.623046875 1042 776.623046875 1042 611.485351562 1042 c 128,-1,31
 446.34765625 1042 446.34765625 1042 380.673828125 1000.04199219 c 128,-1,32
 315 958.083007812 315 958.083007812 315 822 c 2,33,-1
 315 659 l 1,26,-1
EndSplineSet
EndChar

StartChar: f
Encoding: 102 102 71
Width: 717
Flags: W
LayerCount: 2
Fore
SplineSet
455 1599 m 0,0,1
 522.286132812 1599 522.286132812 1599 638 1581 c 1,2,-1
 638 1432 l 1,3,-1
 416 1432 l 1,4,-1
 416 1147 l 1,5,-1
 634 1147 l 1,6,-1
 634 1028 l 1,7,-1
 416 1028 l 1,8,-1
 416 0 l 1,9,-1
 199 0 l 1,10,-1
 199 1028 l 1,11,-1
 56 1028 l 1,12,-1
 56 1147 l 1,13,-1
 199 1147 l 1,14,-1
 199 1359 l 2,15,16
 199 1599 199 1599 455 1599 c 0,0,1
EndSplineSet
EndChar

StartChar: g
Encoding: 103 103 72
Width: 1222
Flags: W
LayerCount: 2
Fore
SplineSet
1078 1147 m 1,0,-1
 1078 115 l 2,1,2
 1078 -146 1078 -146 1018.5 -219.703125 c 0,3,4
 887 -382 887 -382 635 -382 c 128,-1,5
 383 -382 383 -382 224 -322 c 1,6,-1
 256 -176 l 1,7,8
 392 -225 392 -225 562 -225 c 128,-1,9
 732 -225 732 -225 796.700195312 -183.065429688 c 0,10,11
 861 -141 861 -141 861 -28 c 2,12,-1
 861 162 l 1,13,14
 840 0 840 0 539.916992188 0 c 128,-1,15
 240 0 240 0 153.5 174.5 c 0,16,17
 96 291 96 291 96 611.5 c 128,-1,18
 96 932 96 932 186.5 1059 c 128,-1,19
 277 1186 277 1186 565.5 1186.5 c 128,-1,20
 854 1187 854 1187 893 992 c 1,21,-1
 910 1147 l 1,22,-1
 1078 1147 l 1,0,-1
861 360 m 2,23,-1
 861 824 l 2,24,25
 861 965.428710938 861 965.428710938 792.44140625 1003.71386719 c 128,-1,26
 723.883789062 1042 723.883789062 1042 576.486328125 1042 c 128,-1,27
 429.088867188 1042 429.088867188 1042 371.044921875 1003.58789062 c 128,-1,28
 313 965.176757812 313 965.176757812 313 807 c 2,29,-1
 313 383 l 2,30,31
 313 172.463867188 313 172.463867188 436 150.5 c 0,32,33
 478 143 478 143 595.655273438 143 c 128,-1,34
 713.311523438 143 713.311523438 143 787.155273438 183.524414062 c 128,-1,35
 861 224.048828125 861 224.048828125 861 360 c 2,23,-1
EndSplineSet
EndChar

StartChar: h
Encoding: 104 104 73
Width: 1242
Flags: W
LayerCount: 2
Fore
SplineSet
1108 780 m 2,0,-1
 1108 0 l 1,1,-1
 889 0 l 1,2,-1
 889 772 l 2,3,4
 889 940 889 940 848.44921875 989.173828125 c 0,5,6
 808 1038 808 1038 634.44921875 1038 c 128,-1,7
 461 1038 461 1038 415 976.666992188 c 0,8,9
 369 915 369 915 369 752 c 2,10,-1
 369 0 l 1,11,-1
 152 0 l 1,12,-1
 152 1552 l 1,13,-1
 369 1552 l 1,14,-1
 369 1013 l 1,15,16
 383.1640625 1186 383.1640625 1186 653.96484375 1186 c 4,17,18
 922 1186 922 1186 1016.2734375 1091.72949219 c 0,19,20
 1108 1000 1108 1000 1108 780 c 2,0,-1
EndSplineSet
EndChar

StartChar: i
Encoding: 105 105 74
Width: 526
Flags: W
LayerCount: 2
Fore
SplineSet
370 0 m 1,0,-1
 151 0 l 1,1,-1
 151 1147 l 1,2,-1
 370 1147 l 1,3,-1
 370 0 l 1,0,-1
370 1384 m 1,4,-1
 151 1384 l 1,5,-1
 151 1571 l 1,6,-1
 370 1571 l 1,7,-1
 370 1384 l 1,4,-1
EndSplineSet
EndChar

StartChar: j
Encoding: 106 106 75
Width: 503
Flags: W
LayerCount: 2
Fore
SplineSet
347 -49 m 2,0,1
 347 -311 347 -311 89 -311 c 0,2,3
 29.6669921875 -311 29.6669921875 -311 -52 -297 c 1,4,-1
 -56 -156 l 1,5,-1
 130 -156 l 1,6,-1
 130 1147 l 1,7,-1
 347 1147 l 1,8,-1
 347 -49 l 2,0,1
349 1384 m 1,9,-1
 130 1384 l 1,10,-1
 130 1571 l 1,11,-1
 349 1571 l 1,12,-1
 349 1384 l 1,9,-1
EndSplineSet
EndChar

StartChar: k
Encoding: 107 107 76
Width: 1142
Flags: W
LayerCount: 2
Fore
SplineSet
369 0 m 1,0,-1
 152 0 l 1,1,-1
 152 1552 l 1,2,-1
 369 1552 l 1,3,-1
 369 660 l 1,4,-1
 847 1147 l 1,5,-1
 1097 1147 l 1,6,-1
 617 674 l 1,7,-1
 1133 0 l 1,8,-1
 890 0 l 1,9,-1
 466 568 l 1,10,-1
 369 481 l 1,11,-1
 369 0 l 1,0,-1
EndSplineSet
EndChar

StartChar: l
Encoding: 108 108 77
Width: 524
Flags: W
LayerCount: 2
Fore
SplineSet
369 0 m 1,0,-1
 152 0 l 1,1,-1
 152 1552 l 1,2,-1
 369 1552 l 1,3,-1
 369 0 l 1,0,-1
EndSplineSet
EndChar

StartChar: m
Encoding: 109 109 78
Width: 1855
Flags: W
LayerCount: 2
Fore
SplineSet
1288 1040 m 0,0,1
 1040 1040 1040 1040 1040 827 c 2,2,-1
 1040 0 l 1,3,-1
 823 0 l 1,4,-1
 823 813 l 2,5,6
 823 955 823 955 788 996.5 c 128,-1,7
 753 1038 753 1038 598.5 1038 c 128,-1,8
 444 1038 444 1038 398 989 c 128,-1,9
 352 940 352 940 352 813 c 2,10,-1
 352 0 l 1,11,-1
 135 0 l 1,12,-1
 135 1147 l 1,13,-1
 308 1147 l 1,14,-1
 334 1002 l 1,15,16
 373.428710938 1186 373.428710938 1186 647.213867188 1186 c 128,-1,17
 921 1186 921 1186 989 1008 c 1,18,19
 1054.73828125 1186 1054.73828125 1186 1303.86914062 1186 c 128,-1,20
 1553 1186 1553 1186 1635.5 1100.5 c 128,-1,21
 1718 1015 1718 1015 1718 801 c 2,22,-1
 1718 0 l 1,23,-1
 1501 0 l 1,24,-1
 1501 788 l 2,25,26
 1501 950 1501 950 1468 995 c 128,-1,27
 1435 1040 1435 1040 1288 1040 c 0,0,1
EndSplineSet
EndChar

StartChar: n
Encoding: 110 110 79
Width: 1227
Flags: W
LayerCount: 2
Fore
SplineSet
638 1186 m 128,-1,1
 904 1186 904 1186 997.5 1092.5 c 128,-1,2
 1091 999 1091 999 1091 780 c 2,3,-1
 1091 0 l 1,4,-1
 872 0 l 1,5,-1
 872 772 l 2,6,7
 872 940 872 940 831.5 989 c 128,-1,8
 791 1038 791 1038 617.44921875 1038 c 128,-1,9
 444 1038 444 1038 398 976.5 c 128,-1,10
 352 915 352 915 352 752 c 2,11,-1
 352 0 l 1,12,-1
 135 0 l 1,13,-1
 135 1147 l 1,14,-1
 308 1147 l 1,15,-1
 334 1004 l 1,16,0
 372 1186 372 1186 638 1186 c 128,-1,1
EndSplineSet
EndChar

StartChar: o
Encoding: 111 111 80
Width: 1215
Flags: W
LayerCount: 2
Fore
SplineSet
598 1186 m 256,0,1
 913.744140625 1186 913.744140625 1186 1004.87207031 1060.5 c 128,-1,2
 1096 935 1096 935 1096 636 c 128,-1,3
 1096 337 1096 337 1064.17480469 214.672851562 c 0,4,5
 1003 -23 1003 -23 598 -23 c 256,6,7
 275 -23 275 -23 187.5 101 c 128,-1,8
 100 225 100 225 100 524.4453125 c 128,-1,9
 100 824 100 824 132.94921875 945.397460938 c 0,10,11
 199 1186 199 1186 598 1186 c 256,0,1
598 1042 m 256,12,13
 439.293945312 1042 439.293945312 1042 377.647460938 996.434570312 c 128,-1,14
 316 950.869140625 316 950.869140625 316 800 c 2,15,-1
 316 343 l 2,16,17
 316 196.638671875 316 196.638671875 379.891601562 155.819335938 c 128,-1,18
 443.782226562 115 443.782226562 115 598 115 c 256,19,20
 819.41796875 115 819.41796875 115 861.5 218.5 c 0,21,22
 880 264 880 264 880 343 c 2,23,-1
 880 800 l 2,24,25
 880 950.869140625 880 950.869140625 818.352539062 996.434570312 c 128,-1,26
 756.706054688 1042 756.706054688 1042 598 1042 c 256,12,13
EndSplineSet
EndChar

StartChar: p
Encoding: 112 112 81
Width: 1245
Flags: W
LayerCount: 2
Fore
SplineSet
908 357 m 2,0,-1
 908 814 l 2,1,2
 908 960.361328125 908 960.361328125 844.108398438 1001.18066406 c 128,-1,3
 780.217773438 1042 780.217773438 1042 626 1042 c 256,4,5
 404.58203125 1042 404.58203125 1042 362.5 938.5 c 0,6,7
 344 893 344 893 344 814 c 2,8,-1
 344 357 l 2,9,10
 344 206.130859375 344 206.130859375 405.647460938 160.565429688 c 128,-1,11
 467.293945312 115 467.293945312 115 626 115 c 256,12,13
 784.706054688 115 784.706054688 115 846.352539062 160.565429688 c 128,-1,14
 908 206.130859375 908 206.130859375 908 357 c 2,0,-1
337 -409 m 1,15,-1
 134 -409 l 1,16,-1
 134 1147 l 1,17,-1
 300 1147 l 1,18,-1
 322 993 l 1,19,20
 340.188476562 1186 340.188476562 1186 656.1875 1186 c 0,21,22
 969 1186 969 1186 1048.19726562 1059.72851562 c 0,23,24
 1124 938 1124 938 1124 634.365234375 c 0,25,26
 1124 330 1124 330 1094.45117188 211.180664062 c 0,27,28
 1065 92 1065 92 959.24609375 34.544921875 c 0,29,30
 854 -23 854 -23 604.163085938 -23 c 0,31,32
 355 -23 355 -23 337 165 c 1,33,-1
 337 -409 l 1,15,-1
EndSplineSet
EndChar

StartChar: q
Encoding: 113 113 82
Width: 1237
Flags: W
LayerCount: 2
Fore
SplineSet
882 357 m 2,0,-1
 882 814 l 2,1,2
 882 960.361328125 882 960.361328125 818.108398438 1001.18066406 c 128,-1,3
 754.217773438 1042 754.217773438 1042 600 1042 c 256,4,5
 378.58203125 1042 378.58203125 1042 336.5 938.5 c 0,6,7
 318 893 318 893 318 814 c 2,8,-1
 318 357 l 2,9,10
 318 206.130859375 318 206.130859375 379.647460938 160.565429688 c 128,-1,11
 441.293945312 115 441.293945312 115 600 115 c 256,12,13
 758.706054688 115 758.706054688 115 820.352539062 160.565429688 c 128,-1,14
 882 206.130859375 882 206.130859375 882 357 c 2,0,-1
1092 1147 m 1,15,-1
 1092 -409 l 1,16,-1
 889 -409 l 1,17,-1
 889 165 l 1,18,19
 871 -23 871 -23 570.579101562 -23 c 128,-1,20
 270 -23 270 -23 186 99.5 c 128,-1,21
 102 222 102 222 102 525.5 c 128,-1,22
 102 829 102 829 128.5 949.5 c 128,-1,23
 155 1070 155 1070 259 1127.5 c 128,-1,24
 363 1185 363 1185 620 1185.5 c 128,-1,25
 877 1186 877 1186 904 993 c 1,26,-1
 926 1147 l 1,27,-1
 1092 1147 l 1,15,-1
EndSplineSet
EndChar

StartChar: r
Encoding: 114 114 83
Width: 741
Flags: W
LayerCount: 2
Fore
SplineSet
684 1024 m 1,0,1
 435.262695312 1024 435.262695312 1024 393.631835938 967.5 c 128,-1,2
 352 911 352 911 352 838 c 2,3,-1
 352 0 l 1,4,-1
 135 0 l 1,5,-1
 135 1147 l 1,6,-1
 308 1147 l 1,7,-1
 334 1004 l 1,8,9
 378.62890625 1113.85644531 378.62890625 1113.85644531 566.5 1164.5 c 0,10,11
 624 1180 624 1180 684 1180 c 1,12,-1
 684 1024 l 1,0,1
EndSplineSet
EndChar

StartChar: s
Encoding: 115 115 84
Width: 1129
Flags: W
LayerCount: 2
Fore
SplineSet
111 833 m 0,0,1
 111 1155 111 1155 443 1179 c 0,2,3
 556 1187 556 1187 663 1186.5 c 128,-1,4
 770 1186 770 1186 883 1122.5 c 128,-1,5
 996 1059 996 1059 996 832 c 1,6,-1
 798 833 l 1,7,8
 798 971 798 971 759.5 1006.5 c 128,-1,9
 721 1042 721 1042 575 1042 c 128,-1,10
 429 1042 429 1042 375 1008.5 c 128,-1,11
 321 975 321 975 321 865 c 128,-1,12
 321 755 321 755 368.439453125 727.984375 c 128,-1,13
 416 701 416 701 614 680 c 128,-1,14
 812 659 812 659 915.10546875 594.735351562 c 0,15,16
 1018 530 1018 530 1018 322 c 0,17,18
 1018 4 1018 4 688.5 -19 c 0,19,20
 632 -23 632 -23 468.981445312 -23 c 128,-1,21
 306 -23 306 -23 199.981445312 51.00390625 c 128,-1,22
 94 125 94 125 94 348 c 1,23,-1
 298 348 l 1,24,25
 298 192 298 192 345.875 153.299804688 c 0,26,27
 394 115 394 115 561 115 c 128,-1,28
 728 115 728 115 770.5 154.5 c 128,-1,29
 813 194 813 194 813 317.5 c 128,-1,30
 813 441 813 441 767.5 467 c 128,-1,31
 722 493 722 493 517.533203125 517.493164062 c 128,-1,32
 313 542 313 542 212 596 c 128,-1,33
 111 650 111 650 111 833 c 0,0,1
EndSplineSet
EndChar

StartChar: t
Encoding: 116 116 85
Width: 727
Flags: W
LayerCount: 2
Fore
SplineSet
212 166 m 2,0,-1
 212 1028 l 1,1,-1
 49 1028 l 1,2,-1
 49 1147 l 1,3,-1
 212 1147 l 1,4,-1
 212 1462 l 1,5,-1
 429 1462 l 1,6,-1
 429 1147 l 1,7,-1
 642 1147 l 1,8,-1
 642 1028 l 1,9,-1
 429 1028 l 1,10,-1
 429 133 l 1,11,-1
 631 133 l 1,12,-1
 631 -16 l 1,13,14
 551 -24 551 -24 460 -24 c 0,15,16
 212 -24 212 -24 212 166 c 2,0,-1
EndSplineSet
EndChar

StartChar: u
Encoding: 117 117 86
Width: 1224
Flags: W
LayerCount: 2
Fore
SplineSet
124 377 m 2,0,-1
 124 1147 l 1,1,-1
 343 1147 l 1,2,-1
 343 385 l 2,3,4
 343 216.18359375 343 216.18359375 383.639648438 165.591796875 c 128,-1,5
 424.278320312 115 424.278320312 115 597.454101562 115 c 128,-1,6
 770.629882812 115 770.629882812 115 816.815429688 177.435546875 c 128,-1,7
 863 239.870117188 863 239.870117188 863 405 c 2,8,-1
 863 1147 l 1,9,-1
 1080 1147 l 1,10,-1
 1080 0 l 1,11,-1
 907 0 l 1,12,-1
 881 153 l 1,13,14
 841.490234375 -23 841.490234375 -23 573.965820312 -23 c 128,-1,15
 306.442382812 -23 306.442382812 -23 215.220703125 67.2705078125 c 128,-1,16
 124 157.541992188 124 157.541992188 124 377 c 2,0,-1
EndSplineSet
EndChar

StartChar: v
Encoding: 118 118 87
Width: 1100
Flags: W
LayerCount: 2
Fore
SplineSet
822 1147 m 1,0,-1
 1044 1147 l 1,1,-1
 677 0 l 1,2,-1
 450 0 l 1,3,-1
 33 1147 l 1,4,-1
 245 1147 l 1,5,-1
 562 214 l 1,6,-1
 822 1147 l 1,0,-1
EndSplineSet
EndChar

StartChar: w
Encoding: 119 119 88
Width: 1704
Flags: W
LayerCount: 2
Fore
SplineSet
1208 231 m 1,0,-1
 1423 1147 l 1,1,-1
 1639 1147 l 1,2,-1
 1333 0 l 1,3,-1
 1106 0 l 1,4,-1
 842 877 l 1,5,-1
 594 0 l 1,6,-1
 367 0 l 1,7,-1
 46 1147 l 1,8,-1
 262 1147 l 1,9,-1
 476 231 l 1,10,-1
 744 1147 l 1,11,-1
 944 1147 l 1,12,-1
 1208 231 l 1,0,-1
EndSplineSet
EndChar

StartChar: x
Encoding: 120 120 89
Width: 1101
Flags: W
LayerCount: 2
Fore
SplineSet
551 420 m 1,0,-1
 282 0 l 1,1,-1
 55 0 l 1,2,-1
 437 578 l 1,3,-1
 61 1147 l 1,4,-1
 287 1147 l 1,5,-1
 550 724 l 1,6,-1
 816 1147 l 1,7,-1
 1038 1147 l 1,8,-1
 668 578 l 1,9,-1
 1046 0 l 1,10,-1
 820 0 l 1,11,-1
 551 420 l 1,0,-1
EndSplineSet
EndChar

StartChar: y
Encoding: 121 121 90
Width: 1119
Flags: W
LayerCount: 2
Fore
SplineSet
351 -216 m 256,0,1
 473 -216 473 -216 473 -112 c 0,2,3
 473 -81 473 -81 461 -37 c 1,4,-1
 31 1147 l 1,5,-1
 247 1147 l 1,6,-1
 578 165 l 1,7,-1
 839 1147 l 1,8,-1
 1064 1147 l 1,9,-1
 688 -46 l 2,10,11
 601.678710938 -319.84765625 601.678710938 -319.84765625 492 -362.5 c 0,12,13
 447 -380 447 -380 369.2890625 -380 c 0,14,15
 291.579101562 -380 291.579101562 -380 113 -341 c 1,16,-1
 130 -181 l 1,17,18
 312 -216 312 -216 351 -216 c 256,0,1
EndSplineSet
EndChar

StartChar: z
Encoding: 122 122 91
Width: 948
Flags: W
LayerCount: 2
Fore
SplineSet
839 1147 m 1,0,-1
 839 1004 l 1,1,-1
 309 139 l 1,2,-1
 835 139 l 1,3,-1
 835 0 l 1,4,-1
 81 0 l 1,5,-1
 81 147 l 1,6,-1
 624 1004 l 1,7,-1
 122 1004 l 1,8,-1
 122 1147 l 1,9,-1
 839 1147 l 1,0,-1
EndSplineSet
EndChar

StartChar: braceleft
Encoding: 123 123 92
Width: 956
Flags: W
LayerCount: 2
Fore
SplineSet
1083 1610 m 1,0,1
 995 1610 995 1610 934.5 1592.5 c 128,-1,2
 874 1575 874 1575 834 1543.5 c 128,-1,3
 794 1512 794 1512 771 1469.5 c 128,-1,4
 748 1427 748 1427 736 1377 c 128,-1,5
 724 1327 724 1327 719.5 1271.5 c 128,-1,6
 715 1216 715 1216 711.5 1160 c 128,-1,7
 708 1104 708 1104 702.5 1048.5 c 128,-1,8
 697 993 697 993 682.5 943 c 128,-1,9
 668 893 668 893 642 850 c 128,-1,10
 616 807 616 807 572 775 c 1,11,-1
 572 742 l 1,12,13
 627 707 627 707 654.5 652.5 c 128,-1,14
 682 598 682 598 694 533 c 128,-1,15
 706 468 706 468 709.5 397 c 128,-1,16
 713 326 713 326 720 257 c 128,-1,17
 727 188 727 188 743.5 125.5 c 128,-1,18
 760 63 760 63 799.5 15.5 c 128,-1,19
 839 -32 839 -32 907 -60 c 128,-1,20
 975 -88 975 -88 1084 -88 c 1,21,-1
 1084 -322 l 1,22,23
 868 -322 868 -322 711.5 -286 c 128,-1,24
 555 -250 555 -250 451 -167.5 c 128,-1,25
 347 -85 347 -85 291 49 c 128,-1,26
 235 183 235 183 219 378 c 1,27,-1
 216 399 l 1,28,29
 212 444 212 444 205.5 487.5 c 128,-1,30
 199 531 199 531 179.5 566 c 128,-1,31
 160 601 160 601 124 622.5 c 128,-1,32
 88 644 88 644 25 644 c 1,33,-1
 25 878 l 1,34,35
 87 878 87 878 123 898.5 c 128,-1,36
 159 919 159 919 178.5 952.5 c 128,-1,37
 198 986 198 986 205.5 1030 c 128,-1,38
 213 1074 213 1074 217 1122 c 1,39,-1
 217 1123 l 2,40,41
 217 1126 217 1126 219 1129 c 1,42,-1
 219 1132 l 2,43,44
 219 1134 219 1134 219.5 1136 c 128,-1,45
 220 1138 220 1138 220 1140 c 2,46,-1
 224 1179 l 1,47,48
 254 1350 254 1350 315.5 1475.5 c 128,-1,49
 377 1601 377 1601 479.5 1683 c 128,-1,50
 582 1765 582 1765 730.5 1804.5 c 128,-1,51
 879 1844 879 1844 1083 1844 c 1,52,-1
 1083 1610 l 1,0,1
EndSplineSet
EndChar

StartChar: bar
Encoding: 124 124 93
Width: 907
Flags: W
LayerCount: 2
Fore
SplineSet
751 -98 m 1,0,-1
 157 -98 l 1,1,-1
 157 1716 l 1,2,-1
 751 1716 l 1,3,-1
 751 -98 l 1,0,-1
EndSplineSet
EndChar

StartChar: braceright
Encoding: 125 125 94
Width: 948
Flags: W
LayerCount: 2
Fore
SplineSet
252 380 m 1,0,1
 268.174804688 665.747070312 268.174804688 665.747070312 388 742 c 1,2,-1
 388 775 l 1,3,4
 264.602539062 861.834960938 264.602539062 861.834960938 251.5 1129.5 c 0,5,6
 237.46875 1416.1328125 237.46875 1416.1328125 179.234375 1485.56640625 c 0,7,8
 74.87109375 1610 74.87109375 1610 -123 1610 c 1,9,-1
 -123 1844 l 1,10,11
 464.919921875 1844 464.919921875 1844 645.5 1475.5 c 0,12,13
 707 1350 707 1350 737 1179 c 1,14,-1
 737 1177 l 2,15,16
 737 1168.5 737 1168.5 738.5 1160.25 c 0,17,18
 741 1146.5 741 1146.5 741 1143 c 2,19,-1
 743 1121 l 1,20,21
 758.276367188 941.506835938 758.276367188 941.506835938 814.637695312 909.752929688 c 128,-1,22
 871 878 871 878 933 878 c 1,23,-1
 933 644 l 1,24,25
 777.884765625 644 777.884765625 644 754.5 487.5 c 0,26,27
 748 444 748 444 744 399 c 1,28,-1
 744 398 l 1,29,-1
 742 376 l 1,30,31
 708.408203125 -9.3154296875 708.408203125 -9.3154296875 509 -167.5 c 0,32,33
 314.236328125 -322 314.236328125 -322 -124 -322 c 1,34,-1
 -124 -88 l 1,35,36
 208.438476562 -88 208.438476562 -88 242.5 265 c 0,37,38
 248 322 248 322 252 379 c 1,39,-1
 252 380 l 1,0,1
EndSplineSet
EndChar

StartChar: asciitilde
Encoding: 126 126 95
Width: 1543
Flags: W
LayerCount: 2
Fore
SplineSet
1131 628 m 1,0,1
 1121.88769531 789 1121.88769531 789 1021 789 c 0,2,3
 961.666992188 789 961.666992188 789 910.333007812 757.5 c 0,4,5
 866.333007812 730.5 866.333007812 730.5 830.166992188 708.75 c 128,-1,6
 794 687 794 687 764.5 668.5 c 128,-1,7
 735 650 735 650 700 635 c 0,8,9
 623 602 623 602 532 602 c 128,-1,10
 441 602 441 602 375 621 c 128,-1,11
 309 640 309 640 262 674.5 c 128,-1,12
 215 709 215 709 185.5 756.5 c 128,-1,13
 156 804 156 804 139 860.5 c 0,14,15
 109 960.206054688 109 960.206054688 109 1111 c 1,16,-1
 416 1111 l 1,17,18
 416 948 416 948 532 948 c 0,19,20
 617.791992188 948 617.791992188 948 714.895507812 1007 c 128,-1,21
 812 1066 812 1066 857.5 1087 c 0,22,23
 963.666992188 1136 963.666992188 1136 1081.83300781 1136 c 128,-1,24
 1200 1136 1200 1136 1270.5 1101.5 c 128,-1,25
 1341 1067 1341 1067 1379 1001.5 c 0,26,27
 1441 894.631835938 1441 894.631835938 1441 628 c 1,28,-1
 1131 628 l 1,0,1
EndSplineSet
EndChar

StartChar: exclamdown
Encoding: 161 161 96
Width: 679
Flags: W
LayerCount: 2
Fore
SplineSet
195 630 m 2,0,1
 220 711 220 711 242.5 792 c 128,-1,2
 265 873 265 873 282 948 c 1,3,4
 290 971 290 971 307.5 983 c 128,-1,5
 325 995 325 995 345 995 c 0,6,7
 366 995 366 995 384 981.5 c 128,-1,8
 402 968 402 968 408 945 c 0,9,10
 424 881 424 881 445 809 c 128,-1,11
 466 737 466 737 489 662.5 c 128,-1,12
 512 588 512 588 534 515 c 128,-1,13
 556 442 556 442 573.5 376 c 128,-1,14
 591 310 591 310 602 255 c 128,-1,15
 613 200 613 200 613 162 c 0,16,17
 613 113 613 113 590 76.5 c 128,-1,18
 567 40 567 40 529 15.5 c 128,-1,19
 491 -9 491 -9 442.5 -21.5 c 128,-1,20
 394 -34 394 -34 343 -34 c 0,21,22
 294 -34 294 -34 247 -22.5 c 128,-1,23
 200 -11 200 -11 163.5 13 c 128,-1,24
 127 37 127 37 104.5 73.5 c 128,-1,25
 82 110 82 110 82 160 c 0,26,27
 82 191 82 191 90.5 236.5 c 128,-1,28
 99 282 99 282 112.5 337.5 c 128,-1,29
 126 393 126 393 144 455.5 c 128,-1,30
 162 518 162 518 180 583 c 1,31,-1
 195 630 l 2,0,1
118 1340 m 1,32,33
 118 1394 118 1394 136 1434 c 128,-1,34
 154 1474 154 1474 183 1500 c 128,-1,35
 212 1526 212 1526 250 1539 c 128,-1,36
 288 1552 288 1552 327 1552 c 0,37,38
 367 1552 367 1552 405.5 1539 c 128,-1,39
 444 1526 444 1526 474.5 1500 c 128,-1,40
 505 1474 505 1474 523.5 1436 c 128,-1,41
 542 1398 542 1398 542 1348 c 0,42,43
 542 1301 542 1301 523.5 1265.5 c 128,-1,44
 505 1230 505 1230 475 1206.5 c 128,-1,45
 445 1183 445 1183 407 1171.5 c 128,-1,46
 369 1160 369 1160 329 1160 c 256,47,48
 289 1160 289 1160 251 1171 c 128,-1,49
 213 1182 213 1182 183 1204 c 128,-1,50
 153 1226 153 1226 135 1258.5 c 128,-1,51
 117 1291 117 1291 117 1334 c 1,52,-1
 118 1340 l 1,32,33
282 956 m 1,53,-1
 282 952 l 1,54,55
 281 950 281 950 281 950 c 1,56,-1
 282 956 l 1,53,-1
EndSplineSet
EndChar

StartChar: cent
Encoding: 162 162 97
Width: 1512
Flags: W
LayerCount: 2
Fore
SplineSet
1446 492 m 2,0,1
 1446 413 1446 413 1420 356.5 c 128,-1,2
 1394 300 1394 300 1348.5 261.5 c 128,-1,3
 1303 223 1303 223 1241.5 200 c 128,-1,4
 1180 177 1180 177 1109.5 164.5 c 128,-1,5
 1039 152 1039 152 962.5 148 c 128,-1,6
 886 144 886 144 811 144 c 1,7,-1
 811 -72 l 1,8,-1
 728 -72 l 1,9,-1
 728 144 l 1,10,11
 650 145 650 145 572 149 c 128,-1,12
 494 153 494 153 422.5 166 c 128,-1,13
 351 179 351 179 289 202.5 c 128,-1,14
 227 226 227 226 181.5 265 c 128,-1,15
 136 304 136 304 110 361 c 128,-1,16
 84 418 84 418 84 497 c 2,17,-1
 84 927 l 2,18,19
 84 1006 84 1006 111.5 1062.5 c 128,-1,20
 139 1119 139 1119 186.5 1157.5 c 128,-1,21
 234 1196 234 1196 297 1219 c 128,-1,22
 360 1242 360 1242 431.5 1254 c 128,-1,23
 503 1266 503 1266 579 1270 c 128,-1,24
 655 1274 655 1274 728 1275 c 1,25,-1
 728 1505 l 1,26,-1
 811 1505 l 1,27,-1
 811 1275 l 1,28,29
 874 1274 874 1274 945.5 1270 c 128,-1,30
 1017 1266 1017 1266 1087.5 1254.5 c 128,-1,31
 1158 1243 1158 1243 1223 1221 c 128,-1,32
 1288 1199 1288 1199 1337.5 1163.5 c 128,-1,33
 1387 1128 1387 1128 1416.5 1076 c 128,-1,34
 1446 1024 1446 1024 1446 951 c 2,35,-1
 1446 861 l 1,36,-1
 914 861 l 1,37,-1
 914 1093 l 1,38,-1
 811 1093 l 1,39,-1
 811 325 l 1,40,-1
 914 325 l 1,41,-1
 914 580 l 1,42,-1
 1446 580 l 1,43,-1
 1446 492 l 2,0,1
728 325 m 1,44,-1
 728 1093 l 1,45,-1
 617 1093 l 1,46,-1
 617 325 l 1,47,-1
 728 325 l 1,44,-1
EndSplineSet
EndChar

StartChar: sterling
Encoding: 163 163 98
Width: 1689
Flags: W
LayerCount: 2
Fore
SplineSet
88 222 m 1,0,1
 116 225 116 225 145 232 c 128,-1,2
 174 239 174 239 198 253 c 128,-1,3
 222 267 222 267 237 290 c 128,-1,4
 252 313 252 313 252 348 c 2,5,-1
 252 704 l 1,6,-1
 88 704 l 1,7,-1
 88 882 l 1,8,-1
 252 882 l 1,9,-1
 252 1023 l 2,10,11
 252 1091 252 1091 256 1153 c 128,-1,12
 260 1215 260 1215 272 1268.5 c 128,-1,13
 284 1322 284 1322 307 1366.5 c 128,-1,14
 330 1411 330 1411 368 1445 c 0,15,16
 409 1482 409 1482 469.5 1504 c 128,-1,17
 530 1526 530 1526 604 1538 c 128,-1,18
 678 1550 678 1550 763 1553.5 c 128,-1,19
 848 1557 848 1557 938 1557 c 0,20,21
 1067 1557 1067 1557 1180 1544 c 128,-1,22
 1293 1531 1293 1531 1378 1499 c 128,-1,23
 1463 1467 1463 1467 1514.5 1414 c 128,-1,24
 1566 1361 1566 1361 1573 1281 c 0,25,26
 1575 1259 1575 1259 1575.5 1239.5 c 128,-1,27
 1576 1220 1576 1220 1576 1200 c 2,28,-1
 1576 1046 l 1,29,-1
 971 1046 l 1,30,-1
 971 1333 l 1,31,-1
 861 1333 l 1,32,-1
 861 881 l 1,33,-1
 1305 881 l 1,34,-1
 1305 703 l 1,35,-1
 861 703 l 1,36,-1
 861 224 l 1,37,-1
 994 224 l 1,38,-1
 994 510 l 1,39,-1
 1597 510 l 1,40,-1
 1597 356 l 2,41,42
 1597 263 1597 263 1573 196 c 128,-1,43
 1549 129 1549 129 1496 85.5 c 128,-1,44
 1443 42 1443 42 1357.5 21 c 128,-1,45
 1272 0 1272 0 1149 0 c 0,46,47
 1050 0 1050 0 976.5 19.5 c 128,-1,48
 903 39 903 39 861 82 c 2,49,-1
 822 122 l 1,50,51
 784 87 784 87 733.5 57.5 c 128,-1,52
 683 28 683 28 611 15 c 1,53,54
 546 6 546 6 475.5 3 c 128,-1,55
 405 0 405 0 322 0 c 2,56,-1
 86 0 l 1,57,-1
 86 222 l 1,58,-1
 88 222 l 1,0,1
EndSplineSet
EndChar

StartChar: currency
Encoding: 164 164 99
Width: 1514
Flags: W
LayerCount: 2
Fore
SplineSet
762 293 m 0,0,1
 654 294 654 294 566.5 304.5 c 128,-1,2
 479 315 479 315 404 337 c 1,3,-1
 404 335 l 1,4,-1
 250 178 l 1,5,-1
 180 247 l 1,6,-1
 290 361 l 1,7,-1
 290 389 l 1,8,9
 240 419 240 419 205 456 c 128,-1,10
 170 493 170 493 148.5 538.5 c 128,-1,11
 127 584 127 584 117 640.5 c 128,-1,12
 107 697 107 697 107 766 c 0,13,14
 107 836 107 836 114 895.5 c 128,-1,15
 121 955 121 955 139 1004.5 c 128,-1,16
 157 1054 157 1054 187 1094 c 128,-1,17
 217 1134 217 1134 263 1166 c 1,18,-1
 263 1196 l 1,19,-1
 181 1281 l 1,20,-1
 251 1351 l 1,21,-1
 375 1221 l 1,22,-1
 375 1219 l 1,23,24
 453 1249 453 1249 547 1262 c 128,-1,25
 641 1275 641 1275 761 1275 c 0,26,27
 878 1275 878 1275 971 1262.5 c 128,-1,28
 1064 1250 1064 1250 1145 1223 c 1,29,-1
 1145 1226 l 1,30,-1
 1264 1350 l 1,31,-1
 1336 1280 l 1,32,-1
 1254 1198 l 1,33,-1
 1254 1168 l 1,34,35
 1301 1136 1301 1136 1332 1097 c 128,-1,36
 1363 1058 1363 1058 1381.5 1009 c 128,-1,37
 1400 960 1400 960 1407.5 900 c 128,-1,38
 1415 840 1415 840 1415 766 c 0,39,40
 1415 629 1415 629 1370 537.5 c 128,-1,41
 1325 446 1325 446 1227 386 c 1,42,-1
 1227 358 l 1,43,-1
 1337 247 l 1,44,-1
 1265 178 l 1,45,-1
 1113 336 l 1,46,-1
 1113 338 l 1,47,48
 1038 315 1038 315 953 304 c 128,-1,49
 868 293 868 293 762 293 c 0,0,1
815 520 m 1,50,-1
 815 1046 l 1,51,-1
 698 1046 l 1,52,-1
 698 520 l 1,53,-1
 815 520 l 1,50,-1
EndSplineSet
EndChar

StartChar: yen
Encoding: 165 165 100
Width: 1153
Flags: W
LayerCount: 2
Fore
SplineSet
1029 672 m 1,0,-1
 1029 572 l 1,1,-1
 113 572 l 1,2,-1
 113 672 l 1,3,-1
 1029 672 l 1,0,-1
113 293 m 1,4,-1
 113 394 l 1,5,-1
 1029 394 l 1,6,-1
 1029 293 l 1,7,-1
 113 293 l 1,4,-1
236 1499 m 1,8,-1
 583 717 l 1,9,-1
 937 1499 l 1,10,-1
 1163 1499 l 1,11,-1
 688 510 l 1,12,-1
 688 0 l 1,13,-1
 467 0 l 1,14,-1
 467 510 l 1,15,-1
 0 1499 l 1,16,-1
 236 1499 l 1,8,-1
EndSplineSet
EndChar

StartChar: brokenbar
Encoding: 166 166 101
Width: 905
Flags: W
LayerCount: 2
Fore
SplineSet
749 -249 m 1,0,-1
 155 -249 l 1,1,-1
 155 603 l 1,2,-1
 749 603 l 1,3,-1
 749 -249 l 1,0,-1
749 779 m 1,4,-1
 155 779 l 1,5,-1
 155 1631 l 1,6,-1
 749 1631 l 1,7,-1
 749 779 l 1,4,-1
EndSplineSet
EndChar

StartChar: section
Encoding: 167 167 102
Width: 1486
Flags: W
LayerCount: 2
Fore
SplineSet
309 1020 m 1,0,1
 270 1037 270 1037 236.5 1061 c 128,-1,2
 203 1085 203 1085 178 1117 c 128,-1,3
 153 1149 153 1149 139 1189.5 c 128,-1,4
 125 1230 125 1230 125 1280 c 0,5,6
 125 1373 125 1373 148 1439.5 c 128,-1,7
 171 1506 171 1506 212.5 1552 c 128,-1,8
 254 1598 254 1598 312 1625.5 c 128,-1,9
 370 1653 370 1653 441 1668 c 128,-1,10
 512 1683 512 1683 593.5 1687.5 c 128,-1,11
 675 1692 675 1692 763 1692 c 0,12,13
 831 1692 831 1692 902 1689 c 128,-1,14
 973 1686 973 1686 1040.5 1675 c 128,-1,15
 1108 1664 1108 1664 1167 1643 c 128,-1,16
 1226 1622 1226 1622 1270.5 1585 c 128,-1,17
 1315 1548 1315 1548 1341 1493.5 c 128,-1,18
 1367 1439 1367 1439 1367 1361 c 2,19,-1
 1367 1279 l 2,20,21
 1367 1277 1367 1277 1366.5 1278 c 128,-1,22
 1366 1279 1366 1279 1366 1277 c 1,23,-1
 793 1277 l 1,24,-1
 793 1464 l 1,25,-1
 717 1464 l 1,26,-1
 717 1189 l 1,27,28
 732 1173 732 1173 756.5 1170 c 128,-1,29
 781 1167 781 1167 807 1165 c 1,30,-1
 814 1165 l 2,31,32
 816 1165 816 1165 818 1164.5 c 128,-1,33
 820 1164 820 1164 822 1164 c 2,34,-1
 840 1164 l 1,35,36
 889 1162 889 1162 948 1159 c 128,-1,37
 1007 1156 1007 1156 1066.5 1147 c 128,-1,38
 1126 1138 1126 1138 1182.5 1122 c 128,-1,39
 1239 1106 1239 1106 1282.5 1078.5 c 128,-1,40
 1326 1051 1326 1051 1352 1009 c 128,-1,41
 1378 967 1378 967 1378 908 c 0,42,43
 1378 867 1378 867 1365.5 832.5 c 128,-1,44
 1353 798 1353 798 1331.5 770.5 c 128,-1,45
 1310 743 1310 743 1281.5 721.5 c 128,-1,46
 1253 700 1253 700 1221 685 c 0,47,48
 1210 680 1210 680 1192 674.5 c 128,-1,49
 1174 669 1174 669 1160 669 c 1,50,-1
 1160 631 l 1,51,-1
 1216 610 l 1,52,53
 1244 592 1244 592 1270.5 568 c 128,-1,54
 1297 544 1297 544 1317.5 514.5 c 128,-1,55
 1338 485 1338 485 1350 449.5 c 128,-1,56
 1362 414 1362 414 1362 373 c 0,57,58
 1362 280 1362 280 1339 213 c 128,-1,59
 1316 146 1316 146 1274.5 100.5 c 128,-1,60
 1233 55 1233 55 1175 27.5 c 128,-1,61
 1117 0 1117 0 1046 -15 c 128,-1,62
 975 -30 975 -30 893.5 -34.5 c 128,-1,63
 812 -39 812 -39 724 -39 c 0,64,65
 656 -39 656 -39 584.5 -36 c 128,-1,66
 513 -33 513 -33 446.5 -22 c 128,-1,67
 380 -11 380 -11 321 11 c 128,-1,68
 262 33 262 33 217.5 70 c 128,-1,69
 173 107 173 107 147.5 162 c 128,-1,70
 122 217 122 217 122 295 c 2,71,-1
 122 376 l 1,72,-1
 123 378 l 1,73,-1
 697 378 l 1,74,-1
 697 192 l 1,75,-1
 771 192 l 1,76,-1
 771 477 l 1,77,-1
 506 477 l 2,78,79
 419 477 419 477 346 490 c 128,-1,80
 273 503 273 503 220.5 534 c 128,-1,81
 168 565 168 565 139 616.5 c 128,-1,82
 110 668 110 668 110 745 c 0,83,84
 110 790 110 790 124 827.5 c 128,-1,85
 138 865 138 865 162.5 894 c 128,-1,86
 187 923 187 923 220 943.5 c 128,-1,87
 253 964 253 964 291 977 c 1,88,-1
 309 986 l 1,89,-1
 309 1020 l 1,0,1
708 950 m 1,90,-1
 708 694 l 1,91,-1
 778 694 l 1,92,-1
 778 950 l 1,93,-1
 708 950 l 1,90,-1
EndSplineSet
EndChar

StartChar: dieresis
Encoding: 168 168 103
Width: 1400
Flags: W
LayerCount: 2
Fore
SplineSet
588 80 m 1,0,-1
 121 80 l 1,1,-1
 121 370 l 1,2,-1
 588 370 l 1,3,-1
 588 80 l 1,0,-1
1301 80 m 1,4,-1
 831 80 l 1,5,-1
 831 370 l 1,6,-1
 1301 370 l 1,7,-1
 1301 80 l 1,4,-1
EndSplineSet
EndChar

StartChar: copyright
Encoding: 169 169 104
Width: 1985
Flags: W
LayerCount: 2
Fore
SplineSet
994 -99 m 0,0,1
 794 -99 794 -99 631 -70.5 c 128,-1,2
 468 -42 468 -42 352.5 27.5 c 128,-1,3
 237 97 237 97 174 214 c 128,-1,4
 111 331 111 331 111 507 c 2,5,-1
 111 1072 l 2,6,7
 111 1195 111 1195 144.5 1287.5 c 128,-1,8
 178 1380 178 1380 237.5 1446.5 c 128,-1,9
 297 1513 297 1513 379.5 1556.5 c 128,-1,10
 462 1600 462 1600 560 1626 c 128,-1,11
 658 1652 658 1652 768.5 1662 c 128,-1,12
 879 1672 879 1672 994 1672 c 0,13,14
 1193 1672 1193 1672 1355.5 1644 c 128,-1,15
 1518 1616 1518 1616 1633.5 1547.5 c 128,-1,16
 1749 1479 1749 1479 1812.5 1363 c 128,-1,17
 1876 1247 1876 1247 1876 1072 c 2,18,-1
 1876 507 l 2,19,20
 1876 383 1876 383 1843 289.5 c 128,-1,21
 1810 196 1810 196 1750.5 129 c 128,-1,22
 1691 62 1691 62 1608.5 18 c 128,-1,23
 1526 -26 1526 -26 1428 -52 c 128,-1,24
 1330 -78 1330 -78 1220 -88.5 c 128,-1,25
 1110 -99 1110 -99 994 -99 c 0,0,1
360 503 m 2,26,27
 360 363 360 363 399.5 271.5 c 128,-1,28
 439 180 439 180 518 126 c 128,-1,29
 597 72 597 72 716 50 c 128,-1,30
 835 28 835 28 994 28 c 0,31,32
 1137 28 1137 28 1254 47.5 c 128,-1,33
 1371 67 1371 67 1454 115 c 128,-1,34
 1537 163 1537 163 1582 245 c 128,-1,35
 1627 327 1627 327 1627 453 c 2,36,-1
 1627 1120 l 2,37,38
 1627 1249 1627 1249 1578.5 1330.5 c 128,-1,39
 1530 1412 1530 1412 1444.5 1458.5 c 128,-1,40
 1359 1505 1359 1505 1243.5 1522 c 128,-1,41
 1128 1539 1128 1539 994 1539 c 0,42,43
 833 1539 833 1539 714 1517 c 128,-1,44
 595 1495 595 1495 516.5 1441 c 128,-1,45
 438 1387 438 1387 399 1296.5 c 128,-1,46
 360 1206 360 1206 360 1070 c 2,47,-1
 360 503 l 2,26,27
1100 384 m 1,48,-1
 1100 695 l 1,49,-1
 1388 695 l 1,50,-1
 1388 509 l 2,51,52
 1388 432 1388 432 1359.5 384 c 128,-1,53
 1331 336 1331 336 1277.5 309.5 c 128,-1,54
 1224 283 1224 283 1148 274 c 128,-1,55
 1072 265 1072 265 976 265 c 0,56,57
 893 265 893 265 824 274.5 c 128,-1,58
 755 284 755 284 705.5 311 c 128,-1,59
 656 338 656 338 628.5 387 c 128,-1,60
 601 436 601 436 601 515 c 2,61,-1
 601 1063 l 2,62,63
 601 1140 601 1140 626.5 1188.5 c 128,-1,64
 652 1237 652 1237 700 1264 c 128,-1,65
 748 1291 748 1291 817.5 1301 c 128,-1,66
 887 1311 887 1311 976 1311 c 0,67,68
 1053 1311 1053 1311 1127 1305 c 128,-1,69
 1201 1299 1201 1299 1259 1275 c 128,-1,70
 1317 1251 1317 1251 1352.5 1202 c 128,-1,71
 1388 1153 1388 1153 1388 1067 c 2,72,-1
 1388 893 l 1,73,-1
 1100 893 l 1,74,-1
 1100 1195 l 1,75,-1
 892 1195 l 1,76,-1
 892 384 l 1,77,-1
 1100 384 l 1,48,-1
EndSplineSet
EndChar

StartChar: ordfeminine
Encoding: 170 170 105
Width: 1577
Flags: W
LayerCount: 2
Fore
SplineSet
1445 515 m 1,0,1
 1445 440 1445 440 1451.5 382.5 c 128,-1,2
 1458 325 1458 325 1468 283 c 1,3,-1
 927 283 l 1,4,-1
 875 409 l 1,5,6
 831 339 831 339 742 298 c 128,-1,7
 653 257 653 257 521 257 c 0,8,9
 299 257 299 257 191 351.5 c 128,-1,10
 83 446 83 446 83 643 c 0,11,12
 83 750 83 750 114.5 826.5 c 128,-1,13
 146 903 146 903 208 952.5 c 128,-1,14
 270 1002 270 1002 362 1025.5 c 128,-1,15
 454 1049 454 1049 575 1049 c 0,16,17
 659 1049 659 1049 726.5 1038 c 128,-1,18
 794 1027 794 1027 851 1010 c 1,19,-1
 851 1365 l 1,20,-1
 708 1365 l 1,21,-1
 708 1177 l 1,22,-1
 157 1157 l 1,23,24
 154 1177 154 1177 151.5 1198 c 128,-1,25
 149 1219 149 1219 149 1245 c 0,26,27
 149 1310 149 1310 177 1357.5 c 128,-1,28
 205 1405 205 1405 253 1438 c 128,-1,29
 301 1471 301 1471 364 1491 c 128,-1,30
 427 1511 427 1511 497 1522.5 c 128,-1,31
 567 1534 567 1534 639 1538 c 128,-1,32
 711 1542 711 1542 777 1542 c 0,33,34
 910 1542 910 1542 1028 1529 c 128,-1,35
 1146 1516 1146 1516 1236 1484.5 c 128,-1,36
 1326 1453 1326 1453 1380.5 1401.5 c 128,-1,37
 1435 1350 1435 1350 1441 1272 c 0,38,39
 1444 1230 1444 1230 1444 1195 c 2,40,-1
 1444 508 l 1,41,-1
 1445 515 l 1,0,1
851 440 m 1,42,-1
 851 920 l 1,43,-1
 678 920 l 1,44,-1
 678 440 l 1,45,-1
 851 440 l 1,42,-1
EndSplineSet
EndChar

StartChar: guillemotleft
Encoding: 171 171 106
Width: 1672
Flags: W
LayerCount: 2
Fore
SplineSet
127 576 m 2,0,1
 80 608 80 608 57 651.5 c 128,-1,2
 34 695 34 695 34 738 c 0,3,4
 34 782 34 782 58 827.5 c 128,-1,5
 82 873 82 873 127 903 c 1,6,-1
 127 904 l 1,7,8
 264 998 264 998 401 1090 c 128,-1,9
 538 1182 538 1182 675 1276 c 1,10,11
 709 1295 709 1295 743 1295 c 0,12,13
 779 1295 779 1295 803 1276.5 c 128,-1,14
 827 1258 827 1258 827 1230 c 0,15,16
 827 1219 827 1219 821.5 1206 c 128,-1,17
 816 1193 816 1193 802 1175 c 2,18,-1
 454 753 l 1,19,-1
 454 728 l 1,20,-1
 802 305 l 2,21,22
 814 290 814 290 819.5 275.5 c 128,-1,23
 825 261 825 261 825 251 c 0,24,25
 825 225 825 225 801 205 c 128,-1,26
 777 185 777 185 741 185 c 0,27,28
 724 185 724 185 706.5 190.5 c 128,-1,29
 689 196 689 196 675 205 c 2,30,-1
 127 576 l 2,0,1
893 576 m 2,31,32
 845 608 845 608 822.5 651 c 128,-1,33
 800 694 800 694 800 738 c 0,34,35
 800 783 800 783 824 828 c 128,-1,36
 848 873 848 873 893 903 c 2,37,-1
 1440 1276 l 1,38,39
 1457 1286 1457 1286 1474.5 1290.5 c 128,-1,40
 1492 1295 1492 1295 1509 1295 c 0,41,42
 1544 1295 1544 1295 1568 1276.5 c 128,-1,43
 1592 1258 1592 1258 1592 1230 c 0,44,45
 1592 1219 1592 1219 1587 1206 c 128,-1,46
 1582 1193 1582 1193 1568 1175 c 2,47,-1
 1220 753 l 1,48,-1
 1220 728 l 1,49,-1
 1568 305 l 2,50,51
 1580 290 1580 290 1585 276 c 128,-1,52
 1590 262 1590 262 1590 251 c 0,53,54
 1590 225 1590 225 1566 205 c 128,-1,55
 1542 185 1542 185 1507 185 c 0,56,57
 1490 185 1490 185 1472 190.5 c 128,-1,58
 1454 196 1454 196 1440 205 c 2,59,-1
 893 576 l 2,31,32
EndSplineSet
EndChar

StartChar: logicalnot
Encoding: 172 172 107
Width: 1336
Flags: W
LayerCount: 2
Fore
SplineSet
964 294 m 1,0,-1
 964 773 l 1,1,-1
 61 773 l 1,2,-1
 61 1042 l 1,3,-1
 1201 1042 l 1,4,-1
 1201 294 l 1,5,-1
 964 294 l 1,0,-1
EndSplineSet
EndChar

StartChar: uni00AD
Encoding: 173 173 108
Width: 1100
Flags: W
LayerCount: 2
Fore
SplineSet
984 549 m 1,0,-1
 117 549 l 1,1,-1
 117 838 l 1,2,-1
 984 838 l 1,3,-1
 984 549 l 1,0,-1
EndSplineSet
EndChar

StartChar: registered
Encoding: 174 174 109
Width: 1985
Flags: W
LayerCount: 2
Fore
SplineSet
994 -99 m 0,0,1
 794 -99 794 -99 631 -70.5 c 128,-1,2
 468 -42 468 -42 352.5 27.5 c 128,-1,3
 237 97 237 97 174 214 c 128,-1,4
 111 331 111 331 111 507 c 2,5,-1
 111 1072 l 2,6,7
 111 1195 111 1195 144.5 1287.5 c 128,-1,8
 178 1380 178 1380 237.5 1446.5 c 128,-1,9
 297 1513 297 1513 379.5 1556.5 c 128,-1,10
 462 1600 462 1600 560 1626 c 128,-1,11
 658 1652 658 1652 768.5 1662 c 128,-1,12
 879 1672 879 1672 994 1672 c 0,13,14
 1193 1672 1193 1672 1355.5 1644 c 128,-1,15
 1518 1616 1518 1616 1633.5 1547.5 c 128,-1,16
 1749 1479 1749 1479 1812.5 1363 c 128,-1,17
 1876 1247 1876 1247 1876 1072 c 2,18,-1
 1876 507 l 2,19,20
 1876 383 1876 383 1843 289.5 c 128,-1,21
 1810 196 1810 196 1750.5 129 c 128,-1,22
 1691 62 1691 62 1608.5 18 c 128,-1,23
 1526 -26 1526 -26 1428 -52 c 128,-1,24
 1330 -78 1330 -78 1220 -88.5 c 128,-1,25
 1110 -99 1110 -99 994 -99 c 0,0,1
360 503 m 2,26,27
 360 363 360 363 399.5 271.5 c 128,-1,28
 439 180 439 180 518 126 c 128,-1,29
 597 72 597 72 716 50 c 128,-1,30
 835 28 835 28 994 28 c 0,31,32
 1137 28 1137 28 1254 47.5 c 128,-1,33
 1371 67 1371 67 1454 115 c 128,-1,34
 1537 163 1537 163 1582 245 c 128,-1,35
 1627 327 1627 327 1627 453 c 2,36,-1
 1627 1120 l 2,37,38
 1627 1249 1627 1249 1578.5 1330.5 c 128,-1,39
 1530 1412 1530 1412 1444.5 1458.5 c 128,-1,40
 1359 1505 1359 1505 1243.5 1522 c 128,-1,41
 1128 1539 1128 1539 994 1539 c 0,42,43
 833 1539 833 1539 714 1517 c 128,-1,44
 595 1495 595 1495 516.5 1441 c 128,-1,45
 438 1387 438 1387 399 1296.5 c 128,-1,46
 360 1206 360 1206 360 1070 c 2,47,-1
 360 503 l 2,26,27
1300 772 m 1,48,49
 1366 767 1366 767 1401 723.5 c 128,-1,50
 1436 680 1436 680 1436 610 c 2,51,-1
 1436 273 l 1,52,-1
 1041 273 l 1,53,-1
 1041 739 l 1,54,-1
 955 739 l 1,55,-1
 955 273 l 1,56,-1
 550 273 l 1,57,-1
 550 1364 l 1,58,-1
 1082 1364 l 2,59,60
 1122 1364 1122 1364 1164 1362 c 128,-1,61
 1206 1360 1206 1360 1245.5 1352.5 c 128,-1,62
 1285 1345 1285 1345 1320.5 1329.5 c 128,-1,63
 1356 1314 1356 1314 1382.5 1287 c 128,-1,64
 1409 1260 1409 1260 1424.5 1219 c 128,-1,65
 1440 1178 1440 1178 1440 1120 c 2,66,-1
 1440 1028 l 2,67,68
 1440 943 1440 943 1402 896 c 128,-1,69
 1364 849 1364 849 1299 844 c 2,70,-1
 1185 835 l 1,71,-1
 1185 778 l 1,72,-1
 1300 772 l 1,48,49
1041 856 m 1,73,-1
 1041 1245 l 1,74,-1
 955 1245 l 1,75,-1
 955 856 l 1,76,-1
 1041 856 l 1,73,-1
EndSplineSet
EndChar

StartChar: macron
Encoding: 175 175 110
Width: 1084
Flags: W
LayerCount: 2
Fore
SplineSet
978 651 m 1,0,-1
 111 651 l 1,1,-1
 111 838 l 1,2,-1
 978 838 l 1,3,-1
 978 651 l 1,0,-1
EndSplineSet
EndChar

StartChar: degree
Encoding: 176 176 111
Width: 831
Flags: W
LayerCount: 2
Fore
SplineSet
63 1321 m 256,0,1
 63 1373 63 1373 86.5 1423 c 128,-1,2
 110 1473 110 1473 154.5 1511.5 c 128,-1,3
 199 1550 199 1550 262.5 1573.5 c 128,-1,4
 326 1597 326 1597 407 1597 c 0,5,6
 489 1597 489 1597 553 1573.5 c 128,-1,7
 617 1550 617 1550 661 1511.5 c 128,-1,8
 705 1473 705 1473 728.5 1423 c 128,-1,9
 752 1373 752 1373 752 1321 c 256,10,11
 752 1269 752 1269 728.5 1219.5 c 128,-1,12
 705 1170 705 1170 661 1131.5 c 128,-1,13
 617 1093 617 1093 553 1069.5 c 128,-1,14
 489 1046 489 1046 407 1046 c 0,15,16
 326 1046 326 1046 262.5 1069.5 c 128,-1,17
 199 1093 199 1093 154.5 1131.5 c 128,-1,18
 110 1170 110 1170 86.5 1219.5 c 128,-1,19
 63 1269 63 1269 63 1321 c 256,0,1
555 1321 m 0,20,21
 555 1358 555 1358 544 1388 c 128,-1,22
 533 1418 533 1418 513.5 1440 c 128,-1,23
 494 1462 494 1462 467 1474 c 128,-1,24
 440 1486 440 1486 407 1486 c 0,25,26
 342 1486 342 1486 302 1440.5 c 128,-1,27
 262 1395 262 1395 262 1321 c 0,28,29
 262 1284 262 1284 272.5 1253.5 c 128,-1,30
 283 1223 283 1223 302 1201 c 128,-1,31
 321 1179 321 1179 348 1167 c 128,-1,32
 375 1155 375 1155 407 1155 c 0,33,34
 473 1155 473 1155 514 1200.5 c 128,-1,35
 555 1246 555 1246 555 1321 c 0,20,21
EndSplineSet
EndChar

StartChar: plusminus
Encoding: 177 177 112
Width: 1255
Flags: W
LayerCount: 2
Fore
SplineSet
835 1521 m 1,0,-1
 835 1148 l 1,1,-1
 1215 1148 l 1,2,-1
 1215 861 l 1,3,-1
 835 861 l 1,4,-1
 835 492 l 1,5,-1
 429 492 l 1,6,-1
 429 861 l 1,7,-1
 48 861 l 1,8,-1
 48 1148 l 1,9,-1
 429 1148 l 1,10,-1
 429 1521 l 1,11,-1
 835 1521 l 1,0,-1
1060 -1 m 1,12,-1
 192 -1 l 1,13,-1
 192 254 l 1,14,-1
 1060 254 l 1,15,-1
 1060 -1 l 1,12,-1
EndSplineSet
EndChar

StartChar: twosuperior
Encoding: 178 178 113
Width: 1102
Flags: W
LayerCount: 2
Fore
SplineSet
127 808 m 1,0,1
 126 813 126 813 126 815 c 128,-1,2
 126 817 126 817 126 819 c 2,3,-1
 126 838 l 2,4,5
 126 931 126 931 159 990.5 c 128,-1,6
 192 1050 192 1050 250.5 1084 c 128,-1,7
 309 1118 309 1118 389.5 1130.5 c 128,-1,8
 470 1143 470 1143 565 1143 c 0,9,10
 667 1143 667 1143 747.5 1129.5 c 128,-1,11
 828 1116 828 1116 883.5 1081.5 c 128,-1,12
 939 1047 939 1047 968.5 987.5 c 128,-1,13
 998 928 998 928 998 837 c 0,14,15
 998 758 998 758 968.5 699.5 c 128,-1,16
 939 641 939 641 891 597 c 128,-1,17
 843 553 843 553 782.5 520.5 c 128,-1,18
 722 488 722 488 661 462 c 0,19,20
 634 450 634 450 606.5 436 c 128,-1,21
 579 422 579 422 556.5 403.5 c 128,-1,22
 534 385 534 385 519.5 360.5 c 128,-1,23
 505 336 505 336 505 305 c 2,24,-1
 505 287 l 1,25,-1
 955 287 l 1,26,-1
 955 132 l 1,27,-1
 127 132 l 1,28,-1
 127 288 l 2,29,30
 127 376 127 376 153 442.5 c 128,-1,31
 179 509 179 509 224.5 559.5 c 128,-1,32
 270 610 270 610 332.5 647 c 128,-1,33
 395 684 395 684 468 713 c 0,34,35
 492 722 492 722 517 733 c 128,-1,36
 542 744 542 744 562.5 758.5 c 128,-1,37
 583 773 583 773 596 792.5 c 128,-1,38
 609 812 609 812 609 838 c 2,39,-1
 609 1007 l 1,40,-1
 505 1007 l 1,41,-1
 505 818 l 1,42,-1
 127 818 l 1,43,-1
 127 808 l 1,0,1
EndSplineSet
EndChar

StartChar: threesuperior
Encoding: 179 179 114
Width: 1128
Flags: W
LayerCount: 2
Fore
SplineSet
1011 841 m 0,0,1
 1011 771 1011 771 971.5 725 c 128,-1,2
 932 679 932 679 867 653 c 1,3,-1
 867 617 l 1,4,5
 940 590 940 590 976.5 535 c 128,-1,6
 1013 480 1013 480 1013 410 c 0,7,8
 1013 324 1013 324 986 265 c 128,-1,9
 959 206 959 206 904 168.5 c 128,-1,10
 849 131 849 131 764.5 114.5 c 128,-1,11
 680 98 680 98 565 98 c 0,12,13
 333 98 333 98 226.5 183 c 128,-1,14
 120 268 120 268 120 442 c 0,15,16
 120 457 120 457 123 481 c 1,17,-1
 504 481 l 1,18,-1
 504 237 l 1,19,-1
 621 237 l 1,20,-1
 621 582 l 1,21,-1
 443 582 l 1,22,-1
 443 688 l 1,23,-1
 621 688 l 1,24,-1
 621 1004 l 1,25,-1
 504 1004 l 1,26,-1
 504 787 l 1,27,-1
 122 787 l 1,28,29
 121 793 121 793 120.5 800 c 128,-1,30
 120 807 120 807 120 821 c 0,31,32
 120 911 120 911 148 972 c 128,-1,33
 176 1033 176 1033 232 1070 c 128,-1,34
 288 1107 288 1107 371 1123 c 128,-1,35
 454 1139 454 1139 564 1139 c 0,36,37
 669 1139 669 1139 752 1124.5 c 128,-1,38
 835 1110 835 1110 892.5 1075.5 c 128,-1,39
 950 1041 950 1041 980.5 983.5 c 128,-1,40
 1011 926 1011 926 1011 841 c 0,0,1
EndSplineSet
EndChar

StartChar: acute
Encoding: 180 180 115
Width: 724
Flags: W
LayerCount: 2
Fore
SplineSet
97 1480 m 0,0,1
 151 1525 151 1525 215 1572 c 128,-1,2
 279 1619 279 1619 342 1661 c 128,-1,3
 405 1703 405 1703 461.5 1738 c 128,-1,4
 518 1773 518 1773 556 1794 c 1,5,6
 582 1807 582 1807 607.5 1814.5 c 128,-1,7
 633 1822 633 1822 657 1822 c 0,8,9
 702 1822 702 1822 728.5 1803.5 c 128,-1,10
 755 1785 755 1785 755 1757 c 0,11,12
 755 1736 755 1736 734 1708.5 c 128,-1,13
 713 1681 713 1681 667 1656 c 0,14,15
 634 1638 634 1638 577 1609 c 128,-1,16
 520 1580 520 1580 449 1547.5 c 128,-1,17
 378 1515 378 1515 299 1484.5 c 128,-1,18
 220 1454 220 1454 144 1433 c 0,19,20
 139 1432 139 1432 134 1431.5 c 128,-1,21
 129 1431 129 1431 124 1431 c 0,22,23
 101 1431 101 1431 87 1437 c 128,-1,24
 73 1443 73 1443 73 1451 c 256,25,26
 73 1459 73 1459 97 1480 c 0,0,1
EndSplineSet
EndChar

StartChar: paragraph
Encoding: 182 182 117
Width: 1401
Flags: W
LayerCount: 2
Fore
SplineSet
594 645 m 1,0,1
 464 645 464 645 361 667.5 c 128,-1,2
 258 690 258 690 186.5 740 c 128,-1,3
 115 790 115 790 77 869.5 c 128,-1,4
 39 949 39 949 39 1063 c 0,5,6
 39 1159 39 1159 62.5 1230.5 c 128,-1,7
 86 1302 86 1302 129 1352.5 c 128,-1,8
 172 1403 172 1403 232 1436 c 128,-1,9
 292 1469 292 1469 365 1487.5 c 128,-1,10
 438 1506 438 1506 522 1513.5 c 128,-1,11
 606 1521 606 1521 696 1521 c 2,12,-1
 1253 1521 l 1,13,-1
 1253 0 l 1,14,-1
 981 0 l 1,15,-1
 981 644 l 1,16,-1
 867 644 l 1,17,-1
 867 0 l 1,18,-1
 594 0 l 1,19,-1
 594 645 l 1,0,1
EndSplineSet
EndChar

StartChar: cedilla
Encoding: 184 184 118
Width: 684
Flags: W
LayerCount: 2
Fore
SplineSet
367 -39 m 1,0,-1
 367 -107 l 1,1,2
 422 -107 422 -107 466 -113 c 128,-1,3
 510 -119 510 -119 541 -134 c 128,-1,4
 572 -149 572 -149 589 -175.5 c 128,-1,5
 606 -202 606 -202 606 -243 c 2,6,-1
 606 -336 l 2,7,8
 606 -380 606 -380 585.5 -406.5 c 128,-1,9
 565 -433 565 -433 529.5 -447.5 c 128,-1,10
 494 -462 494 -462 446 -466.5 c 128,-1,11
 398 -471 398 -471 343 -471 c 0,12,13
 285 -471 285 -471 236.5 -466 c 128,-1,14
 188 -461 188 -461 153 -446 c 128,-1,15
 118 -431 118 -431 98.5 -404.5 c 128,-1,16
 79 -378 79 -378 79 -336 c 2,17,-1
 79 -299 l 1,18,-1
 316 -273 l 1,19,-1
 316 -402 l 1,20,-1
 382 -402 l 1,21,-1
 382 -176 l 1,22,-1
 183 -176 l 1,23,-1
 183 -39 l 1,24,-1
 367 -39 l 1,0,-1
EndSplineSet
EndChar

StartChar: onesuperior
Encoding: 185 185 119
Width: 771
Flags: W
LayerCount: 2
Fore
SplineSet
69 950 m 1,0,-1
 69 1051 l 1,1,2
 137 1051 137 1051 195.5 1065 c 128,-1,3
 254 1079 254 1079 299 1105 c 1,4,-1
 629 1105 l 1,5,-1
 629 128 l 1,6,-1
 219 128 l 1,7,-1
 219 950 l 1,8,-1
 69 950 l 1,0,-1
EndSplineSet
EndChar

StartChar: ordmasculine
Encoding: 186 186 120
Width: 1344
Flags: W
LayerCount: 2
Fore
SplineSet
676 97 m 1,0,1
 610 97 610 97 544 99.5 c 128,-1,2
 478 102 478 102 417 111 c 128,-1,3
 356 120 356 120 303.5 138.5 c 128,-1,4
 251 157 251 157 212 189 c 128,-1,5
 173 221 173 221 151 268.5 c 128,-1,6
 129 316 129 316 129 384 c 2,7,-1
 129 854 l 2,8,9
 129 920 129 920 152.5 967 c 128,-1,10
 176 1014 176 1014 216.5 1045.5 c 128,-1,11
 257 1077 257 1077 311 1095.5 c 128,-1,12
 365 1114 365 1114 425.5 1123.5 c 128,-1,13
 486 1133 486 1133 550.5 1135.5 c 128,-1,14
 615 1138 615 1138 677 1138 c 0,15,16
 742 1138 742 1138 807.5 1135 c 128,-1,17
 873 1132 873 1132 933.5 1122.5 c 128,-1,18
 994 1113 994 1113 1046 1094.5 c 128,-1,19
 1098 1076 1098 1076 1136.5 1044.5 c 128,-1,20
 1175 1013 1175 1013 1197 966.5 c 128,-1,21
 1219 920 1219 920 1219 854 c 2,22,-1
 1219 384 l 2,23,24
 1219 315 1219 315 1196.5 267 c 128,-1,25
 1174 219 1174 219 1135 187.5 c 128,-1,26
 1096 156 1096 156 1043.5 138 c 128,-1,27
 991 120 991 120 930.5 111 c 128,-1,28
 870 102 870 102 805 100 c 128,-1,29
 740 98 740 98 676 97 c 1,0,1
743 273 m 1,30,-1
 743 991 l 1,31,-1
 606 991 l 1,32,-1
 606 273 l 1,33,-1
 743 273 l 1,30,-1
EndSplineSet
EndChar

StartChar: guillemotright
Encoding: 187 187 121
Width: 1671
Flags: W
LayerCount: 2
Fore
SplineSet
1005 205 m 1,0,1
 991 197 991 197 972.5 191 c 128,-1,2
 954 185 954 185 939 185 c 0,3,4
 922 185 922 185 906.5 190.5 c 128,-1,5
 891 196 891 196 879.5 205 c 128,-1,6
 868 214 868 214 861.5 226 c 128,-1,7
 855 238 855 238 855 251 c 0,8,9
 855 262 855 262 860 275.5 c 128,-1,10
 865 289 865 289 878 305 c 2,11,-1
 1226 728 l 1,12,-1
 1226 753 l 1,13,-1
 878 1175 l 2,14,15
 864 1193 864 1193 858.5 1206 c 128,-1,16
 853 1219 853 1219 853 1230 c 0,17,18
 853 1258 853 1258 877.5 1276.5 c 128,-1,19
 902 1295 902 1295 937 1295 c 0,20,21
 952 1295 952 1295 971 1290.5 c 128,-1,22
 990 1286 990 1286 1005 1276 c 2,23,-1
 1553 903 l 2,24,25
 1598 873 1598 873 1622 828 c 128,-1,26
 1646 783 1646 783 1646 738 c 0,27,28
 1646 696 1646 696 1623 652 c 128,-1,29
 1600 608 1600 608 1553 576 c 2,30,-1
 1005 205 l 1,0,1
240 205 m 2,31,32
 226 196 226 196 208.5 190.5 c 128,-1,33
 191 185 191 185 173 185 c 0,34,35
 156 185 156 185 140.5 190.5 c 128,-1,36
 125 196 125 196 114 205 c 128,-1,37
 103 214 103 214 96.5 226 c 128,-1,38
 90 238 90 238 90 251 c 0,39,40
 90 262 90 262 95.5 275.5 c 128,-1,41
 101 289 101 289 114 305 c 2,42,-1
 462 728 l 1,43,-1
 462 753 l 1,44,-1
 114 1175 l 2,45,46
 99 1193 99 1193 93.5 1206 c 128,-1,47
 88 1219 88 1219 88 1230 c 0,48,49
 88 1258 88 1258 112 1276.5 c 128,-1,50
 136 1295 136 1295 171 1295 c 0,51,52
 187 1295 187 1295 206 1290.5 c 128,-1,53
 225 1286 225 1286 240 1276 c 2,54,-1
 787 903 l 2,55,56
 832 873 832 873 856 828 c 128,-1,57
 880 783 880 783 880 738 c 0,58,59
 880 695 880 695 857 651.5 c 128,-1,60
 834 608 834 608 787 576 c 2,61,-1
 240 205 l 2,31,32
EndSplineSet
EndChar

StartChar: onequarter
Encoding: 188 188 122
Width: 2628
Flags: W
LayerCount: 2
Fore
SplineSet
2200 128 m 1,0,-1
 2200 284 l 1,1,-1
 1664 284 l 1,2,-1
 1664 534 l 1,3,-1
 1837 1107 l 1,4,-1
 2233 1107 l 1,5,-1
 2064 545 l 1,6,-1
 2064 484 l 1,7,-1
 2200 484 l 1,8,-1
 2200 705 l 1,9,-1
 2573 705 l 1,10,-1
 2573 128 l 1,11,-1
 2200 128 l 1,0,-1
7 1243 m 1,12,-1
 7 1345 l 1,13,14
 76 1345 76 1345 134 1359 c 128,-1,15
 192 1373 192 1373 237 1398 c 1,16,-1
 567 1398 l 1,17,-1
 567 420 l 1,18,-1
 156 420 l 1,19,-1
 156 1243 l 1,20,-1
 7 1243 l 1,12,-1
1119 1521 m 1,21,-1
 1567 1521 l 1,22,-1
 1212 0 l 1,23,-1
 761 0 l 1,24,-1
 1119 1521 l 1,21,-1
EndSplineSet
EndChar

StartChar: onehalf
Encoding: 189 189 123
Width: 2664
Flags: W
LayerCount: 2
Fore
SplineSet
1727 810 m 1,0,1
 1725 815 1725 815 1725 816 c 128,-1,2
 1725 817 1725 817 1725 819 c 2,3,-1
 1725 838 l 2,4,5
 1725 931 1725 931 1758.5 990.5 c 128,-1,6
 1792 1050 1792 1050 1850.5 1084 c 128,-1,7
 1909 1118 1909 1118 1989.5 1130.5 c 128,-1,8
 2070 1143 2070 1143 2165 1143 c 0,9,10
 2267 1143 2267 1143 2347.5 1129.5 c 128,-1,11
 2428 1116 2428 1116 2483.5 1081.5 c 128,-1,12
 2539 1047 2539 1047 2568 987.5 c 128,-1,13
 2597 928 2597 928 2597 837 c 0,14,15
 2597 758 2597 758 2567.5 699.5 c 128,-1,16
 2538 641 2538 641 2490.5 597 c 128,-1,17
 2443 553 2443 553 2383 520.5 c 128,-1,18
 2323 488 2323 488 2262 462 c 0,19,20
 2235 450 2235 450 2207.5 436 c 128,-1,21
 2180 422 2180 422 2157.5 403.5 c 128,-1,22
 2135 385 2135 385 2120.5 360.5 c 128,-1,23
 2106 336 2106 336 2106 305 c 2,24,-1
 2106 287 l 1,25,-1
 2556 287 l 1,26,-1
 2556 132 l 1,27,-1
 1727 132 l 1,28,-1
 1727 288 l 2,29,30
 1727 376 1727 376 1753 442.5 c 128,-1,31
 1779 509 1779 509 1824.5 560 c 128,-1,32
 1870 611 1870 611 1932 648 c 128,-1,33
 1994 685 1994 685 2067 713 c 0,34,35
 2091 722 2091 722 2116.5 733 c 128,-1,36
 2142 744 2142 744 2162.5 758.5 c 128,-1,37
 2183 773 2183 773 2196 792.5 c 128,-1,38
 2209 812 2209 812 2209 838 c 2,39,-1
 2209 1007 l 1,40,-1
 2106 1007 l 1,41,-1
 2106 818 l 1,42,-1
 1727 818 l 1,43,-1
 1727 810 l 1,0,1
7 1243 m 1,44,-1
 7 1345 l 1,45,46
 75 1345 75 1345 133.5 1359 c 128,-1,47
 192 1373 192 1373 236 1398 c 1,48,-1
 567 1398 l 1,49,-1
 567 420 l 1,50,-1
 156 420 l 1,51,-1
 156 1243 l 1,52,-1
 7 1243 l 1,44,-1
1135 1521 m 1,53,-1
 1583 1521 l 1,54,-1
 1227 0 l 1,55,-1
 778 0 l 1,56,-1
 1135 1521 l 1,53,-1
EndSplineSet
EndChar

StartChar: threequarters
Encoding: 190 190 124
Width: 2925
Flags: W
LayerCount: 2
Fore
SplineSet
1457 1521 m 1,0,-1
 1905 1521 l 1,1,-1
 1549 0 l 1,2,-1
 1100 0 l 1,3,-1
 1457 1521 l 1,0,-1
963 1130 m 0,4,5
 963 1060 963 1060 923.5 1013 c 128,-1,6
 884 966 884 966 819 940 c 1,7,-1
 819 903 l 1,8,9
 892 877 892 877 928.5 822.5 c 128,-1,10
 965 768 965 768 965 698 c 0,11,12
 965 613 965 613 938 553.5 c 128,-1,13
 911 494 911 494 856 456.5 c 128,-1,14
 801 419 801 419 716.5 402 c 128,-1,15
 632 385 632 385 517 385 c 0,16,17
 401 385 401 385 317 406 c 128,-1,18
 233 427 233 427 179 469.5 c 128,-1,19
 125 512 125 512 99 576.5 c 128,-1,20
 73 641 73 641 73 728 c 0,21,22
 73 738 73 738 73.5 748.5 c 128,-1,23
 74 759 74 759 75 770 c 1,24,-1
 456 770 l 1,25,-1
 456 525 l 1,26,-1
 575 525 l 1,27,-1
 575 869 l 1,28,-1
 396 869 l 1,29,-1
 396 975 l 1,30,-1
 575 975 l 1,31,-1
 575 1292 l 1,32,-1
 456 1292 l 1,33,-1
 456 1073 l 1,34,-1
 75 1072 l 1,35,36
 74 1079 74 1079 73.5 1086.5 c 128,-1,37
 73 1094 73 1094 73 1108 c 0,38,39
 73 1199 73 1199 101 1260 c 128,-1,40
 129 1321 129 1321 185 1358.5 c 128,-1,41
 241 1396 241 1396 323.5 1412 c 128,-1,42
 406 1428 406 1428 516 1428 c 0,43,44
 621 1428 621 1428 704 1413 c 128,-1,45
 787 1398 787 1398 844.5 1363.5 c 128,-1,46
 902 1329 902 1329 932.5 1272 c 128,-1,47
 963 1215 963 1215 963 1130 c 0,4,5
2496 128 m 1,48,-1
 2496 284 l 1,49,-1
 1959 284 l 1,50,-1
 1959 534 l 1,51,-1
 2131 1107 l 1,52,-1
 2529 1107 l 1,53,-1
 2361 545 l 1,54,-1
 2361 484 l 1,55,-1
 2496 484 l 1,56,-1
 2496 705 l 1,57,-1
 2870 705 l 1,58,-1
 2870 128 l 1,59,-1
 2496 128 l 1,48,-1
EndSplineSet
EndChar

StartChar: questiondown
Encoding: 191 191 125
Width: 877
Flags: W
LayerCount: 2
Fore
SplineSet
491 985 m 1,0,1
 495 1008 495 1008 515.5 1017 c 128,-1,2
 536 1026 536 1026 556 1026 c 0,3,4
 588 1026 588 1026 604 1012 c 128,-1,5
 620 998 620 998 620 974 c 0,6,7
 620 894 620 894 602.5 825 c 128,-1,8
 585 756 585 756 561 693 c 128,-1,9
 537 630 537 630 511 570 c 128,-1,10
 485 510 485 510 469 449 c 1,11,-1
 469 448 l 1,12,13
 468 442 468 442 467.5 434 c 128,-1,14
 467 426 467 426 467 418 c 0,15,16
 467 392 467 392 475 368.5 c 128,-1,17
 483 345 483 345 500.5 327.5 c 128,-1,18
 518 310 518 310 546 299.5 c 128,-1,19
 574 289 574 289 615 289 c 0,20,21
 651 289 651 289 701.5 300 c 128,-1,22
 752 311 752 311 818 337 c 1,23,-1
 850 35 l 1,24,25
 732 0 732 0 636.5 -16.5 c 128,-1,26
 541 -33 541 -33 468 -33 c 0,27,28
 337 -33 337 -33 250.5 -8 c 128,-1,29
 164 17 164 17 112.5 58 c 128,-1,30
 61 99 61 99 39.5 151 c 128,-1,31
 18 203 18 203 18 258 c 0,32,33
 18 305 18 305 37.5 350 c 128,-1,34
 57 395 57 395 88.5 437.5 c 128,-1,35
 120 480 120 480 159 519 c 128,-1,36
 198 558 198 558 237 594 c 0,37,38
 275 629 275 629 317 673.5 c 128,-1,39
 359 718 359 718 395.5 768.5 c 128,-1,40
 432 819 432 819 458.5 874 c 128,-1,41
 485 929 485 929 491 985 c 1,0,1
766 1376 m 0,42,43
 766 1329 766 1329 748 1294 c 128,-1,44
 730 1259 730 1259 700 1236 c 128,-1,45
 670 1213 670 1213 632 1201.5 c 128,-1,46
 594 1190 594 1190 554 1190 c 0,47,48
 515 1190 515 1190 477 1201.5 c 128,-1,49
 439 1213 439 1213 409 1236 c 128,-1,50
 379 1259 379 1259 361 1294 c 128,-1,51
 343 1329 343 1329 343 1376 c 0,52,53
 343 1422 343 1422 361 1457 c 128,-1,54
 379 1492 379 1492 409 1515 c 128,-1,55
 439 1538 439 1538 477 1549.5 c 128,-1,56
 515 1561 515 1561 554 1561 c 0,57,58
 594 1561 594 1561 632 1549.5 c 128,-1,59
 670 1538 670 1538 700 1515 c 128,-1,60
 730 1492 730 1492 748 1457 c 128,-1,61
 766 1422 766 1422 766 1376 c 0,42,43
EndSplineSet
EndChar

StartChar: Agrave
Encoding: 192 192 126
Width: 1658
Flags: W
LayerCount: 2
Fore
SplineSet
1209 1767 m 1,0,1
 1228 1752 1228 1752 1236.5 1740.5 c 128,-1,2
 1245 1729 1245 1729 1245 1723 c 0,3,4
 1245 1709 1245 1709 1224 1702 c 128,-1,5
 1203 1695 1203 1695 1174 1695 c 0,6,7
 1162 1695 1162 1695 1145 1700 c 0,8,9
 1091 1715 1091 1715 1031.5 1731.5 c 128,-1,10
 972 1748 972 1748 912.5 1764.5 c 128,-1,11
 853 1781 853 1781 795 1797 c 128,-1,12
 737 1813 737 1813 686 1828.5 c 128,-1,13
 635 1844 635 1844 593.5 1858.5 c 128,-1,14
 552 1873 552 1873 526 1886 c 1,15,16
 465 1921 465 1921 435.5 1964.5 c 128,-1,17
 406 2008 406 2008 406 2047 c 0,18,19
 406 2078 406 2078 419 2106 c 128,-1,20
 432 2134 432 2134 456 2155.5 c 128,-1,21
 480 2177 480 2177 513.5 2189.5 c 128,-1,22
 547 2202 547 2202 587 2202 c 0,23,24
 618 2202 618 2202 651 2193.5 c 128,-1,25
 684 2185 684 2185 716 2170 c 1,26,27
 746 2151 746 2151 791 2117.5 c 128,-1,28
 836 2084 836 2084 887.5 2042.5 c 128,-1,29
 939 2001 939 2001 992 1956.5 c 128,-1,30
 1045 1912 1045 1912 1092 1871 c 2,31,-1
 1209 1768 l 1,32,-1
 1209 1767 l 1,0,1
660 0 m 1,33,-1
 51 0 l 1,34,-1
 347 1521 l 1,35,-1
 1297 1521 l 1,36,-1
 1599 0 l 1,37,-1
 990 0 l 1,38,-1
 936 341 l 1,39,-1
 936 357 l 1,40,-1
 713 357 l 1,41,-1
 713 341 l 1,42,-1
 660 0 l 1,33,-1
843 1235 m 1,43,-1
 843 1254 l 1,44,-1
 801 1254 l 1,45,-1
 801 1235 l 1,46,-1
 788 1042 l 1,47,-1
 733 547 l 1,48,-1
 733 525 l 1,49,-1
 918 525 l 1,50,-1
 918 547 l 1,51,52
 903 672 903 672 887.5 795 c 128,-1,53
 872 918 872 918 858 1042 c 1,54,-1
 843 1235 l 1,43,-1
EndSplineSet
EndChar

StartChar: Aacute
Encoding: 193 193 127
Width: 1658
Flags: W
LayerCount: 2
Fore
SplineSet
559 1871 m 2,0,1
 606 1913 606 1913 658 1958 c 128,-1,2
 710 2003 710 2003 760.5 2043.5 c 128,-1,3
 811 2084 811 2084 856 2117 c 128,-1,4
 901 2150 901 2150 934 2170 c 1,5,6
 966 2185 966 2185 998.5 2193.5 c 128,-1,7
 1031 2202 1031 2202 1063 2202 c 0,8,9
 1104 2202 1104 2202 1137.5 2189.5 c 128,-1,10
 1171 2177 1171 2177 1195 2155.5 c 128,-1,11
 1219 2134 1219 2134 1232 2106 c 128,-1,12
 1245 2078 1245 2078 1245 2047 c 0,13,14
 1245 2008 1245 2008 1214.5 1964.5 c 128,-1,15
 1184 1921 1184 1921 1124 1886 c 1,16,17
 1098 1873 1098 1873 1056 1858.5 c 128,-1,18
 1014 1844 1014 1844 962.5 1828.5 c 128,-1,19
 911 1813 911 1813 852.5 1796.5 c 128,-1,20
 794 1780 794 1780 734 1764 c 128,-1,21
 674 1748 674 1748 615 1731.5 c 128,-1,22
 556 1715 556 1715 504 1700 c 0,23,24
 496 1697 496 1697 488 1696 c 128,-1,25
 480 1695 480 1695 472 1695 c 0,26,27
 443 1695 443 1695 424.5 1702.5 c 128,-1,28
 406 1710 406 1710 406 1723 c 0,29,30
 406 1729 406 1729 413.5 1740.5 c 128,-1,31
 421 1752 421 1752 440 1768 c 2,32,-1
 559 1871 l 2,0,1
660 0 m 1,33,-1
 51 0 l 1,34,-1
 347 1521 l 1,35,-1
 1297 1521 l 1,36,-1
 1599 0 l 1,37,-1
 990 0 l 1,38,-1
 936 341 l 1,39,-1
 936 357 l 1,40,-1
 713 357 l 1,41,-1
 713 341 l 1,42,-1
 660 0 l 1,33,-1
843 1235 m 1,43,-1
 843 1254 l 1,44,-1
 801 1254 l 1,45,-1
 801 1235 l 1,46,-1
 788 1042 l 1,47,-1
 733 547 l 1,48,-1
 733 525 l 1,49,-1
 918 525 l 1,50,-1
 918 547 l 1,51,52
 903 672 903 672 887.5 795 c 128,-1,53
 872 918 872 918 858 1042 c 1,54,-1
 843 1235 l 1,43,-1
EndSplineSet
EndChar

StartChar: Acircumflex
Encoding: 194 194 128
Width: 1658
Flags: W
LayerCount: 2
Fore
SplineSet
677 2179 m 2,0,1
 698 2208 698 2208 739 2223.5 c 128,-1,2
 780 2239 780 2239 826 2239 c 0,3,4
 869 2239 869 2239 909 2225 c 128,-1,5
 949 2211 949 2211 972 2179 c 2,6,-1
 1246 1779 l 2,7,8
 1263 1753 1263 1753 1265 1736 c 1,9,10
 1265 1718 1265 1718 1245.5 1706.5 c 128,-1,11
 1226 1695 1226 1695 1199 1695 c 0,12,13
 1162 1695 1162 1695 1139 1712 c 2,14,-1
 825 1942 l 1,15,-1
 509 1712 l 2,16,17
 488 1697 488 1697 458 1697 c 0,18,19
 429 1697 429 1697 407 1707 c 128,-1,20
 385 1717 385 1717 385 1737 c 1,21,22
 384 1745 384 1745 389 1755 c 128,-1,23
 394 1765 394 1765 404 1779 c 2,24,-1
 677 2179 l 2,0,1
660 0 m 1,25,-1
 51 0 l 1,26,-1
 347 1521 l 1,27,-1
 1297 1521 l 1,28,-1
 1599 0 l 1,29,-1
 990 0 l 1,30,-1
 936 341 l 1,31,-1
 936 357 l 1,32,-1
 713 357 l 1,33,-1
 713 341 l 1,34,-1
 660 0 l 1,25,-1
843 1235 m 1,35,-1
 843 1254 l 1,36,-1
 801 1254 l 1,37,-1
 801 1235 l 1,38,-1
 788 1042 l 1,39,-1
 733 547 l 1,40,-1
 733 525 l 1,41,-1
 918 525 l 1,42,-1
 918 547 l 1,43,44
 903 672 903 672 887.5 795 c 128,-1,45
 872 918 872 918 858 1042 c 1,46,-1
 843 1235 l 1,35,-1
EndSplineSet
EndChar

StartChar: Atilde
Encoding: 195 195 129
Width: 1664
Flags: W
LayerCount: 2
Fore
SplineSet
1189 1720 m 1,0,1
 1188 1750 1188 1750 1181.5 1779 c 128,-1,2
 1175 1808 1175 1808 1161.5 1830.5 c 128,-1,3
 1148 1853 1148 1853 1126.5 1866.5 c 128,-1,4
 1105 1880 1105 1880 1074 1880 c 0,5,6
 1050 1880 1050 1880 1025.5 1868 c 128,-1,7
 1001 1856 1001 1856 983 1841 c 2,8,-1
 966 1827 l 1,9,10
 931 1801 931 1801 893.5 1777.5 c 128,-1,11
 856 1754 856 1754 810.5 1735.5 c 128,-1,12
 765 1717 765 1717 710 1706 c 128,-1,13
 655 1695 655 1695 586 1695 c 0,14,15
 493 1695 493 1695 426 1714 c 128,-1,16
 359 1733 359 1733 312 1769 c 128,-1,17
 265 1805 265 1805 236 1858 c 128,-1,18
 207 1911 207 1911 189 1980 c 0,19,20
 177 2027 177 2027 169.5 2080.5 c 128,-1,21
 162 2134 162 2134 162 2194 c 1,22,-1
 471 2194 l 1,23,24
 471 2162 471 2162 476.5 2132.5 c 128,-1,25
 482 2103 482 2103 495.5 2080.5 c 128,-1,26
 509 2058 509 2058 531 2044 c 128,-1,27
 553 2030 553 2030 587 2030 c 0,28,29
 613 2030 613 2030 640 2045 c 128,-1,30
 667 2060 667 2060 690 2078 c 0,31,32
 690 2079 690 2079 691 2079 c 256,33,34
 692 2079 692 2079 694 2080 c 1,35,-1
 694 2081 l 1,36,37
 731 2106 731 2106 769 2130.5 c 128,-1,38
 807 2155 807 2155 852 2174.5 c 128,-1,39
 897 2194 897 2194 950 2206 c 128,-1,40
 1003 2218 1003 2218 1070 2218 c 0,41,42
 1164 2218 1164 2218 1232 2203 c 128,-1,43
 1300 2188 1300 2188 1347 2159 c 128,-1,44
 1394 2130 1394 2130 1422.5 2087 c 128,-1,45
 1451 2044 1451 2044 1467 1989 c 128,-1,46
 1483 1934 1483 1934 1488 1866.5 c 128,-1,47
 1493 1799 1493 1799 1493 1720 c 1,48,-1
 1189 1720 l 1,0,1
1186 1688 m 1,49,-1
 1186 1713 l 1,50,-1
 1189 1707 l 1,51,-1
 1189 1694 l 1,52,-1
 1186 1688 l 1,49,-1
663 0 m 1,53,-1
 54 0 l 1,54,-1
 350 1521 l 1,55,-1
 1300 1521 l 1,56,-1
 1602 0 l 1,57,-1
 993 0 l 1,58,-1
 939 341 l 1,59,-1
 939 357 l 1,60,-1
 716 357 l 1,61,-1
 716 341 l 1,62,-1
 663 0 l 1,53,-1
846 1235 m 1,63,-1
 846 1254 l 1,64,-1
 804 1254 l 1,65,-1
 804 1235 l 1,66,-1
 791 1042 l 1,67,-1
 736 547 l 1,68,-1
 736 525 l 1,69,-1
 921 525 l 1,70,-1
 921 547 l 1,71,72
 906 672 906 672 890.5 795 c 128,-1,73
 875 918 875 918 861 1042 c 1,74,-1
 846 1235 l 1,63,-1
EndSplineSet
EndChar

StartChar: Adieresis
Encoding: 196 196 130
Width: 1663
Flags: W
LayerCount: 2
Fore
SplineSet
705 1695 m 1,0,-1
 238 1695 l 1,1,-1
 238 1984 l 1,2,-1
 705 1984 l 1,3,-1
 705 1695 l 1,0,-1
1416 1695 m 1,4,-1
 948 1695 l 1,5,-1
 948 1984 l 1,6,-1
 1416 1984 l 1,7,-1
 1416 1695 l 1,4,-1
663 0 m 1,8,-1
 54 0 l 1,9,-1
 350 1521 l 1,10,-1
 1300 1521 l 1,11,-1
 1602 0 l 1,12,-1
 993 0 l 1,13,-1
 939 341 l 1,14,-1
 939 357 l 1,15,-1
 716 357 l 1,16,-1
 716 341 l 1,17,-1
 663 0 l 1,8,-1
846 1235 m 1,18,-1
 846 1254 l 1,19,-1
 804 1254 l 1,20,-1
 804 1235 l 1,21,-1
 791 1042 l 1,22,-1
 736 547 l 1,23,-1
 736 525 l 1,24,-1
 921 525 l 1,25,-1
 921 547 l 1,26,27
 906 672 906 672 890.5 795 c 128,-1,28
 875 918 875 918 861 1042 c 1,29,-1
 846 1235 l 1,18,-1
EndSplineSet
EndChar

StartChar: Aring
Encoding: 197 197 131
Width: 1656
Flags: W
LayerCount: 2
Fore
SplineSet
478 1868 m 0,0,1
 478 1937 478 1937 509.5 1992 c 128,-1,2
 541 2047 541 2047 590.5 2085 c 128,-1,3
 640 2123 640 2123 701.5 2143.5 c 128,-1,4
 763 2164 763 2164 824 2164 c 0,5,6
 907 2164 907 2164 971.5 2136.5 c 128,-1,7
 1036 2109 1036 2109 1080.5 2066.5 c 128,-1,8
 1125 2024 1125 2024 1148 1971.5 c 128,-1,9
 1171 1919 1171 1919 1171 1868 c 0,10,11
 1171 1799 1171 1799 1137.5 1744.5 c 128,-1,12
 1104 1690 1104 1690 1053 1652 c 128,-1,13
 1002 1614 1002 1614 941 1594 c 128,-1,14
 880 1574 880 1574 824 1574 c 0,15,16
 741 1574 741 1574 676.5 1599.5 c 128,-1,17
 612 1625 612 1625 568 1666 c 128,-1,18
 524 1707 524 1707 501 1760 c 128,-1,19
 478 1813 478 1813 478 1868 c 0,0,1
822 2006 m 0,20,21
 795 2006 795 2006 771.5 1995.5 c 128,-1,22
 748 1985 748 1985 731 1966.5 c 128,-1,23
 714 1948 714 1948 704.5 1923 c 128,-1,24
 695 1898 695 1898 695 1868 c 0,25,26
 695 1839 695 1839 705 1814 c 128,-1,27
 715 1789 715 1789 732 1770.5 c 128,-1,28
 749 1752 749 1752 772 1741 c 128,-1,29
 795 1730 795 1730 822 1730 c 0,30,31
 847 1730 847 1730 870 1741 c 128,-1,32
 893 1752 893 1752 910 1771 c 128,-1,33
 927 1790 927 1790 937 1815 c 128,-1,34
 947 1840 947 1840 947 1868 c 0,35,36
 947 1897 947 1897 937 1922 c 128,-1,37
 927 1947 927 1947 910 1966 c 128,-1,38
 893 1985 893 1985 870.5 1995.5 c 128,-1,39
 848 2006 848 2006 822 2006 c 0,20,21
659 0 m 1,40,-1
 50 0 l 1,41,-1
 346 1521 l 1,42,-1
 1296 1521 l 1,43,-1
 1598 0 l 1,44,-1
 989 0 l 1,45,-1
 935 341 l 1,46,-1
 935 357 l 1,47,-1
 712 357 l 1,48,-1
 712 341 l 1,49,-1
 659 0 l 1,40,-1
842 1235 m 1,50,-1
 842 1254 l 1,51,-1
 800 1254 l 1,52,-1
 800 1235 l 1,53,-1
 787 1042 l 1,54,-1
 732 547 l 1,55,-1
 732 525 l 1,56,-1
 917 525 l 1,57,-1
 917 547 l 1,58,59
 902 672 902 672 886.5 795 c 128,-1,60
 871 918 871 918 857 1042 c 1,61,-1
 842 1235 l 1,50,-1
EndSplineSet
EndChar

StartChar: AE
Encoding: 198 198 132
Width: 2095
Flags: W
LayerCount: 2
Fore
SplineSet
1974 1324 m 1,0,-1
 1620 1324 l 1,1,-1
 1620 901 l 1,2,-1
 1951 901 l 1,3,-1
 1951 696 l 1,4,-1
 1620 696 l 1,5,-1
 1620 200 l 1,6,-1
 1974 200 l 1,7,-1
 1974 0 l 1,8,-1
 978 0 l 1,9,-1
 978 340 l 1,10,-1
 755 340 l 1,11,-1
 755 326 l 1,12,-1
 645 0 l 1,13,-1
 2 0 l 1,14,-1
 645 1521 l 1,15,-1
 1974 1521 l 1,16,-1
 1974 1324 l 1,0,-1
978 527 m 1,17,-1
 978 965 l 1,18,-1
 832 553 l 1,19,-1
 832 527 l 1,20,-1
 978 527 l 1,17,-1
EndSplineSet
EndChar

StartChar: Ccedilla
Encoding: 199 199 133
Width: 1703
Flags: W
LayerCount: 2
Fore
SplineSet
941 -62 m 1,0,-1
 941 -130 l 1,1,2
 995 -130 995 -130 1039 -136 c 128,-1,3
 1083 -142 1083 -142 1113.5 -157.5 c 128,-1,4
 1144 -173 1144 -173 1161 -199 c 128,-1,5
 1178 -225 1178 -225 1178 -265 c 2,6,-1
 1178 -358 l 2,7,8
 1178 -403 1178 -403 1157.5 -429.5 c 128,-1,9
 1137 -456 1137 -456 1101.5 -470.5 c 128,-1,10
 1066 -485 1066 -485 1018 -489.5 c 128,-1,11
 970 -494 970 -494 915 -494 c 0,12,13
 858 -494 858 -494 809.5 -489 c 128,-1,14
 761 -484 761 -484 725.5 -469.5 c 128,-1,15
 690 -455 690 -455 670.5 -428.5 c 128,-1,16
 651 -402 651 -402 651 -358 c 2,17,-1
 651 -323 l 1,18,-1
 888 -295 l 1,19,-1
 888 -425 l 1,20,-1
 954 -425 l 1,21,-1
 954 -198 l 1,22,-1
 757 -198 l 1,23,-1
 757 -62 l 1,24,-1
 941 -62 l 1,0,-1
760 1325 m 1,25,-1
 760 190 l 1,26,-1
 940 190 l 1,27,-1
 940 561 l 1,28,-1
 1568 561 l 1,29,-1
 1568 341 l 2,30,31
 1568 254 1568 254 1537 192 c 128,-1,32
 1506 130 1506 130 1453 87.5 c 128,-1,33
 1400 45 1400 45 1329 20 c 128,-1,34
 1258 -5 1258 -5 1179 -18 c 128,-1,35
 1100 -31 1100 -31 1016.5 -35 c 128,-1,36
 933 -39 933 -39 854 -39 c 0,37,38
 782 -39 782 -39 700.5 -35 c 128,-1,39
 619 -31 619 -31 538.5 -18 c 128,-1,40
 458 -5 458 -5 384 20 c 128,-1,41
 310 45 310 45 253.5 87.5 c 128,-1,42
 197 130 197 130 163 192 c 128,-1,43
 129 254 129 254 129 342 c 2,44,-1
 129 1180 l 2,45,46
 129 1266 129 1266 160.5 1328 c 128,-1,47
 192 1390 192 1390 246.5 1431.5 c 128,-1,48
 301 1473 301 1473 372.5 1498 c 128,-1,49
 444 1523 444 1523 524.5 1536 c 128,-1,50
 605 1549 605 1549 689 1553 c 128,-1,51
 773 1557 773 1557 851 1557 c 0,52,53
 932 1557 932 1557 1017 1553.5 c 128,-1,54
 1102 1550 1102 1550 1181.5 1537.5 c 128,-1,55
 1261 1525 1261 1525 1331.5 1500.5 c 128,-1,56
 1402 1476 1402 1476 1454.5 1434.5 c 128,-1,57
 1507 1393 1507 1393 1537.5 1331 c 128,-1,58
 1568 1269 1568 1269 1568 1181 c 2,59,-1
 1568 958 l 1,60,-1
 940 958 l 1,61,-1
 940 1325 l 1,62,-1
 760 1325 l 1,25,-1
EndSplineSet
EndChar

StartChar: Egrave
Encoding: 200 200 134
Width: 1255
Flags: W
LayerCount: 2
Fore
SplineSet
1028 1767 m 1,0,1
 1046 1752 1046 1752 1054 1740.5 c 128,-1,2
 1062 1729 1062 1729 1062 1723 c 0,3,4
 1062 1710 1062 1710 1043.5 1702.5 c 128,-1,5
 1025 1695 1025 1695 997 1695 c 2,6,-1
 986 1695 l 2,7,8
 987 1695 987 1695 987 1694 c 0,9,10
 987 1692 987 1692 976.5 1691.5 c 128,-1,11
 966 1691 966 1691 938 1691 c 1,12,-1
 938 1706 l 1,13,14
 887 1720 887 1720 830 1735 c 128,-1,15
 773 1750 773 1750 715 1766 c 128,-1,16
 657 1782 657 1782 601 1798.5 c 128,-1,17
 545 1815 545 1815 496 1830.5 c 128,-1,18
 447 1846 447 1846 407.5 1860 c 128,-1,19
 368 1874 368 1874 344 1886 c 1,20,21
 284 1921 284 1921 254 1964.5 c 128,-1,22
 224 2008 224 2008 224 2047 c 0,23,24
 224 2078 224 2078 237 2106 c 128,-1,25
 250 2134 250 2134 273.5 2155.5 c 128,-1,26
 297 2177 297 2177 330.5 2189.5 c 128,-1,27
 364 2202 364 2202 405 2202 c 0,28,29
 437 2202 437 2202 469.5 2193.5 c 128,-1,30
 502 2185 502 2185 534 2170 c 1,31,32
 567 2150 567 2150 611.5 2117.5 c 128,-1,33
 656 2085 656 2085 705.5 2044.5 c 128,-1,34
 755 2004 755 2004 807.5 1959 c 128,-1,35
 860 1914 860 1914 910 1871 c 2,36,-1
 1028 1768 l 1,37,-1
 1028 1767 l 1,0,1
1134 1316 m 1,38,-1
 780 1316 l 1,39,-1
 780 901 l 1,40,-1
 1111 901 l 1,41,-1
 1111 696 l 1,42,-1
 780 696 l 1,43,-1
 780 207 l 1,44,-1
 1134 207 l 1,45,-1
 1134 0 l 1,46,-1
 152 0 l 1,47,-1
 152 1521 l 1,48,-1
 1134 1521 l 1,49,-1
 1134 1316 l 1,38,-1
EndSplineSet
EndChar

StartChar: Eacute
Encoding: 201 201 135
Width: 1255
Flags: W
LayerCount: 2
Fore
SplineSet
375 1871 m 2,0,1
 423 1913 423 1913 475 1957 c 128,-1,2
 527 2001 527 2001 577.5 2041.5 c 128,-1,3
 628 2082 628 2082 673.5 2116 c 128,-1,4
 719 2150 719 2150 752 2170 c 1,5,6
 784 2185 784 2185 817 2193.5 c 128,-1,7
 850 2202 850 2202 881 2202 c 0,8,9
 921 2202 921 2202 954.5 2189.5 c 128,-1,10
 988 2177 988 2177 1012 2155.5 c 128,-1,11
 1036 2134 1036 2134 1049 2106 c 128,-1,12
 1062 2078 1062 2078 1062 2047 c 0,13,14
 1062 2008 1062 2008 1032.5 1964.5 c 128,-1,15
 1003 1921 1003 1921 942 1886 c 1,16,17
 913 1872 913 1872 864.5 1855.5 c 128,-1,18
 816 1839 816 1839 756 1820.5 c 128,-1,19
 696 1802 696 1802 628 1783 c 128,-1,20
 560 1764 560 1764 494 1746 c 0,21,22
 467 1739 467 1739 438 1730 c 128,-1,23
 409 1721 409 1721 381 1713.5 c 128,-1,24
 353 1706 353 1706 328.5 1700.5 c 128,-1,25
 304 1695 304 1695 288 1695 c 0,26,27
 262 1695 262 1695 243 1702.5 c 128,-1,28
 224 1710 224 1710 224 1723 c 0,29,30
 224 1730 224 1730 232 1740.5 c 128,-1,31
 240 1751 240 1751 259 1768 c 2,32,-1
 375 1871 l 2,0,1
1134 1316 m 1,33,-1
 780 1316 l 1,34,-1
 780 901 l 1,35,-1
 1111 901 l 1,36,-1
 1111 696 l 1,37,-1
 780 696 l 1,38,-1
 780 207 l 1,39,-1
 1134 207 l 1,40,-1
 1134 0 l 1,41,-1
 152 0 l 1,42,-1
 152 1521 l 1,43,-1
 1134 1521 l 1,44,-1
 1134 1316 l 1,33,-1
EndSplineSet
EndChar

StartChar: Ecircumflex
Encoding: 202 202 136
Width: 1256
Flags: W
LayerCount: 2
Fore
SplineSet
496 2179 m 1,0,1
 518 2208 518 2208 558.5 2223.5 c 128,-1,2
 599 2239 599 2239 644 2239 c 256,3,4
 689 2239 689 2239 728.5 2225 c 128,-1,5
 768 2211 768 2211 791 2179 c 2,6,-1
 1064 1779 l 2,7,8
 1082 1751 1082 1751 1084 1736 c 1,9,10
 1084 1718 1084 1718 1064.5 1706.5 c 128,-1,11
 1045 1695 1045 1695 1018 1695 c 0,12,13
 982 1695 982 1695 959 1712 c 2,14,-1
 643 1942 l 1,15,-1
 329 1712 l 2,16,17
 318 1704 318 1704 304.5 1700.5 c 128,-1,18
 291 1697 291 1697 277 1697 c 0,19,20
 248 1697 248 1697 225.5 1707.5 c 128,-1,21
 203 1718 203 1718 203 1737 c 0,22,23
 203 1750 203 1750 223 1778 c 1,24,-1
 223 1779 l 1,25,-1
 496 2179 l 1,0,1
1134 1316 m 1,26,-1
 780 1316 l 1,27,-1
 780 901 l 1,28,-1
 1111 901 l 1,29,-1
 1111 696 l 1,30,-1
 780 696 l 1,31,-1
 780 207 l 1,32,-1
 1134 207 l 1,33,-1
 1134 0 l 1,34,-1
 152 0 l 1,35,-1
 152 1521 l 1,36,-1
 1134 1521 l 1,37,-1
 1134 1316 l 1,26,-1
EndSplineSet
EndChar

StartChar: Edieresis
Encoding: 203 203 137
Width: 1232
Flags: W
LayerCount: 2
Fore
SplineSet
520 1695 m 1,0,-1
 52 1695 l 1,1,-1
 52 1984 l 1,2,-1
 520 1984 l 1,3,-1
 520 1695 l 1,0,-1
1231 1695 m 1,4,-1
 763 1695 l 1,5,-1
 763 1984 l 1,6,-1
 1231 1984 l 1,7,-1
 1231 1695 l 1,4,-1
1133 1316 m 1,8,-1
 779 1316 l 1,9,-1
 779 901 l 1,10,-1
 1110 901 l 1,11,-1
 1110 696 l 1,12,-1
 779 696 l 1,13,-1
 779 207 l 1,14,-1
 1133 207 l 1,15,-1
 1133 0 l 1,16,-1
 151 0 l 1,17,-1
 151 1521 l 1,18,-1
 1133 1521 l 1,19,-1
 1133 1316 l 1,8,-1
EndSplineSet
EndChar

StartChar: Igrave
Encoding: 204 204 138
Width: 917
Flags: W
LayerCount: 2
Fore
SplineSet
839 1767 m 1,0,1
 858 1752 858 1752 866 1740.5 c 128,-1,2
 874 1729 874 1729 874 1723 c 0,3,4
 874 1710 874 1710 855 1702.5 c 128,-1,5
 836 1695 836 1695 809 1695 c 2,6,-1
 798 1695 l 2,7,8
 799 1695 799 1695 799 1694 c 0,9,10
 799 1692 799 1692 788.5 1691.5 c 128,-1,11
 778 1691 778 1691 750 1691 c 1,12,-1
 750 1706 l 1,13,14
 673 1727 673 1727 584.5 1751 c 128,-1,15
 496 1775 496 1775 413 1799 c 128,-1,16
 330 1823 330 1823 261.5 1845.5 c 128,-1,17
 193 1868 193 1868 156 1886 c 1,18,19
 95 1921 95 1921 65.5 1964.5 c 128,-1,20
 36 2008 36 2008 36 2047 c 0,21,22
 36 2078 36 2078 49 2106 c 128,-1,23
 62 2134 62 2134 85.5 2155.5 c 128,-1,24
 109 2177 109 2177 142.5 2189.5 c 128,-1,25
 176 2202 176 2202 217 2202 c 0,26,27
 248 2202 248 2202 281 2193.5 c 128,-1,28
 314 2185 314 2185 346 2170 c 1,29,30
 391 2145 391 2145 452.5 2097 c 128,-1,31
 514 2049 514 2049 581.5 1992 c 128,-1,32
 649 1935 649 1935 716 1875.5 c 128,-1,33
 783 1816 783 1816 839 1768 c 1,34,-1
 839 1767 l 1,0,1
768 0 m 1,35,-1
 140 0 l 1,36,-1
 140 1521 l 1,37,-1
 768 1521 l 1,38,-1
 768 0 l 1,35,-1
EndSplineSet
EndChar

StartChar: Iacute
Encoding: 205 205 139
Width: 917
Flags: W
LayerCount: 2
Fore
SplineSet
190 1871 m 2,0,1
 238 1913 238 1913 290 1957 c 128,-1,2
 342 2001 342 2001 392.5 2041.5 c 128,-1,3
 443 2082 443 2082 488.5 2116 c 128,-1,4
 534 2150 534 2150 567 2170 c 1,5,6
 599 2185 599 2185 631.5 2193.5 c 128,-1,7
 664 2202 664 2202 696 2202 c 0,8,9
 736 2202 736 2202 769.5 2189.5 c 128,-1,10
 803 2177 803 2177 827 2155.5 c 128,-1,11
 851 2134 851 2134 864 2106 c 128,-1,12
 877 2078 877 2078 877 2047 c 0,13,14
 877 2008 877 2008 847 1964.5 c 128,-1,15
 817 1921 817 1921 757 1886 c 1,16,17
 731 1874 731 1874 689 1859 c 128,-1,18
 647 1844 647 1844 595 1828.5 c 128,-1,19
 543 1813 543 1813 484.5 1796.5 c 128,-1,20
 426 1780 426 1780 365.5 1763.5 c 128,-1,21
 305 1747 305 1747 246.5 1731 c 128,-1,22
 188 1715 188 1715 137 1700 c 0,23,24
 129 1697 129 1697 120 1696 c 128,-1,25
 111 1695 111 1695 103 1695 c 0,26,27
 76 1695 76 1695 57.5 1702.5 c 128,-1,28
 39 1710 39 1710 39 1723 c 0,29,30
 39 1729 39 1729 47 1740.5 c 128,-1,31
 55 1752 55 1752 73 1768 c 2,32,-1
 190 1871 l 2,0,1
771 0 m 1,33,-1
 143 0 l 1,34,-1
 143 1521 l 1,35,-1
 771 1521 l 1,36,-1
 771 0 l 1,33,-1
EndSplineSet
EndChar

StartChar: Icircumflex
Encoding: 206 206 140
Width: 922
Flags: W
LayerCount: 2
Fore
SplineSet
310 2179 m 2,0,1
 331 2208 331 2208 371.5 2223.5 c 128,-1,2
 412 2239 412 2239 457 2239 c 256,3,4
 502 2239 502 2239 542 2225 c 128,-1,5
 582 2211 582 2211 605 2179 c 2,6,-1
 878 1779 l 2,7,8
 887 1765 887 1765 891 1754.5 c 128,-1,9
 895 1744 895 1744 896 1736 c 1,10,11
 896 1718 896 1718 877.5 1706.5 c 128,-1,12
 859 1695 859 1695 832 1695 c 0,13,14
 795 1695 795 1695 772 1712 c 2,15,-1
 456 1942 l 1,16,-1
 142 1712 l 2,17,18
 121 1696 121 1696 90 1697 c 0,19,20
 61 1697 61 1697 38.5 1707.5 c 128,-1,21
 16 1718 16 1718 16 1737 c 0,22,23
 16 1751 16 1751 37 1778 c 1,24,-1
 37 1779 l 1,25,-1
 310 2179 l 2,0,1
771 0 m 1,26,-1
 143 0 l 1,27,-1
 143 1521 l 1,28,-1
 771 1521 l 1,29,-1
 771 0 l 1,26,-1
EndSplineSet
EndChar

StartChar: Idieresis
Encoding: 207 207 141
Width: 980
Flags: W
LayerCount: 2
Fore
SplineSet
365 1695 m 1,0,-1
 -102 1695 l 1,1,-1
 -102 1984 l 1,2,-1
 365 1984 l 1,3,-1
 365 1695 l 1,0,-1
1076 1695 m 1,4,-1
 608 1695 l 1,5,-1
 608 1984 l 1,6,-1
 1076 1984 l 1,7,-1
 1076 1695 l 1,4,-1
801 0 m 1,8,-1
 173 0 l 1,9,-1
 173 1521 l 1,10,-1
 801 1521 l 1,11,-1
 801 0 l 1,8,-1
EndSplineSet
EndChar

StartChar: Eth
Encoding: 208 208 142
Width: 1590
Flags: W
LayerCount: 2
Fore
SplineSet
1448 365 m 1,0,1
 1448 258 1448 258 1411 188 c 128,-1,2
 1374 118 1374 118 1300.5 76 c 128,-1,3
 1227 34 1227 34 1118 17 c 128,-1,4
 1009 0 1009 0 866 0 c 2,5,-1
 168 0 l 1,6,-1
 168 711 l 1,7,-1
 71 711 l 1,8,-1
 71 809 l 1,9,-1
 168 809 l 1,10,-1
 168 1521 l 1,11,-1
 866 1521 l 2,12,13
 1012 1521 1012 1521 1121.5 1503.5 c 128,-1,14
 1231 1486 1231 1486 1304.5 1444 c 128,-1,15
 1378 1402 1378 1402 1414.5 1332 c 128,-1,16
 1451 1262 1451 1262 1451 1157 c 2,17,-1
 1451 374 l 1,18,-1
 1448 365 l 1,0,1
933 194 m 1,19,-1
 933 1327 l 1,20,-1
 688 1327 l 1,21,-1
 688 809 l 1,22,-1
 822 809 l 1,23,-1
 822 711 l 1,24,-1
 688 711 l 1,25,-1
 688 194 l 1,26,-1
 933 194 l 1,19,-1
EndSplineSet
EndChar

StartChar: Ntilde
Encoding: 209 209 143
Width: 1757
Flags: W
LayerCount: 2
Fore
SplineSet
1238 1720 m 1,0,1
 1237 1750 1237 1750 1231 1779 c 128,-1,2
 1225 1808 1225 1808 1211.5 1830.5 c 128,-1,3
 1198 1853 1198 1853 1176.5 1866.5 c 128,-1,4
 1155 1880 1155 1880 1124 1880 c 0,5,6
 1098 1880 1098 1880 1075 1867.5 c 128,-1,7
 1052 1855 1052 1855 1032 1841 c 1,8,-1
 1016 1827 l 1,9,10
 981 1801 981 1801 943 1777.5 c 128,-1,11
 905 1754 905 1754 859.5 1735.5 c 128,-1,12
 814 1717 814 1717 759 1706 c 128,-1,13
 704 1695 704 1695 635 1695 c 0,14,15
 542 1695 542 1695 475 1714 c 128,-1,16
 408 1733 408 1733 361 1769 c 128,-1,17
 314 1805 314 1805 285 1858 c 128,-1,18
 256 1911 256 1911 238 1980 c 0,19,20
 226 2027 226 2027 218.5 2080.5 c 128,-1,21
 211 2134 211 2134 211 2194 c 1,22,-1
 520 2194 l 1,23,24
 520 2162 520 2162 525.5 2132.5 c 128,-1,25
 531 2103 531 2103 544.5 2080.5 c 128,-1,26
 558 2058 558 2058 580 2044 c 128,-1,27
 602 2030 602 2030 636 2030 c 0,28,29
 662 2030 662 2030 689 2045 c 128,-1,30
 716 2060 716 2060 739 2078 c 0,31,32
 739 2079 739 2079 740 2079 c 256,33,34
 741 2079 741 2079 743 2080 c 1,35,-1
 743 2081 l 1,36,37
 780 2106 780 2106 818.5 2130.5 c 128,-1,38
 857 2155 857 2155 902 2174.5 c 128,-1,39
 947 2194 947 2194 1000.5 2206 c 128,-1,40
 1054 2218 1054 2218 1121 2218 c 0,41,42
 1261 2218 1261 2218 1344.5 2184.5 c 128,-1,43
 1428 2151 1428 2151 1472 2087 c 128,-1,44
 1516 2023 1516 2023 1529 1930.5 c 128,-1,45
 1542 1838 1542 1838 1542 1720 c 1,46,-1
 1238 1720 l 1,0,1
1235 1688 m 1,47,-1
 1235 1713 l 1,48,-1
 1238 1707 l 1,49,-1
 1238 1694 l 1,50,-1
 1235 1688 l 1,47,-1
619 684 m 1,51,-1
 619 0 l 1,52,-1
 152 0 l 1,53,-1
 152 1521 l 1,54,-1
 698 1521 l 1,55,-1
 1140 787 l 1,56,-1
 1140 1521 l 1,57,-1
 1601 1521 l 1,58,-1
 1601 0 l 1,59,-1
 1035 0 l 1,60,-1
 619 684 l 1,51,-1
EndSplineSet
EndChar

StartChar: Ograve
Encoding: 210 210 144
Width: 1704
Flags: W
LayerCount: 2
Fore
SplineSet
1232 1767 m 1,0,1
 1251 1752 1251 1752 1259 1740.5 c 128,-1,2
 1267 1729 1267 1729 1267 1723 c 0,3,4
 1267 1710 1267 1710 1248 1702.5 c 128,-1,5
 1229 1695 1229 1695 1203 1695 c 0,6,7
 1195 1695 1195 1695 1185.5 1696 c 128,-1,8
 1176 1697 1176 1697 1168 1700 c 0,9,10
 1114 1715 1114 1715 1054.5 1731.5 c 128,-1,11
 995 1748 995 1748 935.5 1764.5 c 128,-1,12
 876 1781 876 1781 818 1797 c 128,-1,13
 760 1813 760 1813 709 1828.5 c 128,-1,14
 658 1844 658 1844 616.5 1858.5 c 128,-1,15
 575 1873 575 1873 549 1886 c 1,16,17
 488 1921 488 1921 458.5 1964.5 c 128,-1,18
 429 2008 429 2008 429 2047 c 0,19,20
 429 2078 429 2078 442 2106 c 128,-1,21
 455 2134 455 2134 479 2155.5 c 128,-1,22
 503 2177 503 2177 536.5 2189.5 c 128,-1,23
 570 2202 570 2202 610 2202 c 0,24,25
 641 2202 641 2202 674 2193.5 c 128,-1,26
 707 2185 707 2185 739 2170 c 1,27,28
 770 2152 770 2152 815 2118.5 c 128,-1,29
 860 2085 860 2085 911 2043.5 c 128,-1,30
 962 2002 962 2002 1015 1957 c 128,-1,31
 1068 1912 1068 1912 1115 1871 c 2,32,-1
 1232 1768 l 1,33,-1
 1232 1767 l 1,0,1
939 192 m 1,34,-1
 939 1331 l 1,35,-1
 759 1331 l 1,36,-1
 759 192 l 1,37,-1
 939 192 l 1,34,-1
845 -38 m 0,38,39
 762 -38 762 -38 676.5 -34.5 c 128,-1,40
 591 -31 591 -31 511 -18 c 128,-1,41
 431 -5 431 -5 361.5 19.5 c 128,-1,42
 292 44 292 44 240 86.5 c 128,-1,43
 188 129 188 129 158 191.5 c 128,-1,44
 128 254 128 254 128 342 c 2,45,-1
 128 1180 l 2,46,47
 128 1266 128 1266 159.5 1327.5 c 128,-1,48
 191 1389 191 1389 244.5 1431 c 128,-1,49
 298 1473 298 1473 369 1497.5 c 128,-1,50
 440 1522 440 1522 519.5 1535 c 128,-1,51
 599 1548 599 1548 682.5 1552 c 128,-1,52
 766 1556 766 1556 845 1556 c 0,53,54
 916 1556 916 1556 997 1552.5 c 128,-1,55
 1078 1549 1078 1549 1158 1536 c 128,-1,56
 1238 1523 1238 1523 1311.5 1498.5 c 128,-1,57
 1385 1474 1385 1474 1441.5 1432.5 c 128,-1,58
 1498 1391 1498 1391 1532 1329 c 128,-1,59
 1566 1267 1566 1267 1566 1180 c 2,60,-1
 1566 342 l 2,61,62
 1566 254 1566 254 1534.5 192 c 128,-1,63
 1503 130 1503 130 1449 88 c 128,-1,64
 1395 46 1395 46 1323 21 c 128,-1,65
 1251 -4 1251 -4 1171 -17 c 128,-1,66
 1091 -30 1091 -30 1007 -34 c 128,-1,67
 923 -38 923 -38 845 -38 c 0,38,39
EndSplineSet
EndChar

StartChar: Oacute
Encoding: 211 211 145
Width: 1704
Flags: W
LayerCount: 2
Fore
SplineSet
582 1871 m 2,0,1
 629 1913 629 1913 681 1958 c 128,-1,2
 733 2003 733 2003 783.5 2043.5 c 128,-1,3
 834 2084 834 2084 879 2117 c 128,-1,4
 924 2150 924 2150 957 2170 c 1,5,6
 989 2185 989 2185 1021.5 2193.5 c 128,-1,7
 1054 2202 1054 2202 1086 2202 c 0,8,9
 1127 2202 1127 2202 1160.5 2189.5 c 128,-1,10
 1194 2177 1194 2177 1217.5 2155.5 c 128,-1,11
 1241 2134 1241 2134 1254 2106 c 128,-1,12
 1267 2078 1267 2078 1267 2047 c 0,13,14
 1267 2008 1267 2008 1237 1964.5 c 128,-1,15
 1207 1921 1207 1921 1147 1886 c 1,16,17
 1121 1873 1121 1873 1079 1858.5 c 128,-1,18
 1037 1844 1037 1844 985.5 1828.5 c 128,-1,19
 934 1813 934 1813 875.5 1796.5 c 128,-1,20
 817 1780 817 1780 757 1764 c 128,-1,21
 697 1748 697 1748 638 1731.5 c 128,-1,22
 579 1715 579 1715 527 1700 c 0,23,24
 519 1697 519 1697 511 1696 c 128,-1,25
 503 1695 503 1695 495 1695 c 0,26,27
 466 1695 466 1695 447.5 1702.5 c 128,-1,28
 429 1710 429 1710 429 1723 c 0,29,30
 429 1729 429 1729 436.5 1740.5 c 128,-1,31
 444 1752 444 1752 463 1768 c 2,32,-1
 582 1871 l 2,0,1
939 192 m 1,33,-1
 939 1331 l 1,34,-1
 759 1331 l 1,35,-1
 759 192 l 1,36,-1
 939 192 l 1,33,-1
845 -38 m 0,37,38
 762 -38 762 -38 676.5 -34.5 c 128,-1,39
 591 -31 591 -31 511 -18 c 128,-1,40
 431 -5 431 -5 361.5 19.5 c 128,-1,41
 292 44 292 44 240 86.5 c 128,-1,42
 188 129 188 129 158 191.5 c 128,-1,43
 128 254 128 254 128 342 c 2,44,-1
 128 1180 l 2,45,46
 128 1266 128 1266 159.5 1327.5 c 128,-1,47
 191 1389 191 1389 244.5 1431 c 128,-1,48
 298 1473 298 1473 369 1497.5 c 128,-1,49
 440 1522 440 1522 519.5 1535 c 128,-1,50
 599 1548 599 1548 682.5 1552 c 128,-1,51
 766 1556 766 1556 845 1556 c 0,52,53
 916 1556 916 1556 997 1552.5 c 128,-1,54
 1078 1549 1078 1549 1158 1536 c 128,-1,55
 1238 1523 1238 1523 1311.5 1498.5 c 128,-1,56
 1385 1474 1385 1474 1441.5 1432.5 c 128,-1,57
 1498 1391 1498 1391 1532 1329 c 128,-1,58
 1566 1267 1566 1267 1566 1180 c 2,59,-1
 1566 342 l 2,60,61
 1566 254 1566 254 1534.5 192 c 128,-1,62
 1503 130 1503 130 1449 88 c 128,-1,63
 1395 46 1395 46 1323 21 c 128,-1,64
 1251 -4 1251 -4 1171 -17 c 128,-1,65
 1091 -30 1091 -30 1007 -34 c 128,-1,66
 923 -38 923 -38 845 -38 c 0,37,38
EndSplineSet
EndChar

StartChar: Ocircumflex
Encoding: 212 212 146
Width: 1704
Flags: W
LayerCount: 2
Fore
SplineSet
700 2179 m 2,0,1
 721 2208 721 2208 762 2223.5 c 128,-1,2
 803 2239 803 2239 849 2239 c 0,3,4
 892 2239 892 2239 932 2225 c 128,-1,5
 972 2211 972 2211 995 2179 c 2,6,-1
 1269 1779 l 2,7,8
 1286 1753 1286 1753 1288 1736 c 1,9,10
 1288 1718 1288 1718 1268.5 1706.5 c 128,-1,11
 1249 1695 1249 1695 1222 1695 c 0,12,13
 1184 1695 1184 1695 1162 1712 c 2,14,-1
 848 1942 l 1,15,-1
 532 1712 l 2,16,17
 511 1697 511 1697 481 1697 c 0,18,19
 452 1697 452 1697 430 1707 c 128,-1,20
 408 1717 408 1717 408 1737 c 1,21,22
 407 1745 407 1745 412 1755 c 128,-1,23
 417 1765 417 1765 427 1779 c 2,24,-1
 700 2179 l 2,0,1
939 192 m 1,25,-1
 939 1331 l 1,26,-1
 759 1331 l 1,27,-1
 759 192 l 1,28,-1
 939 192 l 1,25,-1
845 -38 m 0,29,30
 762 -38 762 -38 676.5 -34.5 c 128,-1,31
 591 -31 591 -31 511 -18 c 128,-1,32
 431 -5 431 -5 361.5 19.5 c 128,-1,33
 292 44 292 44 240 86.5 c 128,-1,34
 188 129 188 129 158 191.5 c 128,-1,35
 128 254 128 254 128 342 c 2,36,-1
 128 1180 l 2,37,38
 128 1266 128 1266 159.5 1327.5 c 128,-1,39
 191 1389 191 1389 244.5 1431 c 128,-1,40
 298 1473 298 1473 369 1497.5 c 128,-1,41
 440 1522 440 1522 519.5 1535 c 128,-1,42
 599 1548 599 1548 682.5 1552 c 128,-1,43
 766 1556 766 1556 845 1556 c 0,44,45
 916 1556 916 1556 997 1552.5 c 128,-1,46
 1078 1549 1078 1549 1158 1536 c 128,-1,47
 1238 1523 1238 1523 1311.5 1498.5 c 128,-1,48
 1385 1474 1385 1474 1441.5 1432.5 c 128,-1,49
 1498 1391 1498 1391 1532 1329 c 128,-1,50
 1566 1267 1566 1267 1566 1180 c 2,51,-1
 1566 342 l 2,52,53
 1566 254 1566 254 1534.5 192 c 128,-1,54
 1503 130 1503 130 1449 88 c 128,-1,55
 1395 46 1395 46 1323 21 c 128,-1,56
 1251 -4 1251 -4 1171 -17 c 128,-1,57
 1091 -30 1091 -30 1007 -34 c 128,-1,58
 923 -38 923 -38 845 -38 c 0,29,30
EndSplineSet
EndChar

StartChar: Otilde
Encoding: 213 213 147
Width: 1711
Flags: W
LayerCount: 2
Fore
SplineSet
1213 1720 m 1,0,1
 1212 1750 1212 1750 1205.5 1779 c 128,-1,2
 1199 1808 1199 1808 1185.5 1830.5 c 128,-1,3
 1172 1853 1172 1853 1150 1866.5 c 128,-1,4
 1128 1880 1128 1880 1097 1880 c 0,5,6
 1074 1880 1074 1880 1049.5 1868 c 128,-1,7
 1025 1856 1025 1856 1007 1841 c 2,8,-1
 990 1827 l 1,9,10
 955 1801 955 1801 917.5 1777.5 c 128,-1,11
 880 1754 880 1754 834 1735.5 c 128,-1,12
 788 1717 788 1717 733 1706 c 128,-1,13
 678 1695 678 1695 609 1695 c 0,14,15
 516 1695 516 1695 449.5 1714 c 128,-1,16
 383 1733 383 1733 336 1769 c 128,-1,17
 289 1805 289 1805 260 1858 c 128,-1,18
 231 1911 231 1911 213 1980 c 0,19,20
 201 2027 201 2027 193.5 2080.5 c 128,-1,21
 186 2134 186 2134 186 2194 c 1,22,-1
 495 2194 l 1,23,24
 495 2162 495 2162 500.5 2132.5 c 128,-1,25
 506 2103 506 2103 519 2080.5 c 128,-1,26
 532 2058 532 2058 554.5 2044 c 128,-1,27
 577 2030 577 2030 610 2030 c 0,28,29
 637 2030 637 2030 664 2045 c 128,-1,30
 691 2060 691 2060 714 2078 c 0,31,32
 714 2079 714 2079 715 2079 c 256,33,34
 716 2079 716 2079 718 2080 c 1,35,-1
 718 2081 l 1,36,37
 755 2106 755 2106 793 2130.5 c 128,-1,38
 831 2155 831 2155 876 2174.5 c 128,-1,39
 921 2194 921 2194 974 2206 c 128,-1,40
 1027 2218 1027 2218 1094 2218 c 0,41,42
 1188 2218 1188 2218 1256 2203 c 128,-1,43
 1324 2188 1324 2188 1371 2159 c 128,-1,44
 1418 2130 1418 2130 1446.5 2087 c 128,-1,45
 1475 2044 1475 2044 1491 1989 c 128,-1,46
 1507 1934 1507 1934 1512 1866.5 c 128,-1,47
 1517 1799 1517 1799 1517 1720 c 1,48,-1
 1213 1720 l 1,0,1
1210 1688 m 1,49,-1
 1210 1713 l 1,50,-1
 1213 1707 l 1,51,-1
 1213 1694 l 1,52,-1
 1210 1688 l 1,49,-1
943 192 m 1,53,-1
 943 1331 l 1,54,-1
 763 1331 l 1,55,-1
 763 192 l 1,56,-1
 943 192 l 1,53,-1
849 -38 m 0,57,58
 766 -38 766 -38 680.5 -34.5 c 128,-1,59
 595 -31 595 -31 515 -18 c 128,-1,60
 435 -5 435 -5 365.5 19.5 c 128,-1,61
 296 44 296 44 244 86.5 c 128,-1,62
 192 129 192 129 162 191.5 c 128,-1,63
 132 254 132 254 132 342 c 2,64,-1
 132 1180 l 2,65,66
 132 1266 132 1266 163.5 1327.5 c 128,-1,67
 195 1389 195 1389 248.5 1431 c 128,-1,68
 302 1473 302 1473 373 1497.5 c 128,-1,69
 444 1522 444 1522 523.5 1535 c 128,-1,70
 603 1548 603 1548 686.5 1552 c 128,-1,71
 770 1556 770 1556 849 1556 c 0,72,73
 920 1556 920 1556 1001 1552.5 c 128,-1,74
 1082 1549 1082 1549 1162 1536 c 128,-1,75
 1242 1523 1242 1523 1315.5 1498.5 c 128,-1,76
 1389 1474 1389 1474 1445.5 1432.5 c 128,-1,77
 1502 1391 1502 1391 1536 1329 c 128,-1,78
 1570 1267 1570 1267 1570 1180 c 2,79,-1
 1570 342 l 2,80,81
 1570 254 1570 254 1538.5 192 c 128,-1,82
 1507 130 1507 130 1453 88 c 128,-1,83
 1399 46 1399 46 1327 21 c 128,-1,84
 1255 -4 1255 -4 1175 -17 c 128,-1,85
 1095 -30 1095 -30 1011 -34 c 128,-1,86
 927 -38 927 -38 849 -38 c 0,57,58
EndSplineSet
EndChar

StartChar: Odieresis
Encoding: 214 214 148
Width: 1709
Flags: W
LayerCount: 2
Fore
SplineSet
728 1695 m 1,0,-1
 261 1695 l 1,1,-1
 261 1984 l 1,2,-1
 728 1984 l 1,3,-1
 728 1695 l 1,0,-1
1439 1695 m 1,4,-1
 971 1695 l 1,5,-1
 971 1984 l 1,6,-1
 1439 1984 l 1,7,-1
 1439 1695 l 1,4,-1
942 192 m 1,8,-1
 942 1331 l 1,9,-1
 762 1331 l 1,10,-1
 762 192 l 1,11,-1
 942 192 l 1,8,-1
848 -38 m 0,12,13
 765 -38 765 -38 679.5 -34.5 c 128,-1,14
 594 -31 594 -31 514 -18 c 128,-1,15
 434 -5 434 -5 364.5 19.5 c 128,-1,16
 295 44 295 44 243 86.5 c 128,-1,17
 191 129 191 129 161 191.5 c 128,-1,18
 131 254 131 254 131 342 c 2,19,-1
 131 1180 l 2,20,21
 131 1266 131 1266 162.5 1327.5 c 128,-1,22
 194 1389 194 1389 247.5 1431 c 128,-1,23
 301 1473 301 1473 372 1497.5 c 128,-1,24
 443 1522 443 1522 522.5 1535 c 128,-1,25
 602 1548 602 1548 685.5 1552 c 128,-1,26
 769 1556 769 1556 848 1556 c 0,27,28
 919 1556 919 1556 1000 1552.5 c 128,-1,29
 1081 1549 1081 1549 1161 1536 c 128,-1,30
 1241 1523 1241 1523 1314.5 1498.5 c 128,-1,31
 1388 1474 1388 1474 1444.5 1432.5 c 128,-1,32
 1501 1391 1501 1391 1535 1329 c 128,-1,33
 1569 1267 1569 1267 1569 1180 c 2,34,-1
 1569 342 l 2,35,36
 1569 254 1569 254 1537.5 192 c 128,-1,37
 1506 130 1506 130 1452 88 c 128,-1,38
 1398 46 1398 46 1326 21 c 128,-1,39
 1254 -4 1254 -4 1174 -17 c 128,-1,40
 1094 -30 1094 -30 1010 -34 c 128,-1,41
 926 -38 926 -38 848 -38 c 0,12,13
EndSplineSet
EndChar

StartChar: multiply
Encoding: 215 215 149
Width: 1361
Flags: W
LayerCount: 2
Fore
SplineSet
1029 628 m 1,0,-1
 1029 603 l 1,1,-1
 1284 347 l 1,2,-1
 934 -3 l 1,3,-1
 667 265 l 1,4,-1
 398 -3 l 1,5,-1
 50 347 l 1,6,-1
 305 603 l 1,7,-1
 305 629 l 1,8,9
 268 660 268 660 236 693.5 c 128,-1,10
 204 727 204 727 172 760 c 2,11,-1
 157 775 l 2,12,13
 128 803 128 803 102 829 c 128,-1,14
 76 855 76 855 50 885 c 1,15,-1
 398 1232 l 1,16,-1
 667 965 l 1,17,-1
 934 1232 l 1,18,-1
 1284 885 l 1,19,-1
 1029 628 l 1,0,-1
EndSplineSet
EndChar

StartChar: Oslash
Encoding: 216 216 150
Width: 1709
Flags: W
LayerCount: 2
Fore
SplineSet
847 -39 m 1,0,1
 716 -39 716 -39 606.5 -27 c 128,-1,2
 497 -15 497 -15 409 11 c 1,3,-1
 292 -169 l 1,4,-1
 167 -80 l 1,5,-1
 268 75 l 1,6,7
 201 120 201 120 165.5 185.5 c 128,-1,8
 130 251 130 251 130 342 c 2,9,-1
 130 1180 l 2,10,11
 130 1270 130 1270 162 1332 c 128,-1,12
 194 1394 194 1394 251 1434.5 c 128,-1,13
 308 1475 308 1475 386 1498.5 c 128,-1,14
 464 1522 464 1522 556 1537 c 1,15,16
 676 1555 676 1555 847 1555 c 0,17,18
 950 1555 950 1555 1042 1548 c 128,-1,19
 1134 1541 1134 1541 1215 1524 c 1,20,-1
 1360 1745 l 1,21,-1
 1479 1651 l 1,22,-1
 1366 1477 l 1,23,24
 1460 1435 1460 1435 1514.5 1363 c 128,-1,25
 1569 1291 1569 1291 1569 1180 c 2,26,-1
 1569 342 l 2,27,28
 1569 250 1569 250 1536.5 187.5 c 128,-1,29
 1504 125 1504 125 1446 83.5 c 128,-1,30
 1388 42 1388 42 1309.5 18.5 c 128,-1,31
 1231 -5 1231 -5 1138 -19 c 0,32,33
 1078 -29 1078 -29 1005.5 -33.5 c 128,-1,34
 933 -38 933 -38 847 -38 c 1,35,-1
 847 -39 l 1,0,1
941 192 m 1,36,-1
 941 826 l 1,37,-1
 761 550 l 1,38,-1
 761 192 l 1,39,-1
 941 192 l 1,36,-1
761 828 m 1,40,-1
 941 1104 l 1,41,-1
 941 1331 l 1,42,-1
 761 1331 l 1,43,-1
 761 828 l 1,40,-1
EndSplineSet
EndChar

StartChar: Ugrave
Encoding: 217 217 151
Width: 1727
Flags: W
LayerCount: 2
Fore
SplineSet
1244 1767 m 1,0,1
 1263 1752 1263 1752 1271.5 1740.5 c 128,-1,2
 1280 1729 1280 1729 1280 1723 c 0,3,4
 1280 1710 1280 1710 1260.5 1702.5 c 128,-1,5
 1241 1695 1241 1695 1215 1695 c 0,6,7
 1207 1695 1207 1695 1198.5 1696 c 128,-1,8
 1190 1697 1190 1697 1180 1700 c 0,9,10
 1126 1715 1126 1715 1066.5 1731.5 c 128,-1,11
 1007 1748 1007 1748 947.5 1764.5 c 128,-1,12
 888 1781 888 1781 830 1797 c 128,-1,13
 772 1813 772 1813 721 1828.5 c 128,-1,14
 670 1844 670 1844 628.5 1858.5 c 128,-1,15
 587 1873 587 1873 561 1886 c 1,16,17
 500 1921 500 1921 470.5 1964.5 c 128,-1,18
 441 2008 441 2008 441 2047 c 0,19,20
 441 2078 441 2078 454 2106 c 128,-1,21
 467 2134 467 2134 491 2155.5 c 128,-1,22
 515 2177 515 2177 548.5 2189.5 c 128,-1,23
 582 2202 582 2202 622 2202 c 0,24,25
 653 2202 653 2202 686 2193.5 c 128,-1,26
 719 2185 719 2185 751 2170 c 1,27,28
 781 2151 781 2151 826 2117.5 c 128,-1,29
 871 2084 871 2084 922.5 2043 c 128,-1,30
 974 2002 974 2002 1027.5 1957 c 128,-1,31
 1081 1912 1081 1912 1128 1871 c 2,32,-1
 1244 1768 l 1,33,-1
 1244 1767 l 1,0,1
950 191 m 1,34,-1
 950 1520 l 1,35,-1
 1579 1520 l 1,36,-1
 1579 342 l 2,37,38
 1579 255 1579 255 1547.5 193 c 128,-1,39
 1516 131 1516 131 1462 88.5 c 128,-1,40
 1408 46 1408 46 1336 21 c 128,-1,41
 1264 -4 1264 -4 1184 -17 c 128,-1,42
 1104 -30 1104 -30 1020 -34 c 128,-1,43
 936 -38 936 -38 858 -38 c 0,44,45
 786 -38 786 -38 704.5 -34 c 128,-1,46
 623 -30 623 -30 543.5 -17 c 128,-1,47
 464 -4 464 -4 391 21 c 128,-1,48
 318 46 318 46 262 88.5 c 128,-1,49
 206 131 206 131 173 193 c 128,-1,50
 140 255 140 255 140 343 c 2,51,-1
 140 1521 l 1,52,-1
 770 1521 l 1,53,-1
 770 191 l 1,54,-1
 950 191 l 1,34,-1
EndSplineSet
EndChar

StartChar: Uacute
Encoding: 218 218 152
Width: 1727
Flags: W
LayerCount: 2
Fore
SplineSet
594 1871 m 2,0,1
 641 1913 641 1913 693 1958 c 128,-1,2
 745 2003 745 2003 795.5 2043.5 c 128,-1,3
 846 2084 846 2084 891 2117 c 128,-1,4
 936 2150 936 2150 969 2170 c 1,5,6
 1001 2185 1001 2185 1033.5 2193.5 c 128,-1,7
 1066 2202 1066 2202 1098 2202 c 0,8,9
 1139 2202 1139 2202 1172.5 2189.5 c 128,-1,10
 1206 2177 1206 2177 1230 2155.5 c 128,-1,11
 1254 2134 1254 2134 1267 2106 c 128,-1,12
 1280 2078 1280 2078 1280 2047 c 0,13,14
 1280 2008 1280 2008 1249.5 1964.5 c 128,-1,15
 1219 1921 1219 1921 1159 1886 c 1,16,17
 1133 1873 1133 1873 1091 1858.5 c 128,-1,18
 1049 1844 1049 1844 997.5 1828.5 c 128,-1,19
 946 1813 946 1813 887.5 1796.5 c 128,-1,20
 829 1780 829 1780 769 1764 c 128,-1,21
 709 1748 709 1748 650 1731.5 c 128,-1,22
 591 1715 591 1715 539 1700 c 0,23,24
 531 1697 531 1697 523 1696 c 128,-1,25
 515 1695 515 1695 507 1695 c 0,26,27
 478 1695 478 1695 459.5 1702.5 c 128,-1,28
 441 1710 441 1710 441 1723 c 0,29,30
 441 1729 441 1729 448.5 1740.5 c 128,-1,31
 456 1752 456 1752 475 1768 c 2,32,-1
 594 1871 l 2,0,1
950 191 m 1,33,-1
 950 1520 l 1,34,-1
 1579 1520 l 1,35,-1
 1579 342 l 2,36,37
 1579 255 1579 255 1547.5 193 c 128,-1,38
 1516 131 1516 131 1462 88.5 c 128,-1,39
 1408 46 1408 46 1336 21 c 128,-1,40
 1264 -4 1264 -4 1184 -17 c 128,-1,41
 1104 -30 1104 -30 1020 -34 c 128,-1,42
 936 -38 936 -38 858 -38 c 0,43,44
 786 -38 786 -38 704.5 -34 c 128,-1,45
 623 -30 623 -30 543.5 -17 c 128,-1,46
 464 -4 464 -4 391 21 c 128,-1,47
 318 46 318 46 262 88.5 c 128,-1,48
 206 131 206 131 173 193 c 128,-1,49
 140 255 140 255 140 343 c 2,50,-1
 140 1521 l 1,51,-1
 770 1521 l 1,52,-1
 770 191 l 1,53,-1
 950 191 l 1,33,-1
EndSplineSet
EndChar

StartChar: Ucircumflex
Encoding: 219 219 153
Width: 1727
Flags: W
LayerCount: 2
Fore
SplineSet
712 2179 m 2,0,1
 733 2208 733 2208 774 2223.5 c 128,-1,2
 815 2239 815 2239 861 2239 c 0,3,4
 904 2239 904 2239 944 2225 c 128,-1,5
 984 2211 984 2211 1007 2179 c 2,6,-1
 1281 1779 l 2,7,8
 1298 1753 1298 1753 1300 1736 c 1,9,10
 1300 1718 1300 1718 1280.5 1706.5 c 128,-1,11
 1261 1695 1261 1695 1234 1695 c 0,12,13
 1197 1695 1197 1695 1174 1712 c 2,14,-1
 860 1942 l 1,15,-1
 544 1712 l 2,16,17
 523 1697 523 1697 494 1697 c 0,18,19
 464 1697 464 1697 442 1707.5 c 128,-1,20
 420 1718 420 1718 420 1737 c 1,21,22
 419 1745 419 1745 424 1755 c 128,-1,23
 429 1765 429 1765 439 1779 c 2,24,-1
 712 2179 l 2,0,1
950 191 m 1,25,-1
 950 1520 l 1,26,-1
 1579 1520 l 1,27,-1
 1579 342 l 2,28,29
 1579 255 1579 255 1547.5 193 c 128,-1,30
 1516 131 1516 131 1462 88.5 c 128,-1,31
 1408 46 1408 46 1336 21 c 128,-1,32
 1264 -4 1264 -4 1184 -17 c 128,-1,33
 1104 -30 1104 -30 1020 -34 c 128,-1,34
 936 -38 936 -38 858 -38 c 0,35,36
 786 -38 786 -38 704.5 -34 c 128,-1,37
 623 -30 623 -30 543.5 -17 c 128,-1,38
 464 -4 464 -4 391 21 c 128,-1,39
 318 46 318 46 262 88.5 c 128,-1,40
 206 131 206 131 173 193 c 128,-1,41
 140 255 140 255 140 343 c 2,42,-1
 140 1521 l 1,43,-1
 770 1521 l 1,44,-1
 770 191 l 1,45,-1
 950 191 l 1,25,-1
EndSplineSet
EndChar

StartChar: Udieresis
Encoding: 220 220 154
Width: 1730
Flags: W
LayerCount: 2
Fore
SplineSet
739 1695 m 1,0,-1
 272 1695 l 1,1,-1
 272 1984 l 1,2,-1
 739 1984 l 1,3,-1
 739 1695 l 1,0,-1
1452 1695 m 1,4,-1
 982 1695 l 1,5,-1
 982 1984 l 1,6,-1
 1452 1984 l 1,7,-1
 1452 1695 l 1,4,-1
952 191 m 1,8,-1
 952 1520 l 1,9,-1
 1581 1520 l 1,10,-1
 1581 342 l 2,11,12
 1581 255 1581 255 1549.5 193 c 128,-1,13
 1518 131 1518 131 1464 88.5 c 128,-1,14
 1410 46 1410 46 1338 21 c 128,-1,15
 1266 -4 1266 -4 1186 -17 c 128,-1,16
 1106 -30 1106 -30 1022 -34 c 128,-1,17
 938 -38 938 -38 860 -38 c 0,18,19
 788 -38 788 -38 706.5 -34 c 128,-1,20
 625 -30 625 -30 545.5 -17 c 128,-1,21
 466 -4 466 -4 393 21 c 128,-1,22
 320 46 320 46 264 88.5 c 128,-1,23
 208 131 208 131 175 193 c 128,-1,24
 142 255 142 255 142 343 c 2,25,-1
 142 1521 l 1,26,-1
 772 1521 l 1,27,-1
 772 191 l 1,28,-1
 952 191 l 1,8,-1
EndSplineSet
EndChar

StartChar: Yacute
Encoding: 221 221 155
Width: 1452
Flags: W
LayerCount: 2
Fore
SplineSet
703 777 m 1,0,-1
 703 759 l 1,1,-1
 734 759 l 1,2,-1
 734 777 l 1,3,-1
 742 866 l 2,4,5
 742 868 742 868 742.5 869 c 128,-1,6
 743 870 743 870 743 873 c 2,7,-1
 752 972 l 1,8,-1
 913 1521 l 1,9,-1
 1485 1521 l 1,10,-1
 1035 426 l 1,11,-1
 1035 0 l 1,12,-1
 406 0 l 1,13,-1
 406 435 l 1,14,-1
 -46 1521 l 1,15,-1
 529 1521 l 1,16,-1
 686 971 l 1,17,-1
 703 777 l 1,0,-1
454 1871 m 2,18,19
 501 1913 501 1913 553 1958 c 128,-1,20
 605 2003 605 2003 655.5 2043.5 c 128,-1,21
 706 2084 706 2084 751 2117 c 128,-1,22
 796 2150 796 2150 829 2170 c 1,23,24
 861 2185 861 2185 893.5 2193.5 c 128,-1,25
 926 2202 926 2202 958 2202 c 0,26,27
 999 2202 999 2202 1032.5 2189.5 c 128,-1,28
 1066 2177 1066 2177 1089.5 2155.5 c 128,-1,29
 1113 2134 1113 2134 1126 2106 c 128,-1,30
 1139 2078 1139 2078 1139 2047 c 0,31,32
 1139 2008 1139 2008 1109 1964.5 c 128,-1,33
 1079 1921 1079 1921 1019 1886 c 1,34,35
 993 1873 993 1873 951 1858.5 c 128,-1,36
 909 1844 909 1844 857.5 1828.5 c 128,-1,37
 806 1813 806 1813 747.5 1796.5 c 128,-1,38
 689 1780 689 1780 629 1764 c 128,-1,39
 569 1748 569 1748 510 1731.5 c 128,-1,40
 451 1715 451 1715 399 1700 c 0,41,42
 391 1697 391 1697 383 1696 c 128,-1,43
 375 1695 375 1695 367 1695 c 0,44,45
 338 1695 338 1695 319.5 1702.5 c 128,-1,46
 301 1710 301 1710 301 1723 c 0,47,48
 301 1729 301 1729 308.5 1740.5 c 128,-1,49
 316 1752 316 1752 335 1768 c 2,50,-1
 454 1871 l 2,18,19
EndSplineSet
EndChar

StartChar: Thorn
Encoding: 222 222 156
Width: 1690
Flags: W
LayerCount: 2
Fore
SplineSet
777 1525 m 1,0,-1
 777 1343 l 1,1,-1
 918 1343 l 2,2,3
 1050 1343 1050 1343 1165.5 1329.5 c 128,-1,4
 1281 1316 1281 1316 1368 1283.5 c 128,-1,5
 1455 1251 1455 1251 1507.5 1196.5 c 128,-1,6
 1560 1142 1560 1142 1567 1061 c 0,7,8
 1570 1020 1570 1020 1570 979 c 2,9,-1
 1570 608 l 2,10,11
 1570 563 1570 563 1566 522.5 c 128,-1,12
 1562 482 1562 482 1547 446 c 1,13,14
 1528 408 1528 408 1492.5 378.5 c 128,-1,15
 1457 349 1457 349 1410.5 326.5 c 128,-1,16
 1364 304 1364 304 1308.5 287.5 c 128,-1,17
 1253 271 1253 271 1195 261 c 1,18,19
 1138 253 1138 253 1069.5 248.5 c 128,-1,20
 1001 244 1001 244 918 244 c 2,21,-1
 777 244 l 1,22,-1
 777 0 l 1,23,-1
 151 0 l 1,24,-1
 151 1525 l 1,25,-1
 777 1525 l 1,0,-1
947 433 m 1,26,-1
 947 1155 l 1,27,-1
 777 1155 l 1,28,-1
 777 433 l 1,29,-1
 947 433 l 1,26,-1
EndSplineSet
EndChar

StartChar: germandbls
Encoding: 223 223 157
Width: 1538
Flags: W
LayerCount: 2
Fore
SplineSet
141 -199 m 1,0,-1
 141 1169 l 2,1,2
 141 1278 141 1278 189 1347 c 128,-1,3
 237 1416 237 1416 322.5 1454.5 c 128,-1,4
 408 1493 408 1493 525 1507 c 128,-1,5
 642 1521 642 1521 781 1521 c 0,6,7
 881 1521 881 1521 969 1509.5 c 128,-1,8
 1057 1498 1057 1498 1127.5 1471 c 128,-1,9
 1198 1444 1198 1444 1248 1400.5 c 128,-1,10
 1298 1357 1298 1357 1323 1294 c 1,11,12
 1337 1256 1337 1256 1342 1212 c 128,-1,13
 1347 1168 1347 1168 1347 1125 c 0,14,15
 1347 1062 1347 1062 1326.5 1013 c 128,-1,16
 1306 964 1306 964 1268.5 929 c 128,-1,17
 1231 894 1231 894 1179 874 c 128,-1,18
 1127 854 1127 854 1063 850 c 1,19,-1
 1063 811 l 1,20,21
 1144 807 1144 807 1210 784.5 c 128,-1,22
 1276 762 1276 762 1322.5 724.5 c 128,-1,23
 1369 687 1369 687 1394 635.5 c 128,-1,24
 1419 584 1419 584 1419 521 c 2,25,-1
 1419 233 l 2,26,27
 1419 163 1419 163 1393 117.5 c 128,-1,28
 1367 72 1367 72 1320.5 43.5 c 128,-1,29
 1274 15 1274 15 1211 0 c 128,-1,30
 1148 -15 1148 -15 1074 -24 c 0,31,32
 978 -36 978 -36 845 -36 c 2,33,-1
 757 -36 l 1,34,-1
 757 151 l 1,35,-1
 903 151 l 1,36,-1
 903 733 l 1,37,-1
 785 733 l 1,38,-1
 785 919 l 1,39,-1
 903 919 l 1,40,-1
 903 1327 l 1,41,-1
 657 1327 l 1,42,-1
 657 -199 l 1,43,-1
 141 -199 l 1,0,-1
EndSplineSet
EndChar

StartChar: agrave
Encoding: 224 224 158
Width: 1578
Flags: W
LayerCount: 2
Fore
SplineSet
1162 1468 m 1,0,1
 1197 1440 1197 1440 1197 1426 c 256,2,3
 1197 1412 1197 1412 1178 1404.5 c 128,-1,4
 1159 1397 1159 1397 1132 1397 c 0,5,6
 1112 1397 1112 1397 1098 1402 c 2,7,-1
 1050 1416 l 1,8,9
 969 1438 969 1438 881.5 1461 c 128,-1,10
 794 1484 794 1484 715.5 1506.5 c 128,-1,11
 637 1529 637 1529 574 1550 c 128,-1,12
 511 1571 511 1571 478 1589 c 0,13,14
 415 1623 415 1623 386.5 1667 c 128,-1,15
 358 1711 358 1711 358 1750 c 0,16,17
 358 1781 358 1781 371 1809 c 128,-1,18
 384 1837 384 1837 408 1858.5 c 128,-1,19
 432 1880 432 1880 465 1892.5 c 128,-1,20
 498 1905 498 1905 539 1905 c 0,21,22
 569 1905 569 1905 603.5 1896.5 c 128,-1,23
 638 1888 638 1888 668 1872 c 0,24,25
 700 1855 700 1855 745 1821.5 c 128,-1,26
 790 1788 790 1788 841 1746.5 c 128,-1,27
 892 1705 892 1705 944.5 1659.5 c 128,-1,28
 997 1614 997 1614 1044 1573 c 2,29,-1
 1162 1470 l 1,30,-1
 1162 1468 l 1,0,1
1442 232 m 1,31,32
 1443 157 1443 157 1449.5 100 c 128,-1,33
 1456 43 1456 43 1466 1 c 1,34,-1
 925 1 l 1,35,-1
 875 127 l 1,36,37
 829 56 829 56 739.5 15.5 c 128,-1,38
 650 -25 650 -25 519 -25 c 0,39,40
 296 -25 296 -25 188.5 69 c 128,-1,41
 81 163 81 163 81 361 c 0,42,43
 81 574 81 574 206 671 c 128,-1,44
 331 768 331 768 573 768 c 0,45,46
 657 768 657 768 724.5 756 c 128,-1,47
 792 744 792 744 849 727 c 1,48,-1
 849 1081 l 1,49,-1
 706 1081 l 1,50,-1
 706 895 l 1,51,-1
 155 876 l 1,52,53
 152 895 152 895 149.5 915 c 128,-1,54
 147 935 147 935 147 963 c 0,55,56
 147 1031 147 1031 176.5 1080 c 128,-1,57
 206 1129 206 1129 255.5 1162 c 128,-1,58
 305 1195 305 1195 369.5 1214.5 c 128,-1,59
 434 1234 434 1234 503.5 1244 c 128,-1,60
 573 1254 573 1254 643.5 1257 c 128,-1,61
 714 1260 714 1260 775 1260 c 0,62,63
 855 1260 855 1260 935.5 1256.5 c 128,-1,64
 1016 1253 1016 1253 1090 1241.5 c 128,-1,65
 1164 1230 1164 1230 1228.5 1207.5 c 128,-1,66
 1293 1185 1293 1185 1340.5 1146 c 128,-1,67
 1388 1107 1388 1107 1415 1049.5 c 128,-1,68
 1442 992 1442 992 1442 911 c 2,69,-1
 1442 232 l 1,31,32
849 157 m 1,70,-1
 849 639 l 1,71,-1
 676 639 l 1,72,-1
 676 157 l 1,73,-1
 849 157 l 1,70,-1
EndSplineSet
EndChar

StartChar: aacute
Encoding: 225 225 159
Width: 1579
Flags: W
LayerCount: 2
Fore
SplineSet
511 1573 m 2,0,1
 559 1615 559 1615 611.5 1659.5 c 128,-1,2
 664 1704 664 1704 714.5 1744.5 c 128,-1,3
 765 1785 765 1785 810 1818.5 c 128,-1,4
 855 1852 855 1852 888 1872 c 1,5,6
 919 1887 919 1887 952 1896 c 128,-1,7
 985 1905 985 1905 1017 1905 c 0,8,9
 1057 1905 1057 1905 1090 1892.5 c 128,-1,10
 1123 1880 1123 1880 1147 1858.5 c 128,-1,11
 1171 1837 1171 1837 1184.5 1809 c 128,-1,12
 1198 1781 1198 1781 1198 1750 c 0,13,14
 1198 1710 1198 1710 1169.5 1667 c 128,-1,15
 1141 1624 1141 1624 1078 1589 c 0,16,17
 1053 1575 1053 1575 1004.5 1558 c 128,-1,18
 956 1541 956 1541 894.5 1522.5 c 128,-1,19
 833 1504 833 1504 764 1485.5 c 128,-1,20
 695 1467 695 1467 630 1449 c 2,21,-1
 570 1433 l 2,22,23
 535 1423 535 1423 495.5 1410 c 128,-1,24
 456 1397 456 1397 425 1397 c 0,25,26
 398 1397 398 1397 378.5 1404.5 c 128,-1,27
 359 1412 359 1412 359 1426 c 0,28,29
 359 1433 359 1433 368 1444 c 128,-1,30
 377 1455 377 1455 394 1470 c 2,31,-1
 511 1573 l 2,0,1
1443 232 m 1,32,33
 1444 157 1444 157 1450.5 100 c 128,-1,34
 1457 43 1457 43 1467 1 c 1,35,-1
 926 1 l 1,36,-1
 876 127 l 1,37,38
 830 56 830 56 740.5 15.5 c 128,-1,39
 651 -25 651 -25 520 -25 c 0,40,41
 297 -25 297 -25 189.5 69 c 128,-1,42
 82 163 82 163 82 361 c 0,43,44
 82 574 82 574 207 671 c 128,-1,45
 332 768 332 768 574 768 c 0,46,47
 658 768 658 768 725.5 756 c 128,-1,48
 793 744 793 744 850 727 c 1,49,-1
 850 1081 l 1,50,-1
 707 1081 l 1,51,-1
 707 895 l 1,52,-1
 156 876 l 1,53,54
 153 895 153 895 150.5 915 c 128,-1,55
 148 935 148 935 148 963 c 0,56,57
 148 1031 148 1031 177.5 1080 c 128,-1,58
 207 1129 207 1129 256.5 1162 c 128,-1,59
 306 1195 306 1195 370.5 1214.5 c 128,-1,60
 435 1234 435 1234 504.5 1244 c 128,-1,61
 574 1254 574 1254 644.5 1257 c 128,-1,62
 715 1260 715 1260 776 1260 c 0,63,64
 856 1260 856 1260 936.5 1256.5 c 128,-1,65
 1017 1253 1017 1253 1091 1241.5 c 128,-1,66
 1165 1230 1165 1230 1229.5 1207.5 c 128,-1,67
 1294 1185 1294 1185 1341.5 1146 c 128,-1,68
 1389 1107 1389 1107 1416 1049.5 c 128,-1,69
 1443 992 1443 992 1443 911 c 2,70,-1
 1443 232 l 1,32,33
850 157 m 1,71,-1
 850 639 l 1,72,-1
 677 639 l 1,73,-1
 677 157 l 1,74,-1
 850 157 l 1,71,-1
EndSplineSet
EndChar

StartChar: acircumflex
Encoding: 226 226 160
Width: 1579
Flags: W
LayerCount: 2
Fore
SplineSet
631 1881 m 2,0,1
 652 1910 652 1910 692.5 1926 c 128,-1,2
 733 1942 733 1942 778 1942 c 256,3,4
 823 1942 823 1942 862.5 1927.5 c 128,-1,5
 902 1913 902 1913 925 1881 c 2,6,-1
 1199 1481 l 2,7,8
 1216 1455 1216 1455 1218 1440 c 1,9,10
 1218 1422 1218 1422 1198.5 1409.5 c 128,-1,11
 1179 1397 1179 1397 1153 1397 c 0,12,13
 1133 1397 1133 1397 1119 1401.5 c 128,-1,14
 1105 1406 1105 1406 1093 1415 c 2,15,-1
 777 1644 l 1,16,-1
 463 1415 l 2,17,18
 441 1399 441 1399 411 1399 c 0,19,20
 382 1399 382 1399 359.5 1410 c 128,-1,21
 337 1421 337 1421 337 1441 c 0,22,23
 337 1454 337 1454 357 1480 c 1,24,-1
 357 1481 l 1,25,-1
 631 1881 l 2,0,1
1443 232 m 1,26,27
 1444 157 1444 157 1450.5 100 c 128,-1,28
 1457 43 1457 43 1467 1 c 1,29,-1
 926 1 l 1,30,-1
 876 127 l 1,31,32
 830 56 830 56 740.5 15.5 c 128,-1,33
 651 -25 651 -25 520 -25 c 0,34,35
 297 -25 297 -25 189.5 69 c 128,-1,36
 82 163 82 163 82 361 c 0,37,38
 82 574 82 574 207 671 c 128,-1,39
 332 768 332 768 574 768 c 0,40,41
 658 768 658 768 725.5 756 c 128,-1,42
 793 744 793 744 850 727 c 1,43,-1
 850 1081 l 1,44,-1
 707 1081 l 1,45,-1
 707 895 l 1,46,-1
 156 876 l 1,47,48
 153 895 153 895 150.5 915 c 128,-1,49
 148 935 148 935 148 963 c 0,50,51
 148 1031 148 1031 177.5 1080 c 128,-1,52
 207 1129 207 1129 256.5 1162 c 128,-1,53
 306 1195 306 1195 370.5 1214.5 c 128,-1,54
 435 1234 435 1234 504.5 1244 c 128,-1,55
 574 1254 574 1254 644.5 1257 c 128,-1,56
 715 1260 715 1260 776 1260 c 0,57,58
 856 1260 856 1260 936.5 1256.5 c 128,-1,59
 1017 1253 1017 1253 1091 1241.5 c 128,-1,60
 1165 1230 1165 1230 1229.5 1207.5 c 128,-1,61
 1294 1185 1294 1185 1341.5 1146 c 128,-1,62
 1389 1107 1389 1107 1416 1049.5 c 128,-1,63
 1443 992 1443 992 1443 911 c 2,64,-1
 1443 232 l 1,26,27
850 157 m 1,65,-1
 850 639 l 1,66,-1
 677 639 l 1,67,-1
 677 157 l 1,68,-1
 850 157 l 1,65,-1
EndSplineSet
EndChar

StartChar: atilde
Encoding: 227 227 161
Width: 1604
Flags: W
LayerCount: 2
Fore
SplineSet
1152 1422 m 1,0,1
 1151 1452 1151 1452 1144.5 1481 c 128,-1,2
 1138 1510 1138 1510 1124 1532.5 c 128,-1,3
 1110 1555 1110 1555 1088.5 1568.5 c 128,-1,4
 1067 1582 1067 1582 1036 1582 c 0,5,6
 1009 1582 1009 1582 983.5 1568 c 128,-1,7
 958 1554 958 1554 939 1539 c 2,8,-1
 929 1531 l 2,9,10
 895 1505 895 1505 857 1481 c 128,-1,11
 819 1457 819 1457 773.5 1438 c 128,-1,12
 728 1419 728 1419 672.5 1408 c 128,-1,13
 617 1397 617 1397 548 1397 c 0,14,15
 455 1397 455 1397 388 1416 c 128,-1,16
 321 1435 321 1435 274.5 1471.5 c 128,-1,17
 228 1508 228 1508 198.5 1561.5 c 128,-1,18
 169 1615 169 1615 152 1684 c 1,19,20
 139 1729 139 1729 132 1783 c 128,-1,21
 125 1837 125 1837 125 1897 c 1,22,-1
 431 1897 l 1,23,24
 431 1865 431 1865 437 1835.5 c 128,-1,25
 443 1806 443 1806 456.5 1783 c 128,-1,26
 470 1760 470 1760 493 1746 c 128,-1,27
 516 1732 516 1732 549 1732 c 0,28,29
 576 1732 576 1732 602 1747 c 128,-1,30
 628 1762 628 1762 650 1778 c 2,31,-1
 661 1786 l 1,32,33
 696 1810 696 1810 734 1834.5 c 128,-1,34
 772 1859 772 1859 816.5 1878.5 c 128,-1,35
 861 1898 861 1898 914.5 1910 c 128,-1,36
 968 1922 968 1922 1033 1922 c 0,37,38
 1127 1922 1127 1922 1194.5 1907 c 128,-1,39
 1262 1892 1262 1892 1309 1862.5 c 128,-1,40
 1356 1833 1356 1833 1384.5 1790 c 128,-1,41
 1413 1747 1413 1747 1429 1691.5 c 128,-1,42
 1445 1636 1445 1636 1450 1568.5 c 128,-1,43
 1455 1501 1455 1501 1455 1422 c 1,44,-1
 1152 1422 l 1,0,1
1148 1390 m 1,45,-1
 1148 1422 l 1,46,-1
 1152 1422 l 1,47,-1
 1152 1396 l 1,48,-1
 1148 1390 l 1,45,-1
1455 232 m 1,49,50
 1456 157 1456 157 1462.5 100 c 128,-1,51
 1469 43 1469 43 1479 1 c 1,52,-1
 938 1 l 1,53,-1
 888 127 l 1,54,55
 842 56 842 56 752.5 15.5 c 128,-1,56
 663 -25 663 -25 532 -25 c 0,57,58
 309 -25 309 -25 201.5 69 c 128,-1,59
 94 163 94 163 94 361 c 0,60,61
 94 574 94 574 219 671 c 128,-1,62
 344 768 344 768 586 768 c 0,63,64
 670 768 670 768 737.5 756 c 128,-1,65
 805 744 805 744 862 727 c 1,66,-1
 862 1081 l 1,67,-1
 719 1081 l 1,68,-1
 719 895 l 1,69,-1
 168 876 l 1,70,71
 165 895 165 895 162.5 915 c 128,-1,72
 160 935 160 935 160 963 c 0,73,74
 160 1031 160 1031 189.5 1080 c 128,-1,75
 219 1129 219 1129 268.5 1162 c 128,-1,76
 318 1195 318 1195 382.5 1214.5 c 128,-1,77
 447 1234 447 1234 516.5 1244 c 128,-1,78
 586 1254 586 1254 656.5 1257 c 128,-1,79
 727 1260 727 1260 788 1260 c 0,80,81
 868 1260 868 1260 948.5 1256.5 c 128,-1,82
 1029 1253 1029 1253 1103 1241.5 c 128,-1,83
 1177 1230 1177 1230 1241.5 1207.5 c 128,-1,84
 1306 1185 1306 1185 1353.5 1146 c 128,-1,85
 1401 1107 1401 1107 1428 1049.5 c 128,-1,86
 1455 992 1455 992 1455 911 c 2,87,-1
 1455 232 l 1,49,50
862 157 m 1,88,-1
 862 639 l 1,89,-1
 689 639 l 1,90,-1
 689 157 l 1,91,-1
 862 157 l 1,88,-1
EndSplineSet
EndChar

StartChar: adieresis
Encoding: 228 228 162
Width: 1598
Flags: W
LayerCount: 2
Fore
SplineSet
669 1397 m 1,0,-1
 202 1397 l 1,1,-1
 202 1687 l 1,2,-1
 669 1687 l 1,3,-1
 669 1397 l 1,0,-1
1380 1397 m 1,4,-1
 912 1397 l 1,5,-1
 912 1687 l 1,6,-1
 1380 1687 l 1,7,-1
 1380 1397 l 1,4,-1
1455 232 m 1,8,9
 1456 157 1456 157 1462.5 100 c 128,-1,10
 1469 43 1469 43 1479 1 c 1,11,-1
 938 1 l 1,12,-1
 888 127 l 1,13,14
 842 56 842 56 752.5 15.5 c 128,-1,15
 663 -25 663 -25 532 -25 c 0,16,17
 309 -25 309 -25 201.5 69 c 128,-1,18
 94 163 94 163 94 361 c 0,19,20
 94 574 94 574 219 671 c 128,-1,21
 344 768 344 768 586 768 c 0,22,23
 670 768 670 768 737.5 756 c 128,-1,24
 805 744 805 744 862 727 c 1,25,-1
 862 1081 l 1,26,-1
 719 1081 l 1,27,-1
 719 895 l 1,28,-1
 168 876 l 1,29,30
 165 895 165 895 162.5 915 c 128,-1,31
 160 935 160 935 160 963 c 0,32,33
 160 1031 160 1031 189.5 1080 c 128,-1,34
 219 1129 219 1129 268.5 1162 c 128,-1,35
 318 1195 318 1195 382.5 1214.5 c 128,-1,36
 447 1234 447 1234 516.5 1244 c 128,-1,37
 586 1254 586 1254 656.5 1257 c 128,-1,38
 727 1260 727 1260 788 1260 c 0,39,40
 868 1260 868 1260 948.5 1256.5 c 128,-1,41
 1029 1253 1029 1253 1103 1241.5 c 128,-1,42
 1177 1230 1177 1230 1241.5 1207.5 c 128,-1,43
 1306 1185 1306 1185 1353.5 1146 c 128,-1,44
 1401 1107 1401 1107 1428 1049.5 c 128,-1,45
 1455 992 1455 992 1455 911 c 2,46,-1
 1455 232 l 1,8,9
862 157 m 1,47,-1
 862 639 l 1,48,-1
 689 639 l 1,49,-1
 689 157 l 1,50,-1
 862 157 l 1,47,-1
EndSplineSet
EndChar

StartChar: aring
Encoding: 229 229 163
Width: 1577
Flags: W
LayerCount: 2
Fore
SplineSet
429 1691 m 0,0,1
 429 1760 429 1760 460.5 1814.5 c 128,-1,2
 492 1869 492 1869 542 1907 c 128,-1,3
 592 1945 592 1945 653.5 1965.5 c 128,-1,4
 715 1986 715 1986 775 1986 c 0,5,6
 859 1986 859 1986 923.5 1960.5 c 128,-1,7
 988 1935 988 1935 1032 1893.5 c 128,-1,8
 1076 1852 1076 1852 1098.5 1799 c 128,-1,9
 1121 1746 1121 1746 1121 1691 c 0,10,11
 1121 1623 1121 1623 1089.5 1568.5 c 128,-1,12
 1058 1514 1058 1514 1008.5 1476 c 128,-1,13
 959 1438 959 1438 897 1417.5 c 128,-1,14
 835 1397 835 1397 775 1397 c 0,15,16
 691 1397 691 1397 626 1423 c 128,-1,17
 561 1449 561 1449 517.5 1491 c 128,-1,18
 474 1533 474 1533 451.5 1585.5 c 128,-1,19
 429 1638 429 1638 429 1691 c 0,0,1
773 1828 m 256,20,21
 746 1828 746 1828 723.5 1817.5 c 128,-1,22
 701 1807 701 1807 684 1789 c 128,-1,23
 667 1771 667 1771 657.5 1746 c 128,-1,24
 648 1721 648 1721 648 1691 c 0,25,26
 648 1662 648 1662 658 1637 c 128,-1,27
 668 1612 668 1612 685 1593.5 c 128,-1,28
 702 1575 702 1575 724.5 1564 c 128,-1,29
 747 1553 747 1553 773 1553 c 256,30,31
 799 1553 799 1553 822 1564 c 128,-1,32
 845 1575 845 1575 862.5 1594 c 128,-1,33
 880 1613 880 1613 890 1638 c 128,-1,34
 900 1663 900 1663 900 1691 c 0,35,36
 900 1720 900 1720 890 1745 c 128,-1,37
 880 1770 880 1770 863 1788.5 c 128,-1,38
 846 1807 846 1807 823 1817.5 c 128,-1,39
 800 1828 800 1828 773 1828 c 256,20,21
1441 232 m 1,40,41
 1442 157 1442 157 1448.5 100 c 128,-1,42
 1455 43 1455 43 1465 1 c 1,43,-1
 924 1 l 1,44,-1
 874 127 l 1,45,46
 828 56 828 56 738.5 15.5 c 128,-1,47
 649 -25 649 -25 518 -25 c 0,48,49
 295 -25 295 -25 187.5 69 c 128,-1,50
 80 163 80 163 80 361 c 0,51,52
 80 574 80 574 205 671 c 128,-1,53
 330 768 330 768 572 768 c 0,54,55
 656 768 656 768 723.5 756 c 128,-1,56
 791 744 791 744 848 727 c 1,57,-1
 848 1081 l 1,58,-1
 705 1081 l 1,59,-1
 705 895 l 1,60,-1
 154 876 l 1,61,62
 151 895 151 895 148.5 915 c 128,-1,63
 146 935 146 935 146 963 c 0,64,65
 146 1031 146 1031 175.5 1080 c 128,-1,66
 205 1129 205 1129 254.5 1162 c 128,-1,67
 304 1195 304 1195 368.5 1214.5 c 128,-1,68
 433 1234 433 1234 502.5 1244 c 128,-1,69
 572 1254 572 1254 642.5 1257 c 128,-1,70
 713 1260 713 1260 774 1260 c 0,71,72
 854 1260 854 1260 934.5 1256.5 c 128,-1,73
 1015 1253 1015 1253 1089 1241.5 c 128,-1,74
 1163 1230 1163 1230 1227.5 1207.5 c 128,-1,75
 1292 1185 1292 1185 1339.5 1146 c 128,-1,76
 1387 1107 1387 1107 1414 1049.5 c 128,-1,77
 1441 992 1441 992 1441 911 c 2,78,-1
 1441 232 l 1,40,41
848 157 m 1,79,-1
 848 639 l 1,80,-1
 675 639 l 1,81,-1
 675 157 l 1,82,-1
 848 157 l 1,79,-1
EndSplineSet
EndChar

StartChar: ae
Encoding: 230 230 164
Width: 2298
Flags: W
LayerCount: 2
Fore
SplineSet
766 1275 m 0,0,1
 877 1275 877 1275 972 1255 c 128,-1,2
 1067 1235 1067 1235 1129 1200 c 1,3,4
 1195 1236 1195 1236 1292 1256.5 c 128,-1,5
 1389 1277 1389 1277 1501 1277 c 0,6,7
 1633 1277 1633 1277 1749 1263.5 c 128,-1,8
 1865 1250 1865 1250 1954.5 1217.5 c 128,-1,9
 2044 1185 2044 1185 2099.5 1131 c 128,-1,10
 2155 1077 2155 1077 2166 995 c 0,11,12
 2168 974 2168 974 2169 953.5 c 128,-1,13
 2170 933 2170 933 2170 915 c 2,14,-1
 2170 592 l 1,15,-1
 1426 592 l 1,16,-1
 1426 208 l 1,17,-1
 1576 208 l 1,18,-1
 1576 452 l 1,19,-1
 2169 452 l 1,20,-1
 2169 326 l 1,21,22
 2166 212 2166 212 2112 141.5 c 128,-1,23
 2058 71 2058 71 1966.5 32 c 128,-1,24
 1875 -7 1875 -7 1754 -21 c 128,-1,25
 1633 -35 1633 -35 1497 -35 c 0,26,27
 1378 -35 1378 -35 1287.5 -4.5 c 128,-1,28
 1197 26 1197 26 1134 71 c 1,29,-1
 1134 72 l 1,30,31
 1037 24 1037 24 903.5 -5.5 c 128,-1,32
 770 -35 770 -35 612 -35 c 0,33,34
 480 -35 480 -35 381 -8 c 128,-1,35
 282 19 282 19 215.5 70 c 128,-1,36
 149 121 149 121 116 194.5 c 128,-1,37
 83 268 83 268 83 361 c 0,38,39
 83 573 83 573 206.5 670.5 c 128,-1,40
 330 768 330 768 572 768 c 0,41,42
 653 768 653 768 715 756 c 128,-1,43
 777 744 777 744 831 727 c 1,44,-1
 831 1030 l 1,45,-1
 704 1030 l 1,46,-1
 704 895 l 1,47,48
 701 895 701 895 698 894.5 c 128,-1,49
 695 894 695 894 692 894 c 2,50,-1
 468 885 l 2,51,52
 465 885 465 885 461.5 884.5 c 128,-1,53
 458 884 458 884 455 884 c 0,54,55
 449 884 449 884 443 884.5 c 128,-1,56
 437 885 437 885 430 885 c 2,57,-1
 195 876 l 2,58,59
 190 876 190 876 184.5 875.5 c 128,-1,60
 179 875 179 875 174 875 c 2,61,-1
 154 875 l 1,62,63
 151 894 151 894 148.5 914 c 128,-1,64
 146 934 146 934 146 963 c 0,65,66
 146 1028 146 1028 171 1077 c 128,-1,67
 196 1126 196 1126 239.5 1160.5 c 128,-1,68
 283 1195 283 1195 342.5 1217.5 c 128,-1,69
 402 1240 402 1240 471 1252.5 c 128,-1,70
 540 1265 540 1265 615 1270 c 128,-1,71
 690 1275 690 1275 766 1275 c 0,0,1
831 208 m 1,72,-1
 831 590 l 1,73,-1
 675 590 l 1,74,-1
 675 208 l 1,75,-1
 831 208 l 1,72,-1
1576 744 m 1,76,-1
 1576 1032 l 1,77,-1
 1426 1032 l 1,78,-1
 1426 744 l 1,79,-1
 1576 744 l 1,76,-1
EndSplineSet
EndChar

StartChar: ccedilla
Encoding: 231 231 165
Width: 1599
Flags: W
LayerCount: 2
Fore
SplineSet
885 -49 m 1,0,-1
 885 -118 l 1,1,2
 940 -118 940 -118 984.5 -124 c 128,-1,3
 1029 -130 1029 -130 1060 -145 c 128,-1,4
 1091 -160 1091 -160 1108 -186 c 128,-1,5
 1125 -212 1125 -212 1125 -253 c 2,6,-1
 1125 -346 l 2,7,8
 1125 -390 1125 -390 1104.5 -417 c 128,-1,9
 1084 -444 1084 -444 1048.5 -458 c 128,-1,10
 1013 -472 1013 -472 965 -476.5 c 128,-1,11
 917 -481 917 -481 862 -481 c 0,12,13
 804 -481 804 -481 755.5 -476 c 128,-1,14
 707 -471 707 -471 672 -457 c 128,-1,15
 637 -443 637 -443 617.5 -416.5 c 128,-1,16
 598 -390 598 -390 598 -346 c 2,17,-1
 598 -310 l 1,18,-1
 835 -283 l 1,19,-1
 835 -413 l 1,20,-1
 901 -413 l 1,21,-1
 901 -186 l 1,22,-1
 702 -186 l 1,23,-1
 702 -49 l 1,24,-1
 885 -49 l 1,0,-1
1476 324 m 2,25,26
 1476 241 1476 241 1447.5 182.5 c 128,-1,27
 1419 124 1419 124 1369.5 85.5 c 128,-1,28
 1320 47 1320 47 1253.5 25 c 128,-1,29
 1187 3 1187 3 1111 -8.5 c 128,-1,30
 1035 -20 1035 -20 954 -22.5 c 128,-1,31
 873 -25 873 -25 795 -25 c 0,32,33
 715 -25 715 -25 633.5 -22 c 128,-1,34
 552 -19 552 -19 476 -7 c 128,-1,35
 400 5 400 5 334 27.5 c 128,-1,36
 268 50 268 50 219 89.5 c 128,-1,37
 170 129 170 129 141.5 187 c 128,-1,38
 113 245 113 245 113 327 c 2,39,-1
 113 914 l 2,40,41
 113 996 113 996 142.5 1053.5 c 128,-1,42
 172 1111 172 1111 223 1149.5 c 128,-1,43
 274 1188 274 1188 342 1210 c 128,-1,44
 410 1232 410 1232 486.5 1243 c 128,-1,45
 563 1254 563 1254 644 1257 c 128,-1,46
 725 1260 725 1260 802 1260 c 0,47,48
 868 1260 868 1260 944 1258.5 c 128,-1,49
 1020 1257 1020 1257 1094.5 1248 c 128,-1,50
 1169 1239 1169 1239 1238 1219.5 c 128,-1,51
 1307 1200 1307 1200 1359.5 1164 c 128,-1,52
 1412 1128 1412 1128 1443.5 1073 c 128,-1,53
 1475 1018 1475 1018 1475 938 c 2,54,-1
 1475 769 l 1,55,-1
 880 769 l 1,56,-1
 880 1080 l 1,57,-1
 707 1080 l 1,58,-1
 707 156 l 1,59,-1
 885 156 l 1,60,-1
 885 488 l 1,61,-1
 1475 488 l 1,62,-1
 1476 324 l 2,25,26
EndSplineSet
EndChar

StartChar: egrave
Encoding: 232 232 166
Width: 1598
Flags: W
LayerCount: 2
Fore
SplineSet
1179 1468 m 1,0,1
 1214 1440 1214 1440 1214 1426 c 256,2,3
 1214 1412 1214 1412 1195 1404.5 c 128,-1,4
 1176 1397 1176 1397 1149 1397 c 0,5,6
 1129 1397 1129 1397 1115 1402 c 2,7,-1
 1067 1416 l 1,8,9
 986 1438 986 1438 898.5 1461 c 128,-1,10
 811 1484 811 1484 732.5 1506.5 c 128,-1,11
 654 1529 654 1529 591 1550 c 128,-1,12
 528 1571 528 1571 495 1589 c 0,13,14
 432 1623 432 1623 403.5 1667 c 128,-1,15
 375 1711 375 1711 375 1750 c 0,16,17
 375 1781 375 1781 388 1809 c 128,-1,18
 401 1837 401 1837 425 1858.5 c 128,-1,19
 449 1880 449 1880 482 1892.5 c 128,-1,20
 515 1905 515 1905 556 1905 c 0,21,22
 586 1905 586 1905 620.5 1896.5 c 128,-1,23
 655 1888 655 1888 685 1872 c 0,24,25
 717 1855 717 1855 762 1821.5 c 128,-1,26
 807 1788 807 1788 858 1746.5 c 128,-1,27
 909 1705 909 1705 961.5 1659.5 c 128,-1,28
 1014 1614 1014 1614 1061 1573 c 2,29,-1
 1179 1470 l 1,30,-1
 1179 1468 l 1,0,1
1472 449 m 1,31,32
 1476 421 1476 421 1478 397 c 128,-1,33
 1480 373 1480 373 1480 352 c 0,34,35
 1480 246 1480 246 1437.5 174 c 128,-1,36
 1395 102 1395 102 1309 57.5 c 128,-1,37
 1223 13 1223 13 1094 -6 c 128,-1,38
 965 -25 965 -25 792 -25 c 0,39,40
 713 -25 713 -25 632 -22.5 c 128,-1,41
 551 -20 551 -20 475 -9 c 128,-1,42
 399 2 399 2 332.5 24 c 128,-1,43
 266 46 266 46 216.5 85 c 128,-1,44
 167 124 167 124 138.5 182.5 c 128,-1,45
 110 241 110 241 110 325 c 2,46,-1
 110 912 l 2,47,48
 110 993 110 993 139.5 1050.5 c 128,-1,49
 169 1108 169 1108 220 1147 c 128,-1,50
 271 1186 271 1186 338.5 1208.5 c 128,-1,51
 406 1231 406 1231 481.5 1242.5 c 128,-1,52
 557 1254 557 1254 636.5 1257 c 128,-1,53
 716 1260 716 1260 790 1260 c 0,54,55
 866 1260 866 1260 946.5 1257 c 128,-1,56
 1027 1254 1027 1254 1103 1243 c 128,-1,57
 1179 1232 1179 1232 1246 1209.5 c 128,-1,58
 1313 1187 1313 1187 1363 1148.5 c 128,-1,59
 1413 1110 1413 1110 1442.5 1052.5 c 128,-1,60
 1472 995 1472 995 1472 913 c 2,61,-1
 1472 590 l 1,62,-1
 704 590 l 1,63,-1
 704 156 l 1,64,-1
 877 156 l 1,65,-1
 877 434 l 1,66,-1
 1472 434 l 1,67,-1
 1472 449 l 1,31,32
878 721 m 1,68,-1
 878 1080 l 1,69,-1
 704 1080 l 1,70,-1
 704 721 l 1,71,-1
 878 721 l 1,68,-1
EndSplineSet
EndChar

StartChar: eacute
Encoding: 233 233 167
Width: 1598
Flags: W
LayerCount: 2
Fore
SplineSet
527 1573 m 2,0,1
 575 1615 575 1615 627.5 1659.5 c 128,-1,2
 680 1704 680 1704 730.5 1744.5 c 128,-1,3
 781 1785 781 1785 826 1818.5 c 128,-1,4
 871 1852 871 1852 904 1872 c 1,5,6
 935 1887 935 1887 968 1896 c 128,-1,7
 1001 1905 1001 1905 1033 1905 c 0,8,9
 1073 1905 1073 1905 1106 1892.5 c 128,-1,10
 1139 1880 1139 1880 1163 1858.5 c 128,-1,11
 1187 1837 1187 1837 1200.5 1809 c 128,-1,12
 1214 1781 1214 1781 1214 1750 c 0,13,14
 1214 1710 1214 1710 1185.5 1667 c 128,-1,15
 1157 1624 1157 1624 1094 1589 c 0,16,17
 1069 1575 1069 1575 1020.5 1558 c 128,-1,18
 972 1541 972 1541 910.5 1522.5 c 128,-1,19
 849 1504 849 1504 780 1485.5 c 128,-1,20
 711 1467 711 1467 646 1449 c 2,21,-1
 586 1433 l 2,22,23
 551 1423 551 1423 511.5 1410 c 128,-1,24
 472 1397 472 1397 441 1397 c 0,25,26
 414 1397 414 1397 394.5 1404.5 c 128,-1,27
 375 1412 375 1412 375 1426 c 0,28,29
 375 1433 375 1433 384 1444 c 128,-1,30
 393 1455 393 1455 410 1470 c 2,31,-1
 527 1573 l 2,0,1
1472 449 m 1,32,33
 1476 421 1476 421 1478 397 c 128,-1,34
 1480 373 1480 373 1480 352 c 0,35,36
 1480 246 1480 246 1437.5 174 c 128,-1,37
 1395 102 1395 102 1309 57.5 c 128,-1,38
 1223 13 1223 13 1094 -6 c 128,-1,39
 965 -25 965 -25 792 -25 c 0,40,41
 713 -25 713 -25 632 -22.5 c 128,-1,42
 551 -20 551 -20 475 -9 c 128,-1,43
 399 2 399 2 332.5 24 c 128,-1,44
 266 46 266 46 216.5 85 c 128,-1,45
 167 124 167 124 138.5 182.5 c 128,-1,46
 110 241 110 241 110 325 c 2,47,-1
 110 912 l 2,48,49
 110 993 110 993 139.5 1050.5 c 128,-1,50
 169 1108 169 1108 220 1147 c 128,-1,51
 271 1186 271 1186 338.5 1208.5 c 128,-1,52
 406 1231 406 1231 481.5 1242.5 c 128,-1,53
 557 1254 557 1254 636.5 1257 c 128,-1,54
 716 1260 716 1260 790 1260 c 0,55,56
 866 1260 866 1260 946.5 1257 c 128,-1,57
 1027 1254 1027 1254 1103 1243 c 128,-1,58
 1179 1232 1179 1232 1246 1209.5 c 128,-1,59
 1313 1187 1313 1187 1363 1148.5 c 128,-1,60
 1413 1110 1413 1110 1442.5 1052.5 c 128,-1,61
 1472 995 1472 995 1472 913 c 2,62,-1
 1472 590 l 1,63,-1
 704 590 l 1,64,-1
 704 156 l 1,65,-1
 877 156 l 1,66,-1
 877 434 l 1,67,-1
 1472 434 l 1,68,-1
 1472 449 l 1,32,33
878 721 m 1,69,-1
 878 1080 l 1,70,-1
 704 1080 l 1,71,-1
 704 721 l 1,72,-1
 878 721 l 1,69,-1
EndSplineSet
EndChar

StartChar: ecircumflex
Encoding: 234 234 168
Width: 1598
Flags: W
LayerCount: 2
Fore
SplineSet
648 1881 m 2,0,1
 669 1910 669 1910 709.5 1926 c 128,-1,2
 750 1942 750 1942 795 1942 c 256,3,4
 840 1942 840 1942 879.5 1927.5 c 128,-1,5
 919 1913 919 1913 942 1881 c 2,6,-1
 1216 1481 l 2,7,8
 1233 1455 1233 1455 1235 1440 c 1,9,10
 1235 1422 1235 1422 1215.5 1409.5 c 128,-1,11
 1196 1397 1196 1397 1170 1397 c 0,12,13
 1150 1397 1150 1397 1136 1401.5 c 128,-1,14
 1122 1406 1122 1406 1110 1415 c 2,15,-1
 794 1644 l 1,16,-1
 480 1415 l 2,17,18
 458 1399 458 1399 428 1399 c 0,19,20
 399 1399 399 1399 376.5 1410 c 128,-1,21
 354 1421 354 1421 354 1441 c 0,22,23
 354 1454 354 1454 374 1480 c 1,24,-1
 374 1481 l 1,25,-1
 648 1881 l 2,0,1
1472 449 m 1,26,27
 1476 421 1476 421 1478 397 c 128,-1,28
 1480 373 1480 373 1480 352 c 0,29,30
 1480 246 1480 246 1437.5 174 c 128,-1,31
 1395 102 1395 102 1309 57.5 c 128,-1,32
 1223 13 1223 13 1094 -6 c 128,-1,33
 965 -25 965 -25 792 -25 c 0,34,35
 713 -25 713 -25 632 -22.5 c 128,-1,36
 551 -20 551 -20 475 -9 c 128,-1,37
 399 2 399 2 332.5 24 c 128,-1,38
 266 46 266 46 216.5 85 c 128,-1,39
 167 124 167 124 138.5 182.5 c 128,-1,40
 110 241 110 241 110 325 c 2,41,-1
 110 912 l 2,42,43
 110 993 110 993 139.5 1050.5 c 128,-1,44
 169 1108 169 1108 220 1147 c 128,-1,45
 271 1186 271 1186 338.5 1208.5 c 128,-1,46
 406 1231 406 1231 481.5 1242.5 c 128,-1,47
 557 1254 557 1254 636.5 1257 c 128,-1,48
 716 1260 716 1260 790 1260 c 0,49,50
 866 1260 866 1260 946.5 1257 c 128,-1,51
 1027 1254 1027 1254 1103 1243 c 128,-1,52
 1179 1232 1179 1232 1246 1209.5 c 128,-1,53
 1313 1187 1313 1187 1363 1148.5 c 128,-1,54
 1413 1110 1413 1110 1442.5 1052.5 c 128,-1,55
 1472 995 1472 995 1472 913 c 2,56,-1
 1472 590 l 1,57,-1
 704 590 l 1,58,-1
 704 156 l 1,59,-1
 877 156 l 1,60,-1
 877 434 l 1,61,-1
 1472 434 l 1,62,-1
 1472 449 l 1,26,27
878 721 m 1,63,-1
 878 1080 l 1,64,-1
 704 1080 l 1,65,-1
 704 721 l 1,66,-1
 878 721 l 1,63,-1
EndSplineSet
EndChar

StartChar: edieresis
Encoding: 235 235 169
Width: 1614
Flags: W
LayerCount: 2
Fore
SplineSet
683 1397 m 1,0,-1
 216 1397 l 1,1,-1
 216 1687 l 1,2,-1
 683 1687 l 1,3,-1
 683 1397 l 1,0,-1
1394 1397 m 1,4,-1
 926 1397 l 1,5,-1
 926 1687 l 1,6,-1
 1394 1687 l 1,7,-1
 1394 1397 l 1,4,-1
1482 449 m 1,8,9
 1486 421 1486 421 1488 397 c 128,-1,10
 1490 373 1490 373 1490 352 c 0,11,12
 1490 246 1490 246 1447.5 174 c 128,-1,13
 1405 102 1405 102 1319 57.5 c 128,-1,14
 1233 13 1233 13 1104 -6 c 128,-1,15
 975 -25 975 -25 802 -25 c 0,16,17
 723 -25 723 -25 642 -22.5 c 128,-1,18
 561 -20 561 -20 485 -9 c 128,-1,19
 409 2 409 2 342.5 24 c 128,-1,20
 276 46 276 46 226.5 85 c 128,-1,21
 177 124 177 124 148.5 182.5 c 128,-1,22
 120 241 120 241 120 325 c 2,23,-1
 120 912 l 2,24,25
 120 993 120 993 149.5 1050.5 c 128,-1,26
 179 1108 179 1108 230 1147 c 128,-1,27
 281 1186 281 1186 348.5 1208.5 c 128,-1,28
 416 1231 416 1231 491.5 1242.5 c 128,-1,29
 567 1254 567 1254 646.5 1257 c 128,-1,30
 726 1260 726 1260 800 1260 c 0,31,32
 876 1260 876 1260 956.5 1257 c 128,-1,33
 1037 1254 1037 1254 1113 1243 c 128,-1,34
 1189 1232 1189 1232 1256 1209.5 c 128,-1,35
 1323 1187 1323 1187 1373 1148.5 c 128,-1,36
 1423 1110 1423 1110 1452.5 1052.5 c 128,-1,37
 1482 995 1482 995 1482 913 c 2,38,-1
 1482 590 l 1,39,-1
 714 590 l 1,40,-1
 714 156 l 1,41,-1
 887 156 l 1,42,-1
 887 434 l 1,43,-1
 1482 434 l 1,44,-1
 1482 449 l 1,8,9
888 721 m 1,45,-1
 888 1080 l 1,46,-1
 714 1080 l 1,47,-1
 714 721 l 1,48,-1
 888 721 l 1,45,-1
EndSplineSet
EndChar

StartChar: igrave
Encoding: 236 236 170
Width: 899
Flags: W
LayerCount: 2
Fore
SplineSet
818 1468 m 1,0,1
 853 1440 853 1440 853 1426 c 256,2,3
 853 1412 853 1412 834 1404.5 c 128,-1,4
 815 1397 815 1397 787 1397 c 0,5,6
 768 1397 768 1397 754 1402 c 2,7,-1
 705 1416 l 2,8,9
 624 1439 624 1439 537.5 1462 c 128,-1,10
 451 1485 451 1485 372.5 1507 c 128,-1,11
 294 1529 294 1529 231 1550 c 128,-1,12
 168 1571 168 1571 134 1589 c 0,13,14
 71 1623 71 1623 42 1667 c 128,-1,15
 13 1711 13 1711 13 1750 c 0,16,17
 13 1781 13 1781 26 1809 c 128,-1,18
 39 1837 39 1837 63 1858.5 c 128,-1,19
 87 1880 87 1880 120.5 1892.5 c 128,-1,20
 154 1905 154 1905 195 1905 c 0,21,22
 225 1905 225 1905 260 1896 c 128,-1,23
 295 1887 295 1887 324 1872 c 0,24,25
 353 1856 353 1856 392 1828.5 c 128,-1,26
 431 1801 431 1801 475 1765.5 c 128,-1,27
 519 1730 519 1730 566 1690 c 128,-1,28
 613 1650 613 1650 658 1610.5 c 128,-1,29
 703 1571 703 1571 744 1534.5 c 128,-1,30
 785 1498 785 1498 818 1470 c 1,31,-1
 818 1468 l 1,0,1
137 0 m 1,32,-1
 137 1230 l 1,33,-1
 730 1230 l 1,34,-1
 730 0 l 1,35,-1
 137 0 l 1,32,-1
EndSplineSet
EndChar

StartChar: iacute
Encoding: 237 237 171
Width: 900
Flags: W
LayerCount: 2
Fore
SplineSet
189 1573 m 2,0,1
 237 1615 237 1615 289.5 1659.5 c 128,-1,2
 342 1704 342 1704 392.5 1744.5 c 128,-1,3
 443 1785 443 1785 488 1818.5 c 128,-1,4
 533 1852 533 1852 566 1872 c 1,5,6
 597 1887 597 1887 630 1896 c 128,-1,7
 663 1905 663 1905 695 1905 c 0,8,9
 735 1905 735 1905 768 1892.5 c 128,-1,10
 801 1880 801 1880 825 1858.5 c 128,-1,11
 849 1837 849 1837 862.5 1809 c 128,-1,12
 876 1781 876 1781 876 1750 c 0,13,14
 876 1710 876 1710 847.5 1667 c 128,-1,15
 819 1624 819 1624 756 1589 c 0,16,17
 731 1575 731 1575 682.5 1558 c 128,-1,18
 634 1541 634 1541 573 1523 c 128,-1,19
 512 1505 512 1505 443 1486 c 128,-1,20
 374 1467 374 1467 308 1449 c 2,21,-1
 136 1402 l 2,22,23
 126 1399 126 1399 118 1398 c 128,-1,24
 110 1397 110 1397 102 1397 c 0,25,26
 75 1397 75 1397 55.5 1404.5 c 128,-1,27
 36 1412 36 1412 36 1426 c 0,28,29
 36 1431 36 1431 45.5 1443 c 128,-1,30
 55 1455 55 1455 72 1470 c 2,31,-1
 189 1573 l 2,0,1
160 0 m 1,32,-1
 160 1230 l 1,33,-1
 753 1230 l 1,34,-1
 753 0 l 1,35,-1
 160 0 l 1,32,-1
EndSplineSet
EndChar

StartChar: icircumflex
Encoding: 238 238 172
Width: 945
Flags: W
LayerCount: 2
Fore
SplineSet
321 1881 m 2,0,1
 342 1910 342 1910 383 1926 c 128,-1,2
 424 1942 424 1942 468 1942 c 0,3,4
 513 1942 513 1942 552.5 1927.5 c 128,-1,5
 592 1913 592 1913 615 1881 c 2,6,-1
 889 1481 l 2,7,8
 898 1467 898 1467 902 1457 c 128,-1,9
 906 1447 906 1447 907 1440 c 1,10,11
 907 1422 907 1422 888.5 1409.5 c 128,-1,12
 870 1397 870 1397 843 1397 c 0,13,14
 823 1397 823 1397 809 1401.5 c 128,-1,15
 795 1406 795 1406 783 1415 c 2,16,-1
 467 1644 l 1,17,-1
 153 1415 l 2,18,19
 141 1406 141 1406 127 1402.5 c 128,-1,20
 113 1399 113 1399 96 1399 c 0,21,22
 69 1399 69 1399 48 1411 c 128,-1,23
 27 1423 27 1423 27 1441 c 0,24,25
 27 1447 27 1447 31 1457 c 128,-1,26
 35 1467 35 1467 45 1481 c 2,27,-1
 321 1881 l 2,0,1
171 0 m 1,28,-1
 171 1230 l 1,29,-1
 764 1230 l 1,30,-1
 764 0 l 1,31,-1
 171 0 l 1,28,-1
EndSplineSet
EndChar

StartChar: idieresis
Encoding: 239 239 173
Width: 1135
Flags: W
LayerCount: 2
Fore
SplineSet
437 1397 m 1,0,-1
 -31 1397 l 1,1,-1
 -31 1687 l 1,2,-1
 437 1687 l 1,3,-1
 437 1397 l 1,0,-1
1148 1397 m 1,4,-1
 680 1397 l 1,5,-1
 680 1687 l 1,6,-1
 1148 1687 l 1,7,-1
 1148 1397 l 1,4,-1
263 0 m 1,8,-1
 263 1230 l 1,9,-1
 856 1230 l 1,10,-1
 856 0 l 1,11,-1
 263 0 l 1,8,-1
EndSplineSet
EndChar

StartChar: eth
Encoding: 240 240 174
Width: 1505
Flags: W
LayerCount: 2
Fore
SplineSet
535 1815 m 1,0,-1
 535 1809 l 1,1,2
 585 1789 585 1789 636.5 1765 c 128,-1,3
 688 1741 688 1741 737.5 1714 c 128,-1,4
 787 1687 787 1687 832.5 1659 c 128,-1,5
 878 1631 878 1631 917 1603 c 1,6,-1
 917 1602 l 1,7,-1
 1138 1744 l 1,8,-1
 1199 1646 l 1,9,-1
 1034 1541 l 1,10,-1
 1034 1511 l 1,11,12
 1108 1443 1108 1443 1173.5 1363 c 128,-1,13
 1239 1283 1239 1283 1288 1190 c 128,-1,14
 1337 1097 1337 1097 1365.5 992 c 128,-1,15
 1394 887 1394 887 1394 770 c 0,16,17
 1394 654 1394 654 1386.5 543.5 c 128,-1,18
 1379 433 1379 433 1355 337.5 c 128,-1,19
 1331 242 1331 242 1286 166 c 128,-1,20
 1241 90 1241 90 1166 42 c 1,21,22
 1090 1 1090 1 981.5 -17.5 c 128,-1,23
 873 -36 873 -36 739 -36 c 0,24,25
 624 -36 624 -36 523.5 -26 c 128,-1,26
 423 -16 423 -16 343 10.5 c 128,-1,27
 263 37 263 37 205.5 83.5 c 128,-1,28
 148 130 148 130 119 204 c 0,29,30
 94 267 94 267 86 339 c 128,-1,31
 78 411 78 411 78 493 c 0,32,33
 78 574 78 574 87.5 645.5 c 128,-1,34
 97 717 97 717 119.5 776.5 c 128,-1,35
 142 836 142 836 179 883 c 128,-1,36
 216 930 216 930 271 963 c 1,37,38
 340 998 340 998 435.5 1016 c 128,-1,39
 531 1034 531 1034 650 1034 c 2,40,-1
 797 1034 l 1,41,-1
 797 1054 l 2,42,43
 797 1085 797 1085 788.5 1111.5 c 128,-1,44
 780 1138 780 1138 767 1161 c 128,-1,45
 754 1184 754 1184 738.5 1202.5 c 128,-1,46
 723 1221 723 1221 708 1235 c 2,47,-1
 651 1290 l 1,48,-1
 651 1292 l 1,49,-1
 544 1221 l 2,50,51
 518 1204 518 1204 489 1185.5 c 128,-1,52
 460 1167 460 1167 433 1150 c 2,53,-1
 386 1120 l 1,54,-1
 326 1217 l 1,55,-1
 530 1349 l 1,56,-1
 530 1382 l 1,57,-1
 504 1398 l 2,58,59
 455 1428 455 1428 406.5 1454.5 c 128,-1,60
 358 1481 358 1481 313 1501 c 1,61,-1
 533 1814 l 1,62,-1
 535 1815 l 1,0,-1
668 809 m 1,63,-1
 668 195 l 1,64,-1
 796 195 l 1,65,-1
 796 809 l 1,66,-1
 668 809 l 1,63,-1
EndSplineSet
EndChar

StartChar: ntilde
Encoding: 241 241 175
Width: 1654
Flags: W
LayerCount: 2
Fore
SplineSet
1186 1422 m 1,0,1
 1185 1452 1185 1452 1178.5 1481 c 128,-1,2
 1172 1510 1172 1510 1158.5 1532.5 c 128,-1,3
 1145 1555 1145 1555 1123 1568.5 c 128,-1,4
 1101 1582 1101 1582 1070 1582 c 0,5,6
 1043 1582 1043 1582 1017.5 1568 c 128,-1,7
 992 1554 992 1554 973 1539 c 2,8,-1
 963 1531 l 2,9,10
 929 1505 929 1505 891 1481 c 128,-1,11
 853 1457 853 1457 807.5 1438 c 128,-1,12
 762 1419 762 1419 706.5 1408 c 128,-1,13
 651 1397 651 1397 582 1397 c 0,14,15
 489 1397 489 1397 422 1416 c 128,-1,16
 355 1435 355 1435 308.5 1471.5 c 128,-1,17
 262 1508 262 1508 232.5 1561.5 c 128,-1,18
 203 1615 203 1615 186 1684 c 1,19,20
 173 1729 173 1729 166 1783 c 128,-1,21
 159 1837 159 1837 159 1897 c 1,22,-1
 465 1897 l 1,23,24
 465 1865 465 1865 471 1835.5 c 128,-1,25
 477 1806 477 1806 490.5 1783 c 128,-1,26
 504 1760 504 1760 527 1746 c 128,-1,27
 550 1732 550 1732 583 1732 c 0,28,29
 610 1732 610 1732 636 1747 c 128,-1,30
 662 1762 662 1762 684 1778 c 2,31,-1
 695 1786 l 1,32,33
 730 1810 730 1810 768 1834.5 c 128,-1,34
 806 1859 806 1859 850.5 1878.5 c 128,-1,35
 895 1898 895 1898 948.5 1910 c 128,-1,36
 1002 1922 1002 1922 1067 1922 c 0,37,38
 1208 1922 1208 1922 1291.5 1888 c 128,-1,39
 1375 1854 1375 1854 1419 1790 c 128,-1,40
 1463 1726 1463 1726 1476 1633 c 128,-1,41
 1489 1540 1489 1540 1489 1422 c 1,42,-1
 1186 1422 l 1,0,1
1183 1390 m 1,43,-1
 1183 1416 l 1,44,-1
 1186 1409 l 1,45,-1
 1186 1396 l 1,46,-1
 1183 1390 l 1,43,-1
1067 1260 m 0,47,48
 1281 1259 1281 1259 1393 1169 c 128,-1,49
 1505 1079 1505 1079 1505 903 c 2,50,-1
 1505 0 l 1,51,-1
 910 0 l 1,52,-1
 910 1080 l 1,53,-1
 737 1080 l 1,54,-1
 737 0 l 1,55,-1
 144 0 l 1,56,-1
 144 1231 l 1,57,-1
 679 1231 l 1,58,-1
 712 1131 l 1,59,60
 734 1159 734 1159 770 1183 c 128,-1,61
 806 1207 806 1207 852 1224 c 128,-1,62
 898 1241 898 1241 952.5 1250.5 c 128,-1,63
 1007 1260 1007 1260 1067 1260 c 0,47,48
EndSplineSet
EndChar

StartChar: ograve
Encoding: 242 242 176
Width: 1598
Flags: W
LayerCount: 2
Fore
SplineSet
1175 1468 m 1,0,1
 1210 1440 1210 1440 1210 1426 c 256,2,3
 1210 1412 1210 1412 1191 1404.5 c 128,-1,4
 1172 1397 1172 1397 1144 1397 c 0,5,6
 1125 1397 1125 1397 1111 1402 c 2,7,-1
 1063 1416 l 1,8,9
 982 1438 982 1438 894.5 1461 c 128,-1,10
 807 1484 807 1484 728.5 1506.5 c 128,-1,11
 650 1529 650 1529 587 1550 c 128,-1,12
 524 1571 524 1571 491 1589 c 0,13,14
 428 1623 428 1623 399.5 1667 c 128,-1,15
 371 1711 371 1711 371 1750 c 0,16,17
 371 1781 371 1781 384 1809 c 128,-1,18
 397 1837 397 1837 421 1858.5 c 128,-1,19
 445 1880 445 1880 478 1892.5 c 128,-1,20
 511 1905 511 1905 552 1905 c 0,21,22
 581 1905 581 1905 616 1896 c 128,-1,23
 651 1887 651 1887 681 1872 c 0,24,25
 711 1856 711 1856 749.5 1828.5 c 128,-1,26
 788 1801 788 1801 832 1765.5 c 128,-1,27
 876 1730 876 1730 922 1690.5 c 128,-1,28
 968 1651 968 1651 1013 1611.5 c 128,-1,29
 1058 1572 1058 1572 1099.5 1535 c 128,-1,30
 1141 1498 1141 1498 1175 1470 c 1,31,-1
 1175 1468 l 1,0,1
875 190 m 1,32,-1
 875 1080 l 1,33,-1
 703 1080 l 1,34,-1
 703 190 l 1,35,-1
 875 190 l 1,32,-1
793 -25 m 0,36,37
 711 -25 711 -25 628.5 -22 c 128,-1,38
 546 -19 546 -19 470 -8 c 128,-1,39
 394 3 394 3 328 25.5 c 128,-1,40
 262 48 262 48 213.5 87 c 128,-1,41
 165 126 165 126 137.5 184 c 128,-1,42
 110 242 110 242 110 325 c 2,43,-1
 110 912 l 2,44,45
 110 992 110 992 139.5 1049 c 128,-1,46
 169 1106 169 1106 219 1144.5 c 128,-1,47
 269 1183 269 1183 336.5 1206 c 128,-1,48
 404 1229 404 1229 480 1241 c 128,-1,49
 556 1253 556 1253 636.5 1256.5 c 128,-1,50
 717 1260 717 1260 794 1260 c 0,51,52
 877 1260 877 1260 959.5 1256.5 c 128,-1,53
 1042 1253 1042 1253 1117 1240.5 c 128,-1,54
 1192 1228 1192 1228 1257 1205 c 128,-1,55
 1322 1182 1322 1182 1369.5 1143 c 128,-1,56
 1417 1104 1417 1104 1444 1047.5 c 128,-1,57
 1471 991 1471 991 1471 911 c 2,58,-1
 1471 324 l 2,59,60
 1471 239 1471 239 1443 180 c 128,-1,61
 1415 121 1415 121 1366 82.5 c 128,-1,62
 1317 44 1317 44 1251 22 c 128,-1,63
 1185 0 1185 0 1110 -10.5 c 128,-1,64
 1035 -21 1035 -21 953.5 -23 c 128,-1,65
 872 -25 872 -25 793 -25 c 0,36,37
EndSplineSet
EndChar

StartChar: oacute.001
Encoding: 65537 -1 177
Width: 1598
Flags: W
LayerCount: 2
Fore
SplineSet
523 1573 m 2,0,1
 571 1615 571 1615 623.5 1659.5 c 128,-1,2
 676 1704 676 1704 726.5 1744.5 c 128,-1,3
 777 1785 777 1785 822 1818.5 c 128,-1,4
 867 1852 867 1852 900 1872 c 1,5,6
 931 1887 931 1887 964 1896 c 128,-1,7
 997 1905 997 1905 1029 1905 c 0,8,9
 1069 1905 1069 1905 1102 1892.5 c 128,-1,10
 1135 1880 1135 1880 1159 1858.5 c 128,-1,11
 1183 1837 1183 1837 1196.5 1809 c 128,-1,12
 1210 1781 1210 1781 1210 1750 c 0,13,14
 1210 1710 1210 1710 1181.5 1667 c 128,-1,15
 1153 1624 1153 1624 1090 1589 c 0,16,17
 1065 1575 1065 1575 1016.5 1558 c 128,-1,18
 968 1541 968 1541 906.5 1522.5 c 128,-1,19
 845 1504 845 1504 776 1485.5 c 128,-1,20
 707 1467 707 1467 642 1449 c 2,21,-1
 582 1433 l 2,22,23
 547 1423 547 1423 507.5 1410 c 128,-1,24
 468 1397 468 1397 437 1397 c 0,25,26
 410 1397 410 1397 390.5 1404.5 c 128,-1,27
 371 1412 371 1412 371 1426 c 0,28,29
 371 1433 371 1433 380 1444 c 128,-1,30
 389 1455 389 1455 406 1470 c 2,31,-1
 523 1573 l 2,0,1
875 190 m 1,32,-1
 875 1080 l 1,33,-1
 703 1080 l 1,34,-1
 703 190 l 1,35,-1
 875 190 l 1,32,-1
793 -25 m 0,36,37
 711 -25 711 -25 628.5 -22 c 128,-1,38
 546 -19 546 -19 470 -8 c 128,-1,39
 394 3 394 3 328 25.5 c 128,-1,40
 262 48 262 48 213.5 87 c 128,-1,41
 165 126 165 126 137.5 184 c 128,-1,42
 110 242 110 242 110 325 c 2,43,-1
 110 912 l 2,44,45
 110 992 110 992 139.5 1049 c 128,-1,46
 169 1106 169 1106 219 1144.5 c 128,-1,47
 269 1183 269 1183 336.5 1206 c 128,-1,48
 404 1229 404 1229 480 1241 c 128,-1,49
 556 1253 556 1253 636.5 1256.5 c 128,-1,50
 717 1260 717 1260 794 1260 c 0,51,52
 877 1260 877 1260 959.5 1256.5 c 128,-1,53
 1042 1253 1042 1253 1117 1240.5 c 128,-1,54
 1192 1228 1192 1228 1257 1205 c 128,-1,55
 1322 1182 1322 1182 1369.5 1143 c 128,-1,56
 1417 1104 1417 1104 1444 1047.5 c 128,-1,57
 1471 991 1471 991 1471 911 c 2,58,-1
 1471 324 l 2,59,60
 1471 239 1471 239 1443 180 c 128,-1,61
 1415 121 1415 121 1366 82.5 c 128,-1,62
 1317 44 1317 44 1251 22 c 128,-1,63
 1185 0 1185 0 1110 -10.5 c 128,-1,64
 1035 -21 1035 -21 953.5 -23 c 128,-1,65
 872 -25 872 -25 793 -25 c 0,36,37
EndSplineSet
EndChar

